# Blender v2.80 (sub 35) OBJ File: ''
# www.blender.org
mtllib plant.mtl
o Plane.005
v 0.390869 0.533698 0.855934
v 0.676866 0.706762 0.855934
v 0.731574 -0.011666 0.500200
v 0.390869 -0.184730 0.500200
v 0.104873 0.706762 0.855934
v 0.050164 -0.011666 0.500200
v 0.234048 0.857782 1.754160
v 0.390869 0.684719 1.754160
v 0.390869 0.870471 1.459602
v 0.159580 1.043535 1.459602
v 0.547690 0.857782 1.754160
v 0.622158 1.043535 1.459602
v 0.473224 0.421750 2.048717
v 0.473224 0.421750 2.048717
v 0.547690 0.857782 1.754160
v 0.622158 1.043535 1.459602
v 0.390869 0.248686 2.048717
v 0.308515 0.421750 2.048717
vt 0.220000 0.912300
vt 0.246258 0.912300
vt 0.246258 0.925429
vt 0.220000 0.925429
vt 0.193742 0.912300
vt 0.193742 0.925429
vt 0.193742 0.886042
vt 0.220000 0.886042
vt 0.220000 0.899171
vt 0.193742 0.899171
vt 0.246258 0.886042
vt 0.246258 0.899171
vt 0.246258 0.872914
vt 0.246258 0.872914
vt 0.246258 0.886042
vt 0.246258 0.899171
vt 0.220000 0.872914
vt 0.193742 0.872914
vn -0.2343 0.4242 -0.8747
vn 0.2343 0.4242 -0.8747
vn 0.6208 0.6961 0.3605
vn -0.6208 0.6961 0.3605
vn 0.0000 0.0000 1.0000
vn -0.6621 0.4575 0.5936
vn 0.6621 0.4575 0.5936
vn 0.4996 0.7467 -0.4392
vn -0.4996 0.7467 -0.4392
usemtl Color.001
s 1
f 1/1/1 2/2/1 3/3/1 4/4/1
f 5/5/2 1/1/2 4/4/2 6/6/2
f 7/7/3 8/8/3 9/9/3 10/10/3
f 8/8/4 11/11/4 12/12/4 9/9/4
f 11/11/5 13/13/5 14/14/5 15/15/5
f 12/12/5 11/11/5 15/15/5 16/16/5
f 17/17/6 13/13/6 11/11/6 8/8/6
f 18/18/7 17/17/7 8/8/7 7/7/7
f 10/10/8 9/9/8 1/1/8 5/5/8
f 9/9/9 12/12/9 2/2/9 1/1/9
o Plane.006
v 0.148974 0.533698 0.635139
v 0.295345 0.706762 0.880842
v 0.628959 -0.011666 0.745779
v 0.454589 -0.184730 0.453077
v 0.002604 0.706762 0.389437
v 0.280219 -0.011666 0.160375
v -0.702959 0.857782 0.960117
v -0.622700 0.684719 1.094845
v -0.369642 0.870471 0.944092
v -0.488014 1.043535 0.745390
v -0.542440 0.857782 1.229570
v -0.251270 1.043535 1.142794
v -0.833609 0.421750 1.316347
v -0.833609 0.421750 1.316347
v -0.542440 0.857782 1.229570
v -0.251270 1.043535 1.142794
v -0.875757 0.248686 1.245596
v -0.917906 0.421750 1.174845
vt 0.178000 0.843685
vt 0.207911 0.843685
vt 0.207911 0.858641
vt 0.178000 0.858641
vt 0.148089 0.843685
vt 0.148089 0.858641
vt 0.148089 0.813774
vt 0.178000 0.813774
vt 0.178000 0.828729
vt 0.148089 0.828729
vt 0.207911 0.813774
vt 0.207911 0.828729
vt 0.207911 0.798818
vt 0.207911 0.798818
vt 0.207911 0.813774
vt 0.207911 0.828729
vt 0.178000 0.798818
vt 0.148089 0.798818
vn 0.6316 0.4242 -0.6490
vn 0.8714 0.4242 -0.2464
vn 0.0080 0.6961 0.7179
vn -0.6275 0.6961 -0.3489
vn 0.0000 0.0000 1.0000
vn -0.8488 0.4575 -0.2650
vn -0.1711 0.4575 0.8726
vn 0.6330 0.7467 0.2044
vn 0.1216 0.7467 -0.6540
usemtl Color.001
s 1
f 19/19/10 20/20/10 21/21/10 22/22/10
f 23/23/11 19/19/11 22/22/11 24/24/11
f 25/25/12 26/26/12 27/27/12 28/28/12
f 26/26/13 29/29/13 30/30/13 27/27/13
f 29/29/14 31/31/14 32/32/14 33/33/14
f 30/30/14 29/29/14 33/33/14 34/34/14
f 35/35/15 31/31/15 29/29/15 26/26/15
f 36/36/16 35/35/16 26/26/16 25/25/16
f 28/28/17 27/27/17 19/19/17 23/23/17
f 27/27/18 30/30/18 20/20/18 19/19/18
o Plane.007
v 0.234472 0.460492 0.946058
v 0.477772 0.633555 1.096390
v 0.711300 -0.084873 0.822521
v 0.421460 -0.257937 0.643432
v -0.008827 0.633555 0.795727
v 0.131620 -0.084872 0.464344
v -0.371082 0.784575 1.627752
v -0.237673 0.611512 1.710184
v -0.082841 0.797264 1.459602
v -0.279600 0.970328 1.338028
v -0.104263 0.784575 1.792616
v 0.113918 0.970328 1.581177
v -0.322445 0.348543 2.004055
v -0.322445 0.348543 2.004055
v -0.104263 0.784575 1.792616
v 0.113918 0.970328 1.581177
v -0.392504 0.175479 1.960766
v -0.462564 0.348543 1.917479
vt 0.212000 0.894918
vt 0.244930 0.894918
vt 0.244930 0.911384
vt 0.212000 0.911384
vt 0.179070 0.894918
vt 0.179070 0.911384
vt 0.179070 0.861988
vt 0.212000 0.861988
vt 0.212000 0.878453
vt 0.179070 0.878453
vt 0.244930 0.861988
vt 0.244930 0.878453
vt 0.244930 0.845523
vt 0.244930 0.845523
vt 0.244930 0.861988
vt 0.244930 0.878453
vt 0.212000 0.845523
vt 0.179070 0.845523
vn 0.2605 0.4242 -0.8673
vn 0.6591 0.4242 -0.6210
vn 0.3386 0.6961 0.6330
vn -0.7176 0.6961 -0.0196
vn 0.0000 0.0000 1.0000
vn -0.8752 0.4575 0.1569
vn 0.2513 0.4575 0.8530
vn 0.6559 0.7467 -0.1110
vn -0.1942 0.7467 -0.6362
usemtl Color.001
s 1
f 37/37/19 38/38/19 39/39/19 40/40/19
f 41/41/20 37/37/20 40/40/20 42/42/20
f 43/43/21 44/44/21 45/45/21 46/46/21
f 44/44/22 47/47/22 48/48/22 45/45/22
f 47/47/23 49/49/23 50/50/23 51/51/23
f 48/48/23 47/47/23 51/51/23 52/52/23
f 53/53/24 49/49/24 47/47/24 44/44/24
f 54/54/25 53/53/25 44/44/25 43/43/25
f 46/46/26 45/45/26 37/37/26 41/41/26
f 45/45/27 48/48/27 38/38/27 37/37/27
o Plane.010
v 0.462099 0.589167 0.314890
v 0.176505 0.762231 0.330063
v 0.140747 0.043803 0.688198
v 0.480972 -0.129261 0.670122
v 0.747693 0.762231 0.299717
v 0.821197 0.043803 0.652048
v 0.571047 0.913252 -0.590391
v 0.414446 0.740188 -0.582071
v 0.430073 0.925941 -0.287928
v 0.661036 1.099005 -0.300198
v 0.257844 0.913252 -0.573751
v 0.199109 1.099005 -0.275658
v 0.316580 0.477220 -0.871845
v 0.316580 0.477220 -0.871845
v 0.257844 0.913252 -0.573751
v 0.199109 1.099005 -0.275658
v 0.398818 0.304156 -0.876213
v 0.481057 0.477220 -0.880583
vt 0.138000 0.887853
vt 0.170613 0.887853
vt 0.170613 0.904160
vt 0.138000 0.904160
vt 0.105387 0.887853
vt 0.105387 0.904160
vt 0.105387 0.855241
vt 0.138000 0.855241
vt 0.138000 0.871547
vt 0.105387 0.871547
vt 0.170613 0.855241
vt 0.170613 0.871547
vt 0.170613 0.838934
vt 0.170613 0.838934
vt 0.170613 0.855241
vt 0.170613 0.871547
vt 0.138000 0.838934
vt 0.105387 0.838934
vn 0.2804 0.4242 0.8611
vn -0.1876 0.4242 0.8859
vn -0.6391 0.6961 -0.3271
vn 0.6008 0.6961 -0.3929
vn 0.0000 0.0000 1.0000
vn 0.6297 0.4575 -0.6278
vn -0.6927 0.4575 -0.5576
vn -0.4756 0.7467 0.4651
vn 0.5222 0.7467 0.4121
usemtl Color.001
s 1
f 55/55/28 56/56/28 57/57/28 58/58/28
f 59/59/29 55/55/29 58/58/29 60/60/29
f 61/61/30 62/62/30 63/63/30 64/64/30
f 62/62/31 65/65/31 66/66/31 63/63/31
f 65/65/32 67/67/32 68/68/32 69/69/32
f 66/66/32 65/65/32 69/69/32 70/70/32
f 71/71/33 67/67/33 65/65/33 62/62/33
f 72/72/34 71/71/34 62/62/34 61/61/34
f 64/64/35 63/63/35 55/55/35 59/59/35
f 63/63/36 66/66/36 56/56/36 55/55/36
o Plane.009
v 0.715365 0.660891 0.522541
v 0.556165 0.833955 0.284950
v 0.230186 0.115526 0.437521
v 0.419840 -0.057537 0.720560
v 0.874565 0.833955 0.760134
v 0.609493 0.115526 1.003601
v 1.548859 0.984975 0.152824
v 1.461564 0.811911 0.022545
v 1.216861 0.997663 0.186510
v 1.345608 1.170727 0.378653
v 1.374269 0.984976 -0.107735
v 1.088114 1.170727 -0.005632
v 1.660424 0.548943 -0.209837
v 1.660424 0.548943 -0.209837
v 1.374269 0.984976 -0.107735
v 1.088114 1.170727 -0.005632
v 1.706267 0.375879 -0.141420
v 1.752110 0.548943 -0.073006
vt 0.192000 0.865175
vt 0.154394 0.865175
vt 0.154394 0.846372
vt 0.192000 0.846372
vt 0.229606 0.865175
vt 0.229606 0.846372
vt 0.229606 0.902781
vt 0.192000 0.902781
vt 0.192000 0.883978
vt 0.229606 0.883978
vt 0.154394 0.902781
vt 0.154394 0.883978
vt 0.154394 0.921584
vt 0.154394 0.921584
vt 0.154394 0.902781
vt 0.154394 0.883978
vt 0.192000 0.921584
vt 0.229606 0.921584
vn -0.5963 0.4242 0.6816
vn -0.8571 0.4242 0.2923
vn -0.0461 0.6961 -0.7164
vn 0.6451 0.6961 0.3151
vn 0.0000 0.0000 1.0000
vn 0.8617 0.4575 0.2196
vn 0.1245 0.4575 -0.8804
vn -0.6430 0.7467 -0.1706
vn -0.0867 0.7467 0.6595
usemtl Color.001
s 1
f 73/73/37 74/74/37 75/75/37 76/76/37
f 77/77/38 73/73/38 76/76/38 78/78/38
f 79/79/39 80/80/39 81/81/39 82/82/39
f 80/80/40 83/83/40 84/84/40 81/81/40
f 83/83/41 85/85/41 86/86/41 87/87/41
f 84/84/41 83/83/41 87/87/41 88/88/41
f 89/89/42 85/85/42 83/83/42 80/80/42
f 90/90/43 89/89/43 80/80/43 79/79/43
f 82/82/44 81/81/44 73/73/44 77/77/44
f 81/81/45 84/84/45 74/74/45 73/73/45
o Plane.008
v 0.613493 0.464013 0.216597
v 0.362561 0.637076 0.079384
v 0.143890 -0.081352 0.365255
v 0.442823 -0.254416 0.528715
v 0.864426 0.637076 0.353809
v 0.741755 -0.081352 0.692175
v 1.182030 0.788097 -0.496263
v 1.044436 0.615034 -0.571503
v 0.903115 0.800786 -0.313059
v 1.106047 0.973850 -0.202093
v 0.906841 0.788097 -0.646740
v 0.700184 0.973850 -0.424025
v 1.113498 0.352065 -0.869457
v 1.113498 0.352065 -0.869457
v 0.906841 0.788097 -0.646740
v 0.700184 0.973850 -0.424025
v 1.185756 0.179001 -0.829947
v 1.258013 0.352065 -0.790434
vt 0.156000 0.893478
vt 0.191574 0.893478
vt 0.191574 0.911265
vt 0.156000 0.911265
vt 0.120426 0.893478
vt 0.120426 0.911265
vt 0.120426 0.857904
vt 0.156000 0.857904
vt 0.156000 0.875691
vt 0.120426 0.875691
vt 0.191574 0.857904
vt 0.191574 0.875691
vt 0.191574 0.840116
vt 0.191574 0.840116
vt 0.191574 0.857904
vt 0.191574 0.875691
vt 0.156000 0.840116
vt 0.120426 0.840116
vn -0.2141 0.4242 0.8799
vn -0.6252 0.4242 0.6551
vn -0.3717 0.6961 -0.6142
vn 0.7177 0.6961 -0.0185
vn 0.0000 0.0000 1.0000
vn 0.8657 0.4575 -0.2031
vn -0.2961 0.4575 -0.8384
vn -0.6491 0.7467 0.1456
vn 0.2276 0.7467 0.6250
usemtl Color.001
s 1
f 91/91/46 92/92/46 93/93/46 94/94/46
f 95/95/47 91/91/47 94/94/47 96/96/47
f 97/97/48 98/98/48 99/99/48 100/100/48
f 98/98/49 101/101/49 102/102/49 99/99/49
f 101/101/50 103/103/50 104/104/50 105/105/50
f 102/102/50 101/101/50 105/105/50 106/106/50
f 107/107/51 103/103/51 101/101/51 98/98/51
f 108/108/52 107/107/52 98/98/52 97/97/52
f 100/100/53 99/99/53 91/91/53 95/95/53
f 99/99/54 102/102/54 92/92/54 91/91/54
o Plane.013
v 0.977772 0.464013 0.873249
v 1.094138 0.637076 0.611998
v 0.791441 -0.081352 0.417282
v 0.652816 -0.254416 0.728510
v 0.861406 0.637076 1.134502
v 0.514190 -0.081352 1.039738
v 1.734478 0.788096 1.381973
v 1.798285 0.615033 1.238720
v 1.529212 0.800785 1.118870
v 1.435105 0.973849 1.330149
v 1.862093 0.788096 1.095465
v 1.623319 0.973849 0.907591
v 2.100867 0.352064 1.283339
v 2.100867 0.352064 1.283339
v 1.862093 0.788096 1.095465
v 1.623319 0.973849 0.907591
v 2.067359 0.179000 1.358568
v 2.033851 0.352064 1.433798
vt 0.218000 0.911436
vt 0.278442 0.911436
vt 0.278442 0.941657
vt 0.218000 0.941657
vt 0.157558 0.911436
vt 0.157558 0.941657
vt 0.157558 0.850995
vt 0.218000 0.850995
vt 0.218000 0.881216
vt 0.157558 0.881216
vt 0.278442 0.850995
vt 0.278442 0.881216
vt 0.278442 0.820774
vt 0.278442 0.820774
vt 0.278442 0.850995
vt 0.278442 0.881216
vt 0.218000 0.820774
vt 0.157558 0.820774
vn -0.8944 0.4242 -0.1419
vn -0.7037 0.4242 -0.5699
vn 0.5819 0.6961 -0.4204
vn 0.0767 0.6961 0.7138
vn 0.0000 0.0000 1.0000
vn 0.2728 0.4575 0.8463
vn 0.8116 0.4575 -0.3633
vn -0.1979 0.7467 -0.6351
vn -0.6045 0.7467 0.2777
usemtl Color.001
s 1
f 109/109/55 110/110/55 111/111/55 112/112/55
f 113/113/56 109/109/56 112/112/56 114/114/56
f 115/115/57 116/116/57 117/117/57 118/118/57
f 116/116/58 119/119/58 120/120/58 117/117/58
f 119/119/59 121/121/59 122/122/59 123/123/59
f 120/120/59 119/119/59 123/123/59 124/124/59
f 125/125/60 121/121/60 119/119/60 116/116/60
f 126/126/61 125/125/61 116/116/61 115/115/61
f 118/118/62 117/117/62 109/109/62 113/113/62
f 117/117/63 120/120/63 110/110/63 109/109/63
o Plane.012
v 0.681118 0.533698 0.999647
v 0.904985 0.706762 0.821665
v 0.726428 -0.011666 0.509165
v 0.459737 -0.184730 0.721191
v 0.457251 0.706762 1.177629
v 0.193047 -0.011666 0.933220
v 1.117349 0.857782 1.800337
v 1.240103 0.684719 1.702744
v 1.056793 0.870471 1.472176
v 0.875749 1.043535 1.616112
v 1.362857 0.857782 1.605150
v 1.237838 1.043535 1.328240
v 1.487877 0.421750 1.882063
v 1.487877 0.421750 1.882063
v 1.362857 0.857782 1.605150
v 1.237838 1.043535 1.328240
v 1.423412 0.248686 1.933313
v 1.358949 0.421750 1.984564
vt 0.144000 0.899968
vt 0.115206 0.899968
vt 0.115206 0.885571
vt 0.144000 0.885571
vt 0.172794 0.899968
vt 0.172794 0.885571
vt 0.172794 0.928762
vt 0.144000 0.928762
vt 0.144000 0.914365
vt 0.172794 0.914365
vt 0.115206 0.928762
vt 0.115206 0.914365
vt 0.115206 0.943159
vt 0.115206 0.943159
vt 0.115206 0.928762
vt 0.115206 0.914365
vt 0.144000 0.943159
vt 0.172794 0.943159
vn -0.7278 0.4242 -0.5389
vn -0.3610 0.4242 -0.8305
vn 0.7103 0.6961 -0.1042
vn -0.2616 0.6961 0.6686
vn 0.0000 0.0000 1.0000
vn -0.1489 0.4575 0.8767
vn 0.8876 0.4575 0.0526
vn 0.1178 0.7467 -0.6547
vn -0.6644 0.7467 -0.0329
usemtl Color.001
s 1
f 127/127/64 128/128/64 129/129/64 130/130/64
f 131/131/65 127/127/65 130/130/65 132/132/65
f 133/133/66 134/134/66 135/135/66 136/136/66
f 134/134/67 137/137/67 138/138/67 135/135/67
f 137/137/68 139/139/68 140/140/68 141/141/68
f 138/138/68 137/137/68 141/141/68 142/142/68
f 143/143/69 139/139/69 137/137/69 134/134/69
f 144/144/70 143/143/70 134/134/70 133/133/70
f 136/136/71 135/135/71 127/127/71 131/131/71
f 135/135/72 138/138/72 128/128/72 127/127/72
o Plane.011
v 0.867499 0.533698 0.730345
v 0.829166 0.706762 0.446928
v 0.469310 -0.011666 0.440393
v 0.514975 -0.184730 0.778025
v 0.905831 0.706762 1.013762
v 0.560639 -0.011666 1.115654
v 1.778639 0.857782 0.765362
v 1.757620 0.684719 0.609955
v 1.465720 0.870471 0.649435
v 1.496720 1.043535 0.878637
v 1.736602 0.857782 0.454548
v 1.434720 1.043535 0.420233
v 2.038483 0.421750 0.488865
v 2.038483 0.421750 0.488865
v 1.736602 0.857782 0.454548
v 1.434720 1.043535 0.420233
v 2.049520 0.248686 0.570475
v 2.060558 0.421750 0.652086
vt 0.152000 0.922159
vt 0.220075 0.922159
vt 0.220075 0.956197
vt 0.152000 0.956197
vt 0.083925 0.922159
vt 0.083925 0.956197
vt 0.083925 0.854084
vt 0.152000 0.854084
vt 0.152000 0.888122
vt 0.083925 0.888122
vt 0.220075 0.854084
vt 0.220075 0.888122
vt 0.220075 0.820046
vt 0.220075 0.820046
vt 0.220075 0.854084
vt 0.220075 0.888122
vt 0.152000 0.820046
vt 0.083925 0.820046
vn -0.8354 0.4242 0.3494
vn -0.8982 0.4242 -0.1149
vn 0.2741 0.6961 -0.6635
vn 0.4405 0.6961 0.5669
vn 0.0000 0.0000 1.0000
vn 0.6769 0.4575 0.5766
vn 0.4995 0.4575 -0.7357
vn -0.5022 0.7467 -0.4362
vn -0.3683 0.7467 0.5540
usemtl Color.001
s 1
f 145/145/73 146/146/73 147/147/73 148/148/73
f 149/149/74 145/145/74 148/148/74 150/150/74
f 151/151/75 152/152/75 153/153/75 154/154/75
f 152/152/76 155/155/76 156/156/76 153/153/76
f 155/155/77 157/157/77 158/158/77 159/159/77
f 156/156/77 155/155/77 159/159/77 160/160/77
f 161/161/78 157/157/78 155/155/78 152/152/78
f 162/162/79 161/161/79 152/152/79 151/151/79
f 154/154/80 153/153/80 145/145/80 149/149/80
f 153/153/81 156/156/81 146/146/81 145/145/81
o Plane.016
v -0.066126 0.533698 0.422085
v -0.106692 0.706762 0.705191
v 0.237685 -0.011666 0.809803
v 0.286011 -0.184730 0.472544
v -0.025559 0.706762 0.138981
v 0.334337 -0.011666 0.135284
v -0.933027 0.857782 0.139442
v -0.955271 0.684719 0.294680
v -0.663691 0.870471 0.336460
v -0.630884 1.043535 0.107510
v -0.977514 0.857782 0.449915
v -0.696497 1.043535 0.565411
v -1.258532 0.421750 0.334421
v -1.258532 0.421750 0.334421
v -0.977514 0.857782 0.449915
v -0.696497 1.043535 0.565411
v -1.246849 0.248686 0.252899
v -1.235168 0.421750 0.171377
vt 0.128000 0.925650
vt 0.164383 0.925650
vt 0.164383 0.943842
vt 0.128000 0.943842
vt 0.091617 0.925650
vt 0.091617 0.943842
vt 0.091617 0.889267
vt 0.128000 0.889267
vt 0.128000 0.907459
vt 0.091617 0.907459
vt 0.164383 0.889267
vt 0.164383 0.907459
vt 0.164383 0.871075
vt 0.164383 0.871075
vt 0.164383 0.889267
vt 0.164383 0.907459
vt 0.128000 0.871075
vt 0.091617 0.871075
vn 0.8991 0.4242 -0.1078
vn 0.8327 0.4242 0.3560
vn -0.4449 0.6961 0.5634
vn -0.2688 0.6961 -0.6657
vn 0.0000 0.0000 1.0000
vn -0.4936 0.4575 -0.7396
vn -0.6815 0.4575 0.5712
vn 0.3639 0.7467 0.5569
vn 0.5056 0.7467 -0.4323
usemtl Color.001
s 1
f 163/163/82 164/164/82 165/165/82 166/166/82
f 167/167/83 163/163/83 166/166/83 168/168/83
f 169/169/84 170/170/84 171/171/84 172/172/84
f 170/170/85 173/173/85 174/174/85 171/171/85
f 173/173/86 175/175/86 176/176/86 177/177/86
f 174/174/86 173/173/86 177/177/86 178/178/86
f 179/179/87 175/175/87 173/173/87 170/170/87
f 180/180/88 179/179/88 170/170/88 169/169/88
f 172/172/89 171/171/89 163/163/89 167/167/89
f 171/171/90 174/174/90 164/164/90 163/163/90
o Plane.015
v 0.186749 0.533698 0.213957
v -0.077231 0.706762 0.323997
v 0.009145 -0.011666 0.673395
v 0.323621 -0.184730 0.542305
v 0.450728 0.706762 0.103916
v 0.638097 -0.011666 0.411215
v -0.014104 0.857783 -0.675459
v -0.158853 0.684720 -0.615120
v -0.045519 0.870472 -0.343239
v 0.167966 1.043536 -0.432230
v -0.303602 0.857783 -0.554781
v -0.259003 1.043536 -0.254248
v -0.348202 0.421751 -0.855316
v -0.348202 0.421751 -0.855316
v -0.303602 0.857783 -0.554781
v -0.259003 1.043536 -0.254248
v -0.272186 0.248687 -0.887003
v -0.196173 0.421751 -0.918690
vt 0.170000 0.898151
vt 0.206634 0.898151
vt 0.206634 0.916468
vt 0.170000 0.916468
vt 0.133366 0.898151
vt 0.133366 0.916468
vt 0.133366 0.861517
vt 0.170000 0.861517
vt 0.170000 0.879834
vt 0.133366 0.879834
vt 0.206634 0.861517
vt 0.206634 0.879834
vt 0.206634 0.843200
vt 0.206634 0.843200
vt 0.206634 0.861517
vt 0.206634 0.879834
vt 0.170000 0.843200
vt 0.133366 0.843200
vn 0.5528 0.4242 0.7172
vn 0.1203 0.4242 0.8975
vn -0.7117 0.6961 -0.0939
vn 0.4343 0.6961 -0.5716
vn 0.0000 0.0000 1.0000
vn 0.3827 0.4575 -0.8026
vn -0.8395 0.4575 -0.2931
vn -0.2922 0.7467 0.5976
vn 0.6301 0.7467 0.2131
usemtl Color.001
s 1
f 181/181/91 182/182/91 183/183/91 184/184/91
f 185/185/92 181/181/92 184/184/92 186/186/92
f 187/187/93 188/188/93 189/189/93 190/190/93
f 188/188/94 191/191/94 192/192/94 189/189/94
f 191/191/95 193/193/95 194/194/95 195/195/95
f 192/192/95 191/191/95 195/195/95 196/196/95
f 197/197/96 193/193/96 191/191/96 188/188/96
f 198/198/97 197/197/97 188/188/97 187/187/97
f 190/190/98 189/189/98 181/181/98 185/185/98
f 189/189/99 192/192/99 182/182/99 181/181/99
o Plane.014
v -0.133155 0.460492 0.254488
v -0.316477 0.633555 0.474003
v -0.078502 -0.084873 0.744017
v 0.139888 -0.257937 0.482509
v 0.050167 0.633556 0.034971
v 0.358276 -0.084872 0.221002
v -0.722063 0.784576 -0.441637
v -0.822586 0.611513 -0.321270
v -0.596498 0.797265 -0.132460
v -0.448244 0.970329 -0.309984
v -0.923107 0.784576 -0.200901
v -0.744753 0.970329 0.045065
v -1.101461 0.348544 -0.446867
v -1.101461 0.348544 -0.446867
v -0.923107 0.784576 -0.200901
v -0.744753 0.970329 0.045065
v -1.048672 0.175480 -0.510078
v -0.995884 0.348544 -0.573290
vt 0.178000 0.848590
vt 0.203909 0.848590
vt 0.203909 0.861545
vt 0.178000 0.861545
vt 0.152091 0.848590
vt 0.152091 0.861545
vt 0.152091 0.822681
vt 0.178000 0.822681
vt 0.178000 0.835635
vt 0.152091 0.835635
vt 0.203909 0.822681
vt 0.203909 0.835635
vt 0.203909 0.809726
vt 0.203909 0.809726
vt 0.203909 0.822681
vt 0.203909 0.835635
vt 0.178000 0.809726
vt 0.152091 0.809726
vn 0.8216 0.4242 0.3809
vn 0.5212 0.4242 0.7405
vn -0.6747 0.6961 0.2454
vn 0.1212 0.6961 -0.7076
vn 0.0000 0.0000 1.0000
vn -0.0312 0.4575 -0.8887
vn -0.8800 0.4575 0.1277
vn 0.0168 0.7467 0.6650
vn 0.6573 0.7467 -0.1020
usemtl Color.001
s 1
f 199/199/100 200/200/100 201/201/100 202/202/100
f 203/203/101 199/199/101 202/202/101 204/204/101
f 205/205/102 206/206/102 207/207/102 208/208/102
f 206/206/103 209/209/103 210/210/103 207/207/103
f 209/209/104 211/211/104 212/212/104 213/213/104
f 210/210/104 209/209/104 213/213/104 214/214/104
f 215/215/105 211/211/105 209/209/105 206/206/105
f 216/216/106 215/215/106 206/206/106 205/205/106
f 208/208/107 207/207/107 199/199/107 203/203/107
f 207/207/108 210/210/108 200/200/108 199/199/108
o Cylinder.004
v 0.514917 -0.136745 0.361061
v 0.514917 0.695020 0.361061
v 0.692310 0.695020 0.434540
v 0.692310 -0.136745 0.434540
v 0.765789 0.695020 0.611933
v 0.765789 -0.136745 0.611933
v 0.692310 0.695020 0.789326
v 0.692310 -0.136745 0.789326
v 0.514917 0.695020 0.862804
v 0.514917 -0.136745 0.862804
v 0.337524 0.695020 0.789326
v 0.337524 -0.136745 0.789326
v 0.264046 0.695020 0.611933
v 0.264046 -0.136745 0.611933
v 0.337524 0.695020 0.434540
v 0.413216 1.014100 0.510231
v 0.514917 1.014100 0.468105
v 0.337524 -0.136745 0.434540
v 0.371091 1.014100 0.611933
v 0.458259 1.423866 0.749895
v 0.474855 1.423866 0.709831
v 0.616619 1.014100 0.510231
v 0.658744 1.014100 0.611933
v 0.616619 1.014100 0.713634
v 0.413216 1.014100 0.713634
v 0.514917 1.014100 0.755760
v 0.474855 1.423866 0.789957
v 0.496896 1.615895 0.928080
v 0.489429 1.615895 0.910059
v 0.514917 1.423866 0.806555
v 0.571578 1.423866 0.749893
v 0.554979 1.423866 0.789957
v 0.514917 1.423866 0.693234
v 0.554979 1.423866 0.709833
v 0.532939 1.615895 0.892037
v 0.514917 1.615895 0.884569
v 0.496896 1.615895 0.892037
v 0.514918 1.615895 0.935549
v 0.532939 1.615895 0.928082
v 0.540405 1.615895 0.910059
vt 0.506261 0.124663
vt 0.506261 0.174924
vt 0.493696 0.174924
vt 0.493696 0.124663
vt 0.481131 0.174924
vt 0.481131 0.124663
vt 0.468565 0.174924
vt 0.468565 0.124663
vt 0.456000 0.174924
vt 0.456000 0.124663
vt 0.443435 0.174924
vt 0.443435 0.124663
vt 0.430869 0.174924
vt 0.430869 0.124663
vt 0.405739 0.174924
vt 0.418304 0.174924
vt 0.418304 0.174924
vt 0.405739 0.174924
vt 0.418304 0.124663
vt 0.405739 0.124663
vt 0.430869 0.174924
vt 0.430869 0.174924
vt 0.418304 0.174924
vt 0.506261 0.174924
vt 0.493696 0.174924
vt 0.481131 0.174924
vt 0.468565 0.174924
vt 0.443435 0.174924
vt 0.456000 0.174924
vt 0.443435 0.174924
vt 0.443435 0.174924
vt 0.430869 0.174924
vt 0.456000 0.174924
vt 0.481131 0.174924
vt 0.468565 0.174924
vt 0.506261 0.174924
vt 0.493696 0.174924
vt 0.405739 0.174924
vt 0.447929 0.116592
vt 0.430869 0.123658
vt 0.413810 0.116592
vt 0.406744 0.099533
vt 0.413810 0.082474
vt 0.430869 0.075407
vt 0.447929 0.082474
vt 0.454995 0.099533
vt 0.468565 0.174924
vt 0.456000 0.174924
vt 0.493696 0.174924
vt 0.481131 0.174924
vt 0.418304 0.174924
vt 0.506261 0.174924
vt 0.405739 0.174924
vn 0.3827 0.0000 -0.9239
vn 0.9239 0.0000 -0.3827
vn 0.9239 -0.0000 0.3827
vn 0.3827 -0.0000 0.9239
vn -0.3827 -0.0000 0.9239
vn -0.9239 -0.0000 0.3827
vn -0.3655 0.2960 -0.8825
vn -0.9239 0.0000 -0.3827
vn -0.3827 0.0000 -0.9239
vn -0.8789 0.3084 -0.3640
vn -0.8825 0.2962 -0.3652
vn -0.8785 0.3094 -0.3639
vn 0.3655 0.2960 -0.8825
vn 0.8825 0.2960 0.3655
vn -0.8825 0.2960 0.3655
vn 0.3655 0.2960 0.8825
vn -0.8825 0.2960 -0.3655
vn 0.8825 0.2960 -0.3655
vn 0.8789 0.3084 -0.3639
vn 0.8827 0.2963 -0.3649
vn -0.3655 0.2960 0.8825
vn -0.9109 -0.1669 0.3774
vn -0.3802 -0.1138 0.9179
vn 0.9218 0.0675 0.3818
vn 0.3413 0.4526 -0.8238
vn -0.3413 0.4526 -0.8238
vn -0.9218 0.0675 0.3818
vn 0.3802 -0.1138 0.9179
vn 0.8785 0.3094 -0.3639
vn 0.0000 1.0000 -0.0000
vn 0.3252 -0.5273 0.7850
vn 0.8363 0.4248 -0.3465
vn -0.8364 0.4248 -0.3465
vn -0.3252 -0.5273 0.7850
vn 0.9109 -0.1669 0.3774
vn 0.2816 0.6773 -0.6797
vn -0.2816 0.6773 -0.6797
usemtl Color.001
s 1
f 217/217/109 218/218/109 219/219/109 220/220/109
f 220/220/110 219/219/110 221/221/110 222/222/110
f 222/222/111 221/221/111 223/223/111 224/224/111
f 224/224/112 223/223/112 225/225/112 226/226/112
f 226/226/113 225/225/113 227/227/113 228/228/113
f 228/228/114 227/227/114 229/229/114 230/230/114
f 218/231/115 231/232/115 232/233/115 233/234/115
f 230/230/116 229/229/116 231/232/116 234/235/116
f 234/235/117 231/232/117 218/231/117 217/236/117
f 232/233/118 235/237/119 236/238/120 237/239/120
f 219/219/121 218/218/121 233/240/121 238/241/121
f 223/223/122 221/221/122 239/242/122 240/243/122
f 229/229/123 227/227/123 241/244/123 235/237/123
f 225/225/124 223/223/124 240/243/124 242/245/124
f 231/232/125 229/229/125 235/237/119 232/233/118
f 221/221/126 219/219/126 238/241/127 239/242/128
f 227/227/129 225/225/129 242/245/129 241/244/129
f 236/238/130 243/246/130 244/247/130 245/248/130
f 241/244/131 242/245/131 246/249/131 243/246/131
f 240/243/132 239/242/132 247/250/132 248/251/132
f 238/241/133 233/240/133 249/252/133 250/253/133
f 233/234/134 232/233/134 237/239/134 249/254/134
f 235/237/135 241/244/135 243/246/135 236/238/135
f 242/245/136 240/243/136 248/251/136 246/249/136
f 239/242/128 238/241/127 250/253/137 247/250/137
f 251/255/138 252/256/138 253/257/138 245/258/138 244/259/138 254/260/138 255/261/138 256/262/138
f 246/249/139 248/251/139 255/263/139 254/264/139
f 247/250/140 250/253/140 251/265/140 256/266/140
f 237/239/141 236/238/141 245/248/141 253/267/141
f 243/246/142 246/249/142 254/264/142 244/247/142
f 248/251/143 247/250/143 256/266/143 255/263/143
f 250/253/144 249/252/144 252/268/144 251/265/144
f 249/254/145 237/239/145 253/267/145 252/269/145
