# Blender v2.80 (sub 35) OBJ File: ''
# www.blender.org
mtllib rock_1.mtl
o Cube.015_Cube.023
v -1.393433 -0.022873 0.704336
v -0.548319 1.615744 0.639799
v -0.262751 1.705249 -0.582666
v -0.925474 0.049591 -1.698143
v -0.246046 -0.064367 -1.719873
v 0.415121 1.593195 -0.877027
v 1.048729 1.546224 -0.530382
v 1.206877 -0.045311 -0.216786
v 0.935389 -0.020226 0.761621
v 1.046146 1.143876 0.723686
v 0.993275 0.617220 1.888992
v 1.085108 -0.032005 1.573036
v 0.218023 -0.040744 1.775547
v 0.274210 0.333650 2.216850
v -0.326607 0.766115 1.970432
v -0.647804 -0.018294 1.743759
v 0.193758 1.805809 0.532637
vt 0.115095 0.370651
vt 0.147000 0.370651
vt 0.147000 0.386604
vt 0.115095 0.386604
vt 0.115095 0.402556
vt 0.147000 0.402556
vt 0.147000 0.418508
vt 0.115095 0.418508
vt 0.115095 0.434461
vt 0.147000 0.434461
vt 0.147000 0.450413
vt 0.115095 0.450413
vt 0.115095 0.466366
vt 0.147000 0.466366
vt 0.147000 0.482318
vt 0.115095 0.482318
vt 0.162952 0.434461
vt 0.178905 0.434461
vt 0.178905 0.450413
vt 0.162952 0.450413
vt 0.162952 0.418508
vt 0.178905 0.418508
vt 0.115095 0.354699
vt 0.147000 0.354699
vn -0.8767 0.4530 -0.1620
vn 0.6634 0.0191 -0.7480
vn 0.9988 -0.0028 -0.0497
vn -0.2901 -0.4052 0.8669
vn 0.0807 0.7936 0.6031
vn 0.2400 0.7958 0.5559
vn 0.3543 -0.5481 0.7576
vn -0.1055 0.5369 -0.8370
vn 0.3992 0.9115 0.0985
vn -0.0718 0.9956 -0.0604
vn 0.9913 0.0333 0.1273
vn -0.8118 0.3600 0.4597
usemtl Color.002
s 1
f 1/1/1 2/2/1 3/3/1 4/4/1
f 5/5/2 6/6/2 7/7/2 8/8/2
f 9/9/3 10/10/3 11/11/3 12/12/3
f 13/13/4 14/14/4 15/15/4 16/16/4
f 17/17/5 2/18/5 15/19/5 14/20/5
f 10/10/6 17/17/6 14/20/6 11/11/6
f 12/12/7 11/11/7 14/14/7 13/13/7
f 4/4/8 3/3/8 6/6/8 5/5/8
f 7/7/9 6/21/9 17/17/9 10/10/9
f 6/21/10 3/22/10 2/18/10 17/17/10
f 8/8/11 7/7/11 10/10/11 9/9/11
f 16/23/12 15/24/12 2/2/12 1/1/12
