# Blender v2.80 (sub 35) OBJ File: ''
# www.blender.org
mtllib rock_column_1.mtl
o Cube.507_Cube.513
v -1.548313 -0.274028 1.210556
v -1.548313 0.000003 1.244419
v -1.997478 0.000003 1.239193
v -1.996376 -0.262293 1.206690
v -1.548313 0.274034 1.210556
v -1.996376 0.262299 1.206690
v -2.104229 0.205526 1.187981
v -2.115414 0.000003 1.202822
v -2.104229 -0.205520 1.187981
v -2.142830 0.000003 1.059309
v -2.142830 0.000004 -2.010691
v -2.118332 -0.262292 -2.008509
v -2.118332 -0.262293 1.057846
v -2.118332 0.262300 -2.008509
v -2.104229 0.205527 -2.173311
v -2.115414 0.000004 -2.195435
v -2.104229 -0.205519 -2.173311
v 0.272741 -0.274027 -2.206964
v 0.272741 0.000004 -2.257442
v 0.733244 0.000004 -2.249653
v 0.731955 -0.262292 -2.201200
v 0.272741 0.274035 -2.206964
v 0.731955 0.262300 -2.201200
v 0.848822 0.205527 -2.173313
v 0.861902 0.000004 -2.195435
v 0.848822 -0.205519 -2.173313
v 0.893957 0.000003 1.059309
v 0.865311 0.262299 1.057844
v 0.848824 0.205526 1.187981
v 0.861902 0.000003 1.202822
v 0.865311 -0.262293 1.057844
v 0.848824 -0.205520 1.187981
v 0.733889 -0.377424 1.060039
v 0.733889 -0.377423 -2.011782
v 0.865311 -0.262292 -2.008509
v 0.272741 -0.393915 -2.012871
v -2.118332 0.262299 1.057846
v 0.272741 0.393923 1.060772
v 0.272741 0.274034 1.210556
v 0.731955 0.262299 1.206688
v 0.733889 0.377430 1.060040
v 0.272741 -0.274028 1.210556
v 0.272741 -0.393916 1.060772
v 0.731955 -0.262293 1.206690
v 0.865311 0.262300 -2.008509
v 0.893957 0.000004 -2.010691
v 0.733889 0.377431 -2.011782
v 0.272741 0.393924 -2.012871
v -1.548313 0.274035 -2.206964
v -1.548313 0.393924 -2.012871
v -0.639946 0.393924 -2.012871
v -0.639946 0.274035 -2.206964
v -0.639946 0.393923 1.060772
v -1.548313 -0.393916 1.060772
v -0.639946 -0.393916 1.060772
v -0.639946 -0.274028 1.210556
v -1.548313 0.393923 1.060772
v -0.639946 0.274034 1.210556
v -1.548313 -0.393915 -2.012871
v -1.548313 -0.274027 -2.206964
v -0.639946 -0.274027 -2.206964
v -0.639946 -0.393915 -2.012871
v -1.548313 0.000004 -2.257442
v -0.639946 0.000004 -2.257442
v 0.733244 0.000003 1.239193
v 0.272741 0.000003 1.244419
v -1.997478 0.000004 -2.249653
v -1.996376 -0.262292 -2.201200
v -1.996376 0.262300 -2.201200
v -1.998032 -0.377423 -2.011780
v -1.998028 0.377430 1.060040
v -1.998028 -0.377424 1.060039
v -1.998032 0.377431 -2.011780
v -0.639946 0.000003 1.244419
vt 0.466961 0.389086
vt 0.479841 0.389086
vt 0.479841 0.392913
vt 0.466961 0.392913
vt 0.492722 0.389086
vt 0.492722 0.392913
vt 0.492722 0.394232
vt 0.479841 0.394232
vt 0.466961 0.394232
vt 0.479841 0.395576
vt 0.479841 0.418066
vt 0.466899 0.418042
vt 0.466961 0.395576
vt 0.492783 0.418042
vt 0.493213 0.419459
vt 0.479841 0.419697
vt 0.466470 0.419459
vt 0.470763 0.440365
vt 0.479841 0.440365
vt 0.479841 0.444323
vt 0.470405 0.444334
vt 0.488919 0.440365
vt 0.489277 0.444334
vt 0.493213 0.446202
vt 0.479841 0.445923
vt 0.466470 0.446202
vt 0.479841 0.470090
vt 0.492722 0.470090
vt 0.492722 0.471471
vt 0.479841 0.471471
vt 0.466961 0.470090
vt 0.466961 0.471471
vt 0.442581 0.444290
vt 0.465501 0.444300
vt 0.465053 0.445772
vt 0.442581 0.445711
vt 0.465590 0.440365
vt 0.492722 0.395576
vt 0.517101 0.440365
vt 0.518483 0.440365
vt 0.518483 0.444290
vt 0.517101 0.444290
vt 0.518482 0.445711
vt 0.517101 0.445711
vt 0.441200 0.440365
vt 0.442581 0.440365
vt 0.441200 0.444290
vt 0.441200 0.445711
vt 0.492783 0.447618
vt 0.479841 0.447590
vt 0.466899 0.447618
vt 0.494182 0.444300
vt 0.494093 0.440365
vt 0.494629 0.445772
vt 0.488919 0.425053
vt 0.494093 0.425053
vt 0.494093 0.432691
vt 0.488919 0.432691
vt 0.517101 0.432691
vt 0.441200 0.425053
vt 0.442581 0.425053
vt 0.442581 0.432691
vt 0.441200 0.432691
vt 0.517101 0.425053
vt 0.518483 0.425053
vt 0.518482 0.432691
vt 0.465590 0.425053
vt 0.470763 0.425053
vt 0.470763 0.432691
vt 0.465590 0.432691
vt 0.479841 0.425053
vt 0.479841 0.432691
vt 0.466961 0.368428
vt 0.479841 0.368428
vt 0.479841 0.369849
vt 0.466961 0.369849
vt 0.492722 0.368428
vt 0.492722 0.369849
vt 0.492722 0.373774
vt 0.479841 0.373774
vt 0.466961 0.373774
vt 0.479841 0.421194
vt 0.470405 0.421186
vt 0.489277 0.421186
vt 0.465053 0.419888
vt 0.465501 0.421221
vt 0.517101 0.419950
vt 0.518482 0.419950
vt 0.518483 0.421232
vt 0.517101 0.421232
vt 0.441200 0.419950
vt 0.442581 0.419950
vt 0.442581 0.421232
vt 0.441200 0.421232
vt 0.494182 0.421221
vt 0.494629 0.419888
vt 0.479841 0.381448
vt 0.466961 0.381448
vt 0.492722 0.381448
vn -0.0058 -0.1227 0.9924
vn -0.0117 -0.1228 0.9924
vn -0.0058 0.1227 0.9924
vn -0.0117 0.1228 0.9924
vn -0.2603 0.1040 0.9599
vn -0.2603 -0.1040 0.9599
vn -0.9957 -0.0930 -0.0000
vn -0.9880 0.0822 -0.1307
vn -0.9880 -0.0822 -0.1307
vn 0.0168 -0.1814 -0.9833
vn 0.0168 0.1814 -0.9833
vn 0.3446 0.1504 -0.9266
vn 0.3446 -0.1504 -0.9266
vn 0.9768 0.0938 0.1927
vn 0.9768 -0.0938 0.1927
vn 0.6589 -0.7522 -0.0000
vn 0.0300 -0.8522 -0.5224
vn 0.5574 -0.7352 -0.3858
vn -0.9957 0.0930 0.0000
vn 0.0271 0.7832 0.6211
vn 0.5281 0.7052 0.4731
vn 0.0271 -0.7832 0.6211
vn 0.5281 -0.7052 0.4731
vn -0.9828 -0.0807 0.1659
vn -0.9828 0.0807 0.1659
vn 0.9941 0.1086 0.0000
vn 0.9837 -0.0956 -0.1521
vn 0.9837 0.0956 -0.1521
vn 0.9941 -0.1086 -0.0000
vn 0.0357 0.9994 0.0000
vn 0.0300 0.8522 -0.5224
vn 0.6589 0.7522 0.0000
vn 0.5574 0.7352 -0.3858
vn 0.0000 0.8508 -0.5255
vn 0.0000 1.0000 0.0000
vn 0.0000 -0.7807 0.6249
vn 0.0000 0.7807 0.6249
vn 0.0000 -0.8508 -0.5255
vn 0.0000 -0.1812 -0.9835
vn 0.0000 0.1812 -0.9835
vn 0.2407 -0.1050 0.9649
vn 0.2407 0.1050 0.9649
vn 0.0114 0.1228 0.9924
vn 0.0056 0.1227 0.9924
vn 0.0057 0.1227 0.9924
vn 0.0114 -0.1228 0.9924
vn 0.0057 -0.1227 0.9924
vn 0.0056 -0.1227 0.9924
vn -0.3707 -0.1481 -0.9169
vn -0.3707 0.1481 -0.9169
vn -0.0172 0.1814 -0.9833
vn -0.0172 -0.1814 -0.9833
vn -0.5902 -0.7156 -0.3735
vn -0.0308 -0.8522 -0.5223
vn -0.5609 0.6886 0.4596
vn -0.0278 0.7832 0.6211
vn -0.5609 -0.6886 0.4596
vn -0.6914 0.7225 0.0000
vn -0.0278 -0.7832 0.6211
vn -0.5902 0.7156 -0.3735
vn -0.0366 0.9993 0.0000
vn -0.6914 -0.7225 0.0000
vn -0.0308 0.8522 -0.5224
vn 0.0000 -0.1226 0.9925
vn 0.0000 0.1226 0.9925
usemtl Color.006
s 1
f 1/1/1 2/2/1 3/3/2 4/4/2
f 2/2/3 5/5/3 6/6/4 3/3/4
f 3/3/5 6/6/5 7/7/5 8/8/5
f 4/4/6 3/3/6 8/8/6 9/9/6
f 10/10/7 11/11/7 12/12/7 13/13/7
f 11/11/8 14/14/8 15/15/8 16/16/8
f 12/12/9 11/11/9 16/16/9 17/17/9
f 18/18/10 19/19/10 20/20/10 21/21/10
f 19/19/11 22/22/11 23/23/11 20/20/11
f 20/20/12 23/23/12 24/24/12 25/25/12
f 21/21/13 20/20/13 25/25/13 26/26/13
f 27/27/14 28/28/14 29/29/14 30/30/14
f 31/31/15 27/27/15 30/30/15 32/32/15
f 33/33/16 34/34/16 35/35/16 31/36/16
f 36/37/17 18/18/17 21/21/17 34/34/17
f 34/34/18 21/21/18 26/26/18 35/35/18
f 37/38/19 14/14/19 11/11/19 10/10/19
f 38/39/20 39/40/20 40/41/20 41/42/20
f 41/42/21 40/41/21 29/43/21 28/44/21
f 42/45/22 43/46/22 33/33/22 44/47/22
f 44/47/23 33/33/23 31/36/23 32/48/23
f 9/9/24 8/8/24 10/10/24 13/13/24
f 8/8/25 7/7/25 37/38/25 10/10/25
f 45/49/26 28/28/26 27/27/26 46/50/26
f 26/26/27 25/25/27 46/50/27 35/51/27
f 25/25/28 24/24/28 45/49/28 46/50/28
f 46/50/29 27/27/29 31/31/29 35/51/29
f 41/42/30 47/52/30 48/53/30 38/39/30
f 22/22/31 48/53/31 47/52/31 23/23/31
f 41/42/32 28/44/32 45/54/32 47/52/32
f 23/23/33 47/52/33 45/54/33 24/24/33
f 49/55/34 50/56/34 51/57/34 52/58/34
f 51/57/35 53/59/35 38/39/35 48/53/35
f 52/58/34 51/57/34 48/53/34 22/22/34
f 1/60/36 54/61/36 55/62/36 56/63/36
f 53/59/35 51/57/35 50/56/35 57/64/35
f 56/63/36 55/62/36 43/46/36 42/45/36
f 57/64/37 5/65/37 58/66/37 53/59/37
f 53/59/37 58/66/37 39/40/37 38/39/37
f 59/67/38 60/68/38 61/69/38 62/70/38
f 62/70/38 61/69/38 18/18/38 36/37/38
f 60/68/39 63/71/39 64/72/39 61/69/39
f 63/71/40 49/55/40 52/58/40 64/72/40
f 64/72/40 52/58/40 22/22/40 19/19/40
f 61/69/39 64/72/39 19/19/39 18/18/39
f 32/73/41 30/74/41 65/75/41 44/76/41
f 30/74/42 29/77/42 40/78/42 65/75/42
f 65/75/43 40/78/43 39/79/44 66/80/45
f 44/76/46 65/75/46 66/80/47 42/81/48
f 17/17/49 16/16/49 67/82/49 68/83/49
f 16/16/50 15/15/50 69/84/50 67/82/50
f 67/82/51 69/84/51 49/55/51 63/71/51
f 68/83/52 67/82/52 63/71/52 60/68/52
f 12/85/53 17/17/53 68/83/53 70/86/53
f 70/86/54 68/83/54 60/68/54 59/67/54
f 37/87/55 7/88/55 6/89/55 71/90/55
f 71/90/56 6/89/56 5/65/56 57/64/56
f 9/91/57 13/92/57 72/93/57 4/94/57
f 71/90/58 73/95/58 14/96/58 37/87/58
f 4/94/59 72/93/59 54/61/59 1/60/59
f 15/15/60 14/96/60 73/95/60 69/84/60
f 71/90/61 57/64/61 50/56/61 73/95/61
f 70/86/62 72/93/62 13/92/62 12/85/62
f 69/84/63 73/95/63 50/56/63 49/55/63
f 42/81/48 66/80/47 74/97/64 56/98/64
f 66/80/45 39/79/44 58/99/65 74/97/65
f 74/97/65 58/99/65 5/5/3 2/2/3
f 56/98/64 74/97/64 2/2/1 1/1/1
o Cylinder.016_Cylinder.017
v -0.656445 6.244628 -1.818268
v -0.656445 9.158603 -1.678054
v 0.141148 8.788058 -1.347682
v 0.141148 5.997599 -1.487894
v 0.471523 8.912311 -0.550086
v 0.471523 6.080434 -0.690300
v 0.141148 9.052620 0.247510
v 0.141148 6.173973 0.107296
v -0.656445 8.969382 0.577882
v -0.656445 6.118481 0.437668
v -1.454037 9.064188 0.247510
v -1.454037 6.181685 0.107294
v -1.784412 9.257958 -0.550086
v -1.784412 6.310866 -0.690300
v -1.454037 9.257958 -1.347682
v -1.454037 6.310866 -1.487894
v -1.454041 0.416680 -1.347682
v -1.454037 3.363773 -1.260638
v -0.656445 3.330654 -1.591011
v -0.656445 0.416680 -1.678056
v -1.784412 0.416680 -0.550088
v -1.784412 3.363773 -0.463043
v -1.454041 0.416680 0.247506
v -1.454037 3.299183 0.334551
v -0.656445 0.416680 0.577880
v -0.656445 3.267581 0.664924
v 0.141151 0.416680 0.247506
v 0.141148 3.295327 0.334551
v 0.471523 0.416680 -0.550088
v 0.471523 3.248557 -0.463043
v 0.141151 0.416680 -1.347682
v 0.141148 3.207140 -1.260638
vt 0.531363 0.454298
vt 0.531363 0.471471
vt 0.518482 0.471471
vt 0.518482 0.454298
vt 0.505602 0.471471
vt 0.505602 0.454298
vt 0.492722 0.471471
vt 0.492722 0.454298
vt 0.479841 0.471471
vt 0.479841 0.454298
vt 0.466961 0.471471
vt 0.466961 0.454298
vt 0.454080 0.471471
vt 0.454080 0.454298
vt 0.791587 0.402975
vt 0.774100 0.410218
vt 0.756613 0.402975
vt 0.749370 0.385488
vt 0.756613 0.368001
vt 0.774100 0.360758
vt 0.791587 0.368001
vt 0.798831 0.385488
vt 0.441200 0.471471
vt 0.441200 0.454298
vt 0.428320 0.471471
vt 0.428320 0.454298
vt 0.441200 0.419950
vt 0.441200 0.437124
vt 0.428320 0.437124
vt 0.428320 0.419950
vt 0.454080 0.419950
vt 0.454080 0.437124
vt 0.466961 0.419950
vt 0.466961 0.437124
vt 0.479841 0.419950
vt 0.479841 0.437124
vt 0.492722 0.419950
vt 0.492722 0.437124
vt 0.505602 0.419950
vt 0.505602 0.437124
vt 0.518482 0.419950
vt 0.518482 0.437124
vt 0.531363 0.419950
vt 0.531363 0.437124
vn 0.3971 0.0451 -0.9167
vn 0.9228 0.0192 -0.3847
vn 0.9227 -0.0189 0.3850
vn 0.3856 -0.0451 0.9215
vn -0.3861 -0.0451 0.9214
vn -0.9250 -0.0183 0.3795
vn 0.1503 0.9882 0.0305
vn -0.9237 0.0182 -0.3826
vn -0.3784 0.0442 -0.9246
vn -0.3821 0.0274 -0.9237
vn -0.3855 -0.0713 -0.9199
vn -0.9238 0.0113 -0.3827
vn -0.9235 -0.0295 -0.3825
vn -0.9240 -0.0114 0.3823
vn -0.9222 0.0301 0.3856
vn -0.3830 -0.0280 0.9233
vn -0.3779 0.0732 0.9229
vn 0.3829 -0.0281 0.9233
vn 0.3784 0.0732 0.9227
vn 0.9237 -0.0117 0.3829
vn 0.9244 0.0303 0.3802
vn 0.9237 0.0119 -0.3829
vn 0.9243 -0.0308 -0.3805
vn 0.3844 0.0282 -0.9227
vn 0.3669 -0.0739 -0.9273
usemtl Color.006
s 1
f 75/100/66 76/101/66 77/102/66 78/103/66
f 78/103/67 77/102/67 79/104/67 80/105/67
f 80/105/68 79/104/68 81/106/68 82/107/68
f 82/107/69 81/106/69 83/108/69 84/109/69
f 84/109/70 83/108/70 85/110/70 86/111/70
f 86/111/71 85/110/71 87/112/71 88/113/71
f 77/114/72 76/115/72 89/116/72 87/117/72 85/118/72 83/119/72 81/120/72 79/121/72
f 88/113/73 87/112/73 89/122/73 90/123/73
f 90/123/74 89/122/74 76/124/74 75/125/74
f 91/126/75 92/127/75 93/128/75 94/129/75
f 92/127/76 90/123/76 75/125/76 93/128/76
f 95/130/77 96/131/77 92/127/77 91/126/77
f 96/131/78 88/113/78 90/123/78 92/127/78
f 97/132/79 98/133/79 96/131/79 95/130/79
f 98/133/80 86/111/80 88/113/80 96/131/80
f 99/134/81 100/135/81 98/133/81 97/132/81
f 100/135/82 84/109/82 86/111/82 98/133/82
f 101/136/83 102/137/83 100/135/83 99/134/83
f 102/137/84 82/107/84 84/109/84 100/135/84
f 103/138/85 104/139/85 102/137/85 101/136/85
f 104/139/86 80/105/86 82/107/86 102/137/86
f 105/140/87 106/141/87 104/139/87 103/138/87
f 106/141/88 78/103/88 80/105/88 104/139/88
f 94/142/89 93/143/89 106/141/89 105/140/89
f 93/143/90 75/100/90 78/103/90 106/141/90
