# Blender v2.80 (sub 35) OBJ File: ''
# www.blender.org
mtllib rock_3.mtl
o Cube.016_Cube.024
v -1.055202 1.077215 0.826488
v -0.862820 2.141071 0.520005
v -1.650545 1.835276 0.377349
v -1.935606 0.942542 0.384508
v -1.608025 1.142643 -0.533409
v -1.359869 2.305328 -0.821732
v -0.948635 2.520037 -1.484208
v -0.626326 1.219035 -1.943826
v 1.039862 0.291824 -1.072576
v 0.897667 1.330977 -0.832721
v 1.894917 0.658384 0.265668
v 1.785044 0.321447 0.160572
v 1.739843 0.164427 0.877759
v 1.942163 0.348229 0.943766
v 1.356710 0.807562 1.363341
v 1.200703 0.396750 1.468192
v 0.977060 1.804850 0.163200
v 0.681997 1.799067 0.899676
v -0.454456 2.267941 -1.372032
v -0.641975 2.550990 -0.396061
v -0.058872 2.775803 0.031660
v 0.027617 2.022428 -1.292794
v -0.078516 2.440852 0.666859
v -0.161207 1.016597 -1.679967
v 0.335026 0.688246 -1.547661
v 0.460312 0.941672 1.344695
v -0.184435 1.216731 1.271832
v -0.273630 -0.022873 1.874007
v -1.247585 0.013359 1.132970
v -0.251015 0.002312 -1.898317
v 0.221699 -0.218381 -1.540256
v 0.814089 -0.293163 -0.548024
v 1.231739 -0.174521 -0.218731
v 1.013693 -0.020664 1.630664
v 0.350901 -0.014977 1.770697
v -2.221539 0.049591 0.391932
v -1.940594 -0.064366 -0.227070
v 1.651560 -0.014709 0.049840
v 1.525183 -0.026728 0.826451
vt 0.465652 0.393951
vt 0.481000 0.393951
vt 0.481000 0.401625
vt 0.465652 0.401625
vt 0.465652 0.416973
vt 0.481000 0.416973
vt 0.481000 0.432320
vt 0.465652 0.432320
vt 0.465652 0.455342
vt 0.481000 0.455342
vt 0.481000 0.463016
vt 0.465652 0.463016
vt 0.465652 0.478364
vt 0.481000 0.478364
vt 0.481000 0.493712
vt 0.465652 0.493712
vt 0.496348 0.455342
vt 0.511696 0.455342
vt 0.511696 0.463016
vt 0.496348 0.463016
vt 0.481000 0.439994
vt 0.496348 0.439994
vt 0.496348 0.447668
vt 0.481000 0.447668
vt 0.511696 0.439994
vt 0.511696 0.447668
vt 0.465652 0.439994
vt 0.465652 0.447668
vt 0.465652 0.378603
vt 0.481000 0.378603
vt 0.481000 0.386277
vt 0.465652 0.386277
vt 0.465652 0.370929
vt 0.481000 0.370929
vt 0.496348 0.432320
vt 0.511696 0.432320
vt 0.450304 0.386277
vt 0.450304 0.393951
vt 0.450304 0.432320
vt 0.450304 0.439994
vt 0.450304 0.447668
vt 0.450304 0.455342
vt 0.450304 0.370929
vt 0.450304 0.378603
vt 0.450304 0.401625
vt 0.450304 0.416973
vt 0.450304 0.463016
vt 0.450304 0.478364
vt 0.450304 0.493712
vn -0.3762 0.2355 0.8961
vn -0.8308 0.0137 -0.5564
vn 0.8114 0.1600 -0.5622
vn 0.5430 -0.2754 0.7933
vn 0.7162 0.6311 0.2979
vn 0.7803 0.6140 -0.1191
vn 0.8689 -0.4689 -0.1583
vn -0.9533 0.2172 -0.2097
vn 0.1996 0.9021 -0.3826
vn -0.4552 0.8282 0.3271
vn 0.3555 0.2769 -0.8927
vn 0.0906 0.4371 0.8948
vn 0.0389 0.3877 0.9210
vn 0.6756 0.6525 -0.3431
vn 0.5962 0.7364 0.3197
vn 0.6229 0.2710 -0.7338
vn 0.4826 0.3569 -0.7998
vn -0.4174 0.8704 0.2612
vn 0.0205 0.9992 -0.0342
vn -0.3997 0.3837 0.8325
vn -0.5174 0.3680 0.7725
vn 0.5859 0.1206 -0.8014
vn 0.2945 -0.6985 -0.6522
vn 0.1525 0.3611 0.9200
vn 0.1087 0.4134 0.9040
vn 0.6985 -0.0931 -0.7095
vn -0.9118 0.2164 -0.3489
vn 0.8295 -0.5576 0.0322
vn 0.7139 -0.3617 0.5996
vn 0.7396 -0.4275 -0.5198
vn -0.7487 -0.1081 -0.6540
vn -0.5292 0.2590 0.8080
usemtl Color.004
s 1
f 1/1/1 2/2/1 3/3/1 4/4/1
f 5/5/2 6/6/2 7/7/2 8/8/2
f 9/9/3 10/10/3 11/11/3 12/12/3
f 13/13/4 14/14/4 15/15/4 16/16/4
f 17/17/5 18/18/5 15/19/5 14/20/5
f 10/10/6 17/17/6 14/20/6 11/11/6
f 12/12/7 11/11/7 14/14/7 13/13/7
f 4/4/8 3/3/8 6/6/8 5/5/8
f 19/21/9 20/22/9 21/23/9 22/24/9
f 20/22/10 2/25/10 23/26/10 21/23/10
f 24/27/11 19/21/11 22/24/11 25/28/11
f 26/29/12 18/30/12 23/31/12 27/32/12
f 16/33/13 15/34/13 18/30/13 26/29/13
f 22/24/14 21/23/14 17/17/14 10/10/14
f 21/23/15 23/26/15 18/18/15 17/17/15
f 25/28/16 22/24/16 10/10/16 9/9/16
f 8/8/17 7/7/17 19/21/17 24/27/17
f 6/35/18 3/36/18 2/25/18 20/22/18
f 7/7/19 6/35/19 20/22/19 19/21/19
f 27/32/20 23/31/20 2/2/20 1/1/20
f 28/37/21 27/32/21 1/1/21 29/38/21
f 30/39/22 8/8/22 24/27/22 31/40/22
f 32/41/23 25/28/23 9/9/23 33/42/23
f 34/43/24 16/33/24 26/29/24 35/44/24
f 35/44/25 26/29/25 27/32/25 28/37/25
f 31/40/26 24/27/26 25/28/26 32/41/26
f 36/45/27 4/4/27 5/5/27 37/46/27
f 38/47/28 12/12/28 13/13/28 39/48/28
f 39/48/29 13/13/29 16/16/29 34/49/29
f 33/42/30 9/9/30 12/12/30 38/47/30
f 37/46/31 5/5/31 8/8/31 30/39/31
f 29/38/32 1/1/32 4/4/32 36/45/32
