# Blender v2.80 (sub 35) OBJ File: ''
# www.blender.org
mtllib tomb_3.mtl
o Cube.511_Cube.517
v -0.368145 -0.445196 -1.027192
v -0.368145 3.882497 -1.027191
v -0.368145 3.132421 -1.642620
v -0.368145 -0.445196 -1.642621
v -0.001156 3.132421 -1.642620
v -0.001156 -0.445196 -1.642621
v -0.001156 -0.445196 0.203666
v -0.001156 3.882497 0.203667
v -0.001156 3.132421 0.819095
v -0.001156 -0.445196 0.819095
v -0.368145 3.132421 0.819095
v -0.368145 -0.445196 0.819095
v -0.368145 -0.445196 0.203666
v -0.368145 3.882497 0.203667
v -0.001156 3.882497 -1.027191
v -0.368145 6.247657 -0.179378
v -0.001156 6.247657 -0.179378
v -0.116100 7.357437 -0.247913
v -0.378391 7.357437 -0.247913
v -0.001156 3.908341 -0.179379
v -0.368145 3.908341 -0.179379
v -0.001156 -0.445196 -1.027192
v -0.368145 -0.445196 -0.667680
v -0.001156 -0.445196 -0.667680
v -0.001156 -0.445196 -0.411763
v -0.368145 -0.445196 -0.411763
v -0.368145 -0.445196 -0.179379
v -0.001156 -0.445196 -0.179379
v -0.001156 3.906753 -0.667683
v -0.001156 3.924020 -0.411762
v -0.368145 3.924020 -0.411762
v -0.368145 3.906753 -0.667683
v -0.001156 6.263336 -0.411762
v -0.001156 6.246068 -0.667682
v -0.116100 7.356302 -0.596908
v -0.116100 7.368642 -0.413997
v -0.378391 7.356302 -0.596908
v -0.378391 7.368642 -0.413997
v -0.368145 6.263336 -0.411762
v -0.368145 6.246068 -0.667682
v -0.368145 5.917994 -0.667682
v -0.368145 5.935261 -0.411762
v -0.001156 5.919583 -0.179378
v -0.001156 6.247656 0.903038
v -0.001156 5.919582 0.903038
v -0.001156 5.935261 -0.411762
v -0.368145 5.919583 -0.179378
v -0.001156 5.917994 -0.667682
v -0.368145 5.919582 0.903038
v -0.368145 6.247656 0.903038
v -0.001156 5.917994 -1.619316
v -0.368145 5.917994 -1.619316
v -0.368145 6.246068 -1.619316
v -0.001156 6.246068 -1.619316
vt 0.785397 0.463526
vt 0.758889 0.463526
vt 0.758889 0.456899
vt 0.785397 0.456899
vt 0.758889 0.430391
vt 0.785397 0.430391
vt 0.785397 0.410510
vt 0.758889 0.410510
vt 0.758889 0.403883
vt 0.785397 0.403883
vt 0.758889 0.377375
vt 0.785397 0.377375
vt 0.811905 0.410510
vt 0.811905 0.403883
vt 0.732381 0.410510
vt 0.732381 0.403883
vt 0.732381 0.430391
vt 0.732381 0.423764
vt 0.758889 0.423764
vt 0.732381 0.414635
vt 0.758889 0.414635
vt 0.758889 0.414635
vt 0.732381 0.414635
vt 0.758889 0.414635
vt 0.732381 0.414635
vt 0.811905 0.430391
vt 0.785397 0.423764
vt 0.811905 0.423764
vt 0.811905 0.419893
vt 0.785397 0.419893
vt 0.785397 0.417137
vt 0.811905 0.417137
vt 0.811905 0.414635
vt 0.785397 0.414635
vt 0.758889 0.419893
vt 0.758889 0.417137
vt 0.785397 0.483407
vt 0.758889 0.483407
vt 0.758889 0.476780
vt 0.785397 0.476780
vt 0.785397 0.472655
vt 0.758889 0.472655
vt 0.758889 0.470153
vt 0.785397 0.470153
vt 0.785397 0.467397
vt 0.758889 0.467397
vt 0.732381 0.419893
vt 0.758889 0.417137
vt 0.758889 0.419893
vt 0.758889 0.419893
vt 0.758889 0.417137
vt 0.732381 0.419893
vt 0.732381 0.417137
vt 0.758889 0.470153
vt 0.758889 0.472655
vt 0.758889 0.472655
vt 0.758889 0.470153
vt 0.732381 0.419893
vt 0.758889 0.467397
vt 0.758889 0.467397
vt 0.758889 0.467397
vt 0.758889 0.470153
vt 0.758889 0.414635
vt 0.758889 0.414635
vt 0.758889 0.414635
vt 0.758889 0.417137
vt 0.758889 0.472655
vt 0.758889 0.419893
vt 0.758889 0.472655
vt 0.758889 0.472655
vt 0.732381 0.414635
vt 0.732381 0.419893
vt 0.758889 0.419893
vt 0.732381 0.419893
vt 0.732381 0.419893
vt 0.758889 0.419893
vt 0.732381 0.414635
vt 0.732381 0.414635
vt 0.758889 0.467397
vt 0.758889 0.467397
vn -1.0000 -0.0000 0.0000
vn 0.0000 0.0000 -1.0000
vn 1.0000 -0.0000 0.0000
vn 0.0000 -0.0000 1.0000
vn 0.0000 -1.0000 0.0000
vn 0.0000 0.6343 0.7731
vn 0.0000 0.6343 -0.7731
vn 0.0000 0.0616 0.9981
vn 0.0000 0.9977 0.0673
vn 0.0000 0.9977 -0.0673
vn 0.9946 0.1034 0.0000
vn 0.9946 0.1034 -0.0070
vn -1.0000 -0.0001 0.0000
vn -1.0000 -0.0073 -0.0003
vn -1.0000 -0.0093 -0.0006
vn -1.0000 -0.0093 0.0000
vn 0.9946 0.1034 0.0070
vn 0.0000 0.0636 -0.9980
vn -1.0000 -0.0072 0.0003
vn -1.0000 -0.0093 0.0006
vn 0.0000 1.0000 0.0000
usemtl Color.025
s 1
f 1/1/1 2/2/1 3/3/1 4/4/1
f 4/4/2 3/3/2 5/5/2 6/6/2
f 7/7/3 8/8/3 9/9/3 10/10/3
f 10/10/4 9/9/4 11/11/4 12/12/4
f 13/13/5 7/7/5 10/10/5 12/14/5
f 8/8/6 14/15/6 11/16/6 9/9/6
f 5/5/7 3/17/7 2/18/7 15/19/7
f 16/20/8 17/21/8 18/22/8 19/23/8
f 20/24/9 21/25/9 14/15/9 8/8/9
f 4/26/5 6/6/5 22/27/5 1/28/5
f 23/29/5 24/30/5 25/31/5 26/32/5
f 27/33/5 28/34/5 7/7/5 13/13/5
f 6/6/3 5/5/3 15/19/3 22/27/3
f 24/30/3 29/35/3 30/36/3 25/31/3
f 28/34/3 20/24/3 8/8/3 7/7/3
f 12/37/1 11/38/1 14/39/1 13/40/1
f 27/41/1 21/42/1 31/43/1 26/44/1
f 23/45/1 32/46/1 2/2/1 1/1/1
f 26/44/1 31/43/1 32/46/1 23/45/1
f 22/27/3 15/19/3 29/35/3 24/30/3
f 1/28/5 22/27/5 24/30/5 23/29/5
f 15/19/10 2/18/10 32/47/10 29/35/10
f 13/40/1 14/39/1 21/42/1 27/41/1
f 25/31/3 30/36/3 20/24/3 28/34/3
f 26/32/5 25/31/5 28/34/5 27/33/5
f 33/48/11 34/49/12 35/50/12 36/51/11
f 35/50/10 37/52/10 38/53/10 36/51/10
f 36/51/9 38/53/9 19/23/9 18/22/9
f 39/54/13 16/55/14 19/56/15 38/57/16
f 17/21/17 33/48/11 36/51/11 18/22/17
f 34/49/18 40/58/18 37/52/18 35/50/18
f 40/59/19 39/54/13 38/57/16 37/60/20
f 41/61/1 42/62/1 39/54/13 40/59/19
f 43/63/3 17/21/3 44/64/3 45/65/3
f 43/63/3 46/66/3 33/48/3 17/21/3
f 42/62/1 47/67/1 16/55/14 39/54/13
f 46/66/3 48/68/3 34/49/3 33/48/3
f 16/55/14 47/67/1 49/69/1 50/70/1
f 21/25/4 20/24/4 43/63/4 47/71/4
f 30/36/3 29/35/3 48/68/3 46/66/3
f 31/43/1 21/42/1 47/67/1 42/62/1
f 20/24/3 30/36/3 46/66/3 43/63/3
f 29/35/2 32/47/2 41/72/2 48/68/2
f 32/46/1 31/43/1 42/62/1 41/61/1
f 51/73/2 52/74/2 53/75/2 54/76/2
f 49/77/4 45/65/4 44/64/4 50/78/4
f 48/68/5 41/72/5 52/74/5 51/73/5
f 17/21/21 16/20/21 50/78/21 44/64/21
f 34/49/3 48/68/3 51/73/3 54/76/3
f 47/71/5 43/63/5 45/65/5 49/77/5
f 40/58/21 34/49/21 54/76/21 53/75/21
f 41/61/1 40/59/19 53/79/1 52/80/1
