# Blender v2.80 (sub 35) OBJ File: ''
# www.blender.org
mtllib tomb_2.mtl
o Cube.510_Cube.516
v -0.614082 -0.445196 -1.265873
v -0.614082 3.882497 -1.265873
v -0.614082 3.132421 -1.881302
v -0.614082 -0.445196 -1.881302
v -0.247093 3.132421 -1.881302
v -0.247093 -0.445196 -1.881302
v -0.247093 -0.445196 -0.035015
v -0.247093 3.882497 -0.035015
v -0.247093 3.132421 0.580414
v -0.247093 -0.445196 0.580413
v -0.614082 3.132421 0.580414
v -0.614082 -0.445196 0.580413
v -0.614082 -0.445196 -0.035015
v -0.614082 3.882497 -0.035015
v -0.247093 3.882497 -1.265873
v -0.614082 3.924020 -0.650444
v -0.247093 3.924020 -0.650444
v -0.247093 -0.445196 -1.265873
v -0.247093 -0.445196 -0.650444
v -0.614082 -0.445196 -0.650444
vt 0.785397 0.463526
vt 0.758889 0.463526
vt 0.758889 0.456899
vt 0.785397 0.456899
vt 0.758889 0.430391
vt 0.785397 0.430391
vt 0.785397 0.410510
vt 0.758889 0.410510
vt 0.758889 0.403883
vt 0.785397 0.403883
vt 0.758889 0.377375
vt 0.785397 0.377375
vt 0.811905 0.410510
vt 0.811905 0.403883
vt 0.732381 0.410510
vt 0.732381 0.403883
vt 0.732381 0.430391
vt 0.732381 0.423764
vt 0.758889 0.423764
vt 0.732381 0.417137
vt 0.758889 0.417137
vt 0.811905 0.430391
vt 0.785397 0.423764
vt 0.811905 0.423764
vt 0.785397 0.417137
vt 0.811905 0.417137
vt 0.785397 0.483407
vt 0.758889 0.483407
vt 0.758889 0.476780
vt 0.785397 0.476780
vt 0.758889 0.470153
vt 0.785397 0.470153
vn -1.0000 -0.0000 0.0000
vn 0.0000 0.0000 -1.0000
vn 1.0000 0.0000 0.0000
vn 0.0000 -0.0000 1.0000
vn 0.0000 -1.0000 -0.0000
vn 0.0000 0.6343 0.7731
vn 0.0000 0.6343 -0.7731
vn 0.0000 0.9977 -0.0673
vn 0.0000 0.9977 0.0673
usemtl Color.024
s 1
f 1/1/1 2/2/1 3/3/1 4/4/1
f 4/4/2 3/3/2 5/5/2 6/6/2
f 7/7/3 8/8/3 9/9/3 10/10/3
f 10/10/4 9/9/4 11/11/4 12/12/4
f 13/13/5 7/7/5 10/10/5 12/14/5
f 8/8/6 14/15/6 11/16/6 9/9/6
f 5/5/7 3/17/7 2/18/7 15/19/7
f 15/19/8 2/18/8 16/20/8 17/21/8
f 17/21/9 16/20/9 14/15/9 8/8/9
f 4/22/5 6/6/5 18/23/5 1/24/5
f 1/24/5 18/23/5 19/25/5 20/26/5
f 20/26/5 19/25/5 7/7/5 13/13/5
f 6/6/3 5/5/3 15/19/3 18/23/3
f 18/23/3 15/19/3 17/21/3 19/25/3
f 19/25/3 17/21/3 8/8/3 7/7/3
f 12/27/1 11/28/1 14/29/1 13/30/1
f 13/30/1 14/29/1 16/31/1 20/32/1
f 20/32/1 16/31/1 2/2/1 1/1/1
