# Blender v2.80 (sub 35) OBJ File: ''
# www.blender.org
mtllib tree_1.mtl
o Cylinder.001
v -0.078465 3.744059 0.052896
v -0.078465 11.812476 0.266429
v 0.098202 11.812476 0.313767
v 0.249678 3.744059 0.140823
v 0.227530 11.812476 0.443095
v 0.489895 3.744059 0.381038
v 0.274868 11.812476 0.619761
v 0.577820 3.744059 0.709180
v 0.227530 11.812476 0.796428
v 0.489895 3.744059 1.037323
v 0.098202 11.812476 0.925756
v 0.249678 3.744059 1.277540
v -0.078465 11.812476 0.973094
v -0.078465 3.744059 1.365465
v -0.255131 11.812476 0.925756
v -0.406607 3.744059 1.277540
v -0.384459 11.812476 0.796428
v -0.646822 3.744059 1.037323
v -0.431797 11.812476 0.619761
v -0.734749 3.744059 0.709180
v -0.384459 11.812476 0.443095
v -0.646824 3.744059 0.381038
v 0.138138 12.008140 0.744817
v 0.046591 12.008140 0.836364
v -0.255131 11.812476 0.313767
v -0.406607 3.744059 0.140823
v 0.046591 12.008140 0.403159
v -0.078465 12.008140 0.369649
v -0.203522 12.008140 0.403159
v -0.295069 12.008140 0.494706
v -0.328577 12.008140 0.619762
v -0.295067 12.008140 0.744817
v -0.203520 12.008140 0.836364
v -0.078465 12.008140 0.869874
v 0.171646 12.008140 0.619762
v 0.138138 12.008140 0.494706
v -0.446503 1.618958 -0.163928
v -0.078465 1.618958 -0.262543
v -0.715925 1.618958 0.105495
v -0.814541 1.618958 0.473533
v -0.715925 1.618958 0.841571
v -0.446503 1.618958 1.110994
v -0.078465 1.618958 1.209609
v 0.289574 1.618958 1.110994
v 0.558996 1.618958 0.841571
v 0.657612 1.618958 0.473533
v 0.558996 1.618958 0.105495
v 0.289574 1.618958 -0.163928
v -0.078465 -0.064405 -0.179524
v 0.321177 -0.064405 -0.072440
v 0.613735 -0.064405 0.220119
v 0.720819 -0.064405 0.619760
v 0.613735 -0.064405 1.019401
v 0.321177 -0.064405 1.311959
v -0.078465 -0.064405 1.419044
v -0.478106 -0.064405 1.311959
v -0.770664 -0.064405 1.019403
v -0.877748 -0.064405 0.619760
v -0.770664 -0.064405 0.220119
v -0.478107 -0.064405 -0.072440
vt 0.535932 0.634947
vt 0.535932 0.659357
vt 0.529943 0.659357
vt 0.529943 0.634947
vt 0.523954 0.659357
vt 0.523954 0.634947
vt 0.517966 0.659357
vt 0.517966 0.634947
vt 0.511977 0.659357
vt 0.511977 0.634947
vt 0.505989 0.659357
vt 0.505989 0.634947
vt 0.500000 0.659357
vt 0.500000 0.634947
vt 0.494011 0.659357
vt 0.494011 0.634947
vt 0.488023 0.659357
vt 0.488023 0.634947
vt 0.482034 0.659357
vt 0.482034 0.634947
vt 0.476046 0.659357
vt 0.476046 0.634947
vt 0.511977 0.659357
vt 0.505989 0.659357
vt 0.470057 0.659357
vt 0.470057 0.634947
vt 0.464068 0.659357
vt 0.464068 0.634947
vt 0.490658 0.620396
vt 0.482034 0.622707
vt 0.473411 0.620396
vt 0.467098 0.614083
vt 0.464787 0.605460
vt 0.467098 0.596836
vt 0.473411 0.590523
vt 0.482034 0.588212
vt 0.490658 0.590523
vt 0.496971 0.596836
vt 0.499281 0.605460
vt 0.496971 0.614083
vt 0.517966 0.659357
vt 0.470057 0.659357
vt 0.464068 0.659357
vt 0.535932 0.659357
vt 0.529943 0.659357
vt 0.523954 0.659357
vt 0.476046 0.659357
vt 0.482034 0.659357
vt 0.488023 0.659357
vt 0.494011 0.659357
vt 0.500000 0.659357
vt 0.470057 0.628518
vt 0.464068 0.628518
vt 0.476046 0.628518
vt 0.482034 0.628518
vt 0.488023 0.628518
vt 0.494011 0.628518
vt 0.500000 0.628518
vt 0.505989 0.628518
vt 0.511977 0.628518
vt 0.517966 0.628518
vt 0.523954 0.628518
vt 0.529943 0.628518
vt 0.535932 0.628518
vt 0.535932 0.623425
vt 0.529943 0.623425
vt 0.523954 0.623425
vt 0.517966 0.623425
vt 0.511977 0.623425
vt 0.505989 0.623425
vt 0.500000 0.623425
vt 0.494011 0.623425
vt 0.488023 0.623425
vt 0.482034 0.623425
vt 0.476046 0.623425
vt 0.470057 0.623425
vt 0.464068 0.623425
vn 0.2587 0.0256 -0.9656
vn 0.7068 0.0284 -0.7068
vn 0.9654 0.0334 -0.2587
vn 0.9652 0.0391 0.2586
vn 0.7064 0.0441 0.7064
vn 0.2585 0.0469 0.9649
vn -0.2585 0.0469 0.9649
vn -0.7064 0.0441 0.7064
vn -0.9652 0.0391 0.2586
vn -0.9654 0.0334 -0.2587
vn 0.6300 0.4540 0.6300
vn -0.7068 0.0284 -0.7068
vn -0.2587 0.0256 -0.9656
vn 0.0000 1.0000 -0.0000
vn 0.8606 0.4540 0.2306
vn -0.2306 0.4540 -0.8606
vn 0.2306 0.4540 -0.8606
vn 0.8606 0.4540 -0.2306
vn -0.6300 0.4540 -0.6300
vn 0.6300 0.4540 -0.6300
vn -0.8606 0.4540 -0.2306
vn -0.8606 0.4540 0.2306
vn -0.6300 0.4540 0.6300
vn -0.2306 0.4540 0.8606
vn 0.2306 0.4540 0.8606
vn -0.2562 0.1419 -0.9561
vn -0.7025 0.1139 -0.7025
vn -0.9639 0.0648 -0.2583
vn -0.9659 0.0076 0.2588
vn -0.7065 -0.0421 0.7065
vn -0.2582 -0.0707 0.9635
vn 0.2582 -0.0707 0.9635
vn 0.7065 -0.0421 0.7065
vn 0.9659 0.0076 0.2588
vn 0.9639 0.0648 -0.2583
vn 0.7025 0.1139 -0.7025
vn 0.2562 0.1419 -0.9561
vn 0.2585 -0.0476 -0.9648
vn 0.7069 -0.0251 -0.7069
vn 0.9658 0.0138 -0.2588
vn 0.9643 0.0587 0.2584
vn 0.7038 0.0972 0.7038
vn 0.2570 0.1193 0.9590
vn -0.2570 0.1193 0.9590
vn -0.7038 0.0972 0.7038
vn -0.9643 0.0587 0.2584
vn -0.9658 0.0138 -0.2588
vn -0.7069 -0.0251 -0.7069
vn -0.2585 -0.0476 -0.9648
usemtl Color.027
s 1
f 1/1/1 2/2/1 3/3/1 4/4/1
f 4/4/2 3/3/2 5/5/2 6/6/2
f 6/6/3 5/5/3 7/7/3 8/8/3
f 8/8/4 7/7/4 9/9/4 10/10/4
f 10/10/5 9/9/5 11/11/5 12/12/5
f 12/12/6 11/11/6 13/13/6 14/14/6
f 14/14/7 13/13/7 15/15/7 16/16/7
f 16/16/8 15/15/8 17/17/8 18/18/8
f 18/18/9 17/17/9 19/19/9 20/20/9
f 20/20/10 19/19/10 21/21/10 22/22/10
f 11/11/11 9/9/11 23/23/11 24/24/11
f 22/22/12 21/21/12 25/25/12 26/26/12
f 26/26/13 25/25/13 2/27/13 1/28/13
f 27/29/14 28/30/14 29/31/14 30/32/14 31/33/14 32/34/14 33/35/14 34/36/14 24/37/14 23/38/14 35/39/14 36/40/14
f 9/9/15 7/7/15 35/41/15 23/23/15
f 2/27/16 25/25/16 29/42/16 28/43/16
f 3/3/17 2/2/17 28/44/17 27/45/17
f 7/7/18 5/5/18 36/46/18 35/41/18
f 25/25/19 21/21/19 30/47/19 29/42/19
f 5/5/20 3/3/20 27/45/20 36/46/20
f 21/21/21 19/19/21 31/48/21 30/47/21
f 19/19/22 17/17/22 32/49/22 31/48/22
f 17/17/23 15/15/23 33/50/23 32/49/23
f 15/15/24 13/13/24 34/51/24 33/50/24
f 13/13/25 11/11/25 24/24/25 34/51/25
f 37/52/26 26/26/26 1/28/26 38/53/26
f 39/54/27 22/22/27 26/26/27 37/52/27
f 40/55/28 20/20/28 22/22/28 39/54/28
f 41/56/29 18/18/29 20/20/29 40/55/29
f 42/57/30 16/16/30 18/18/30 41/56/30
f 43/58/31 14/14/31 16/16/31 42/57/31
f 44/59/32 12/12/32 14/14/32 43/58/32
f 45/60/33 10/10/33 12/12/33 44/59/33
f 46/61/34 8/8/34 10/10/34 45/60/34
f 47/62/35 6/6/35 8/8/35 46/61/35
f 48/63/36 4/4/36 6/6/36 47/62/36
f 38/64/37 1/1/37 4/4/37 48/63/37
f 49/65/38 38/64/38 48/63/38 50/66/38
f 50/66/39 48/63/39 47/62/39 51/67/39
f 51/67/40 47/62/40 46/61/40 52/68/40
f 52/68/41 46/61/41 45/60/41 53/69/41
f 53/69/42 45/60/42 44/59/42 54/70/42
f 54/70/43 44/59/43 43/58/43 55/71/43
f 55/71/44 43/58/44 42/57/44 56/72/44
f 56/72/45 42/57/45 41/56/45 57/73/45
f 57/73/46 41/56/46 40/55/46 58/74/46
f 58/74/47 40/55/47 39/54/47 59/75/47
f 59/75/48 39/54/48 37/52/48 60/76/48
f 60/76/49 37/52/49 38/53/49 49/77/49
o Plane
v -0.047680 13.043037 0.619763
v 1.649817 9.696612 0.619762
v 1.649818 8.839302 -1.077734
v -0.047680 9.696612 -1.128639
v -1.745176 9.696612 0.619762
v -1.745176 8.698814 -0.797529
v -1.745176 8.825244 2.317259
v -0.047680 9.696612 2.317259
v 1.649818 8.694184 2.317259
vt 0.786000 0.872928
vt 0.820191 0.872928
vt 0.820191 0.907119
vt 0.786000 0.907119
vt 0.751809 0.872928
vt 0.751809 0.907119
vt 0.751809 0.838738
vt 0.786000 0.838738
vt 0.820191 0.838738
vn 0.6231 0.4959 -0.6049
vn -0.6398 0.4526 -0.6211
vn -0.6145 0.4947 0.6145
vn 0.6191 0.4833 0.6191
usemtl Color.027
s 1
f 61/78/50 62/79/50 63/80/50 64/81/50
f 65/82/51 61/78/51 64/81/51 66/83/51
f 67/84/52 68/85/52 61/78/52 65/82/52
f 68/85/53 69/86/53 62/79/53 61/78/53
o Plane.001
v 1.036526 8.941248 -0.345108
v 2.080391 7.598767 -0.328852
v 1.515800 7.051195 -0.958845
v 1.036526 7.598767 -1.445570
v -1.131886 8.896382 -0.345108
v -0.047680 10.283729 -0.361364
v -0.047680 7.719534 -1.478085
v -1.131886 7.509037 -1.445570
v -1.131886 8.936758 1.839560
v -0.047680 10.283729 1.839560
v -0.047680 12.421120 0.755355
v -1.131886 10.283729 0.755354
v 1.036526 8.894904 1.839560
v 2.120731 7.183484 1.839559
v 2.120731 8.146338 0.755354
v 1.036526 10.283729 0.755354
v -2.216091 7.589787 1.839559
v -2.317293 7.862010 0.755354
v -2.216091 7.509036 -0.328852
v -1.906942 7.156134 -1.413058
v -2.216091 6.872617 2.512754
v -1.131886 7.589787 2.923765
v -0.047680 8.146338 2.923765
v 1.036526 7.506078 2.923765
v 1.566492 6.865819 2.778238
vt 0.766289 0.809637
vt 0.748579 0.809637
vt 0.748579 0.791927
vt 0.766289 0.791927
vt 0.801711 0.809637
vt 0.784000 0.809637
vt 0.784000 0.791927
vt 0.801711 0.791927
vt 0.801711 0.845059
vt 0.784000 0.845059
vt 0.784000 0.827348
vt 0.801711 0.827348
vt 0.766289 0.845059
vt 0.748579 0.845059
vt 0.748579 0.827348
vt 0.766289 0.827348
vt 0.819421 0.845059
vt 0.819421 0.827348
vt 0.819421 0.809637
vt 0.819421 0.791927
vt 0.819421 0.862770
vt 0.801711 0.862770
vt 0.784000 0.862770
vt 0.766289 0.862770
vt 0.748579 0.862770
vn 0.6766 0.3770 -0.6325
vn -0.3554 0.4574 -0.8152
vn -0.6472 0.4028 0.6472
vn 0.7691 0.4333 0.4699
vn 0.6485 0.3988 0.6485
vn 0.3326 0.4655 -0.8202
vn -0.7883 0.4748 0.3913
vn -0.5748 0.5985 -0.5581
vn -0.6058 0.5158 0.6058
vn 0.4401 0.4704 0.7649
vn 0.6964 0.4431 0.5646
vn -0.4208 0.4793 0.7702
vn -0.7852 0.4661 -0.4077
vn 0.6558 0.4057 -0.6367
vn -0.6572 0.4013 -0.6380
vn 0.7742 0.4715 -0.4222
usemtl Color.027
s 1
f 70/87/54 71/88/54 72/89/54 73/90/54
f 74/91/55 75/92/55 76/93/55 77/94/55
f 78/95/56 79/96/56 80/97/56 81/98/56
f 82/99/57 83/100/57 84/101/57 85/102/57
f 79/96/58 82/99/58 85/102/58 80/97/58
f 75/92/59 70/87/59 73/90/59 76/93/59
f 86/103/60 78/95/60 81/98/60 87/104/60
f 88/105/61 74/91/61 77/94/61 89/106/61
f 90/107/62 91/108/62 78/95/62 86/103/62
f 92/109/63 93/110/63 82/99/63 79/96/63
f 93/110/64 94/111/64 83/100/64 82/99/64
f 91/108/65 92/109/65 79/96/65 78/95/65
f 87/104/66 81/98/66 74/91/66 88/105/66
f 80/97/67 85/102/67 70/87/67 75/92/67
f 81/98/68 80/97/68 75/92/68 74/91/68
f 85/102/69 84/101/69 71/88/69 70/87/69
o Plane.002
v 1.226664 7.775496 -0.538097
v 2.453590 6.514517 -0.518990
v 1.789988 6.234317 -0.724936
v 1.249609 6.299055 -1.393030
v -1.322023 7.754216 -0.538097
v -0.047680 8.412232 -0.557203
v -0.047680 6.408722 -0.981794
v -1.322021 6.386005 -1.733524
v -1.322023 7.773367 2.029697
v -0.047680 8.412232 2.029698
v -0.047680 9.425992 0.755354
v -1.322023 8.412232 0.755354
v 1.226664 7.753515 2.029697
v 2.501007 6.255596 2.029697
v 2.501007 6.503441 0.755354
v 1.226664 8.412232 0.755354
v -2.596365 6.770500 2.029697
v -2.054314 6.559306 0.755354
v -1.969770 6.435186 -0.518990
v -1.601835 5.754742 -1.793333
v -2.209970 5.649541 2.366228
v -1.322023 5.919607 3.304041
v -0.047680 6.545383 3.304041
v 1.226664 6.150843 3.304041
v 1.849569 6.206421 3.132993
vt 0.848457 0.887385
vt 0.862913 0.887385
vt 0.862913 0.901842
vt 0.848457 0.901842
vt 0.819543 0.887385
vt 0.834000 0.887385
vt 0.834000 0.901842
vt 0.819543 0.901842
vt 0.819543 0.858472
vt 0.834000 0.858472
vt 0.834000 0.872928
vt 0.819543 0.872928
vt 0.848457 0.858472
vt 0.862913 0.858472
vt 0.862913 0.872928
vt 0.848457 0.872928
vt 0.805087 0.858472
vt 0.805087 0.872928
vt 0.805087 0.887385
vt 0.805087 0.901842
vt 0.805087 0.844015
vt 0.819543 0.844015
vt 0.834000 0.844015
vt 0.848457 0.844015
vt 0.862913 0.844015
vn 0.5278 0.2897 -0.7984
vn 0.1420 0.4287 -0.8922
vn -0.4779 0.7370 0.4779
vn 0.7831 0.5859 0.2084
vn 0.4810 0.7330 0.4810
vn -0.0430 0.3445 -0.9378
vn -0.8158 0.5732 -0.0773
vn -0.8050 0.3921 -0.4452
vn -0.5374 0.3465 0.7688
vn 0.2376 0.5751 0.7828
vn 0.5264 0.6239 0.5777
vn -0.2700 0.5441 0.7944
vn -0.9070 0.3937 -0.1498
vn 0.4827 0.7399 -0.4686
vn -0.4860 0.7356 -0.4719
vn 0.7750 0.6106 -0.1631
usemtl Color.027
s 1
f 95/112/70 96/113/70 97/114/70 98/115/70
f 99/116/71 100/117/71 101/118/71 102/119/71
f 103/120/72 104/121/72 105/122/72 106/123/72
f 107/124/73 108/125/73 109/126/73 110/127/73
f 104/121/74 107/124/74 110/127/74 105/122/74
f 100/117/75 95/112/75 98/115/75 101/118/75
f 111/128/76 103/120/76 106/123/76 112/129/76
f 113/130/77 99/116/77 102/119/77 114/131/77
f 115/132/78 116/133/78 103/120/78 111/128/78
f 117/134/79 118/135/79 107/124/79 104/121/79
f 118/135/80 119/136/80 108/125/80 107/124/80
f 116/133/81 117/134/81 104/121/81 103/120/81
f 112/129/82 106/123/82 99/116/82 113/130/82
f 105/122/83 110/127/83 95/112/83 100/117/83
f 106/123/84 105/122/84 100/117/84 99/116/84
f 110/127/85 109/126/85 96/113/85 95/112/85
o Plane.003
v 1.226664 6.811934 -0.538097
v 2.453590 5.550955 -0.518990
v 1.789988 5.270755 -0.724936
v 1.249609 5.335493 -1.393030
v -1.322023 6.790654 -0.538097
v -0.047680 7.448670 -0.557203
v -0.047680 5.445160 -0.981794
v -1.322021 5.422443 -1.733524
v -1.322023 6.809805 2.029697
v -0.047680 7.448670 2.029698
v -0.047680 8.462430 0.755354
v -1.322023 7.448670 0.755354
v 1.226664 6.789953 2.029697
v 2.501007 5.292034 2.029697
v 2.501007 5.539879 0.755354
v 1.226664 7.448670 0.755354
v -2.596365 5.806938 2.029697
v -2.054314 5.595744 0.755354
v -1.969770 5.471624 -0.518990
v -1.601835 4.791180 -1.793333
v -2.209970 4.685979 2.366228
v -1.322023 4.956045 3.304041
v -0.047680 5.581821 3.304041
v 1.226664 5.187281 3.304041
v 1.849569 5.242859 3.132993
vt 0.787071 0.855137
vt 0.794142 0.855137
vt 0.794142 0.862208
vt 0.787071 0.862208
vt 0.772929 0.855137
vt 0.780000 0.855137
vt 0.780000 0.862208
vt 0.772929 0.862208
vt 0.772929 0.840995
vt 0.780000 0.840995
vt 0.780000 0.848066
vt 0.772929 0.848066
vt 0.787071 0.840995
vt 0.794142 0.840995
vt 0.794142 0.848066
vt 0.787071 0.848066
vt 0.765858 0.840995
vt 0.765858 0.848066
vt 0.765858 0.855137
vt 0.765858 0.862208
vt 0.765858 0.833925
vt 0.772929 0.833925
vt 0.780000 0.833925
vt 0.787071 0.833925
vt 0.794142 0.833925
vn 0.5278 0.2897 -0.7984
vn 0.1420 0.4287 -0.8922
vn -0.4779 0.7370 0.4779
vn 0.7831 0.5859 0.2084
vn 0.4810 0.7330 0.4810
vn -0.0430 0.3445 -0.9378
vn -0.8158 0.5732 -0.0773
vn -0.8050 0.3921 -0.4452
vn -0.5374 0.3465 0.7688
vn 0.2376 0.5751 0.7828
vn 0.5264 0.6239 0.5777
vn -0.2700 0.5441 0.7944
vn -0.9070 0.3937 -0.1498
vn 0.4827 0.7399 -0.4686
vn -0.4860 0.7356 -0.4719
vn 0.7750 0.6106 -0.1631
usemtl Color.027
s 1
f 120/137/86 121/138/86 122/139/86 123/140/86
f 124/141/87 125/142/87 126/143/87 127/144/87
f 128/145/88 129/146/88 130/147/88 131/148/88
f 132/149/89 133/150/89 134/151/89 135/152/89
f 129/146/90 132/149/90 135/152/90 130/147/90
f 125/142/91 120/137/91 123/140/91 126/143/91
f 136/153/92 128/145/92 131/148/92 137/154/92
f 138/155/93 124/141/93 127/144/93 139/156/93
f 140/157/94 141/158/94 128/145/94 136/153/94
f 142/159/95 143/160/95 132/149/95 129/146/95
f 143/160/96 144/161/96 133/150/96 132/149/96
f 141/158/97 142/159/97 129/146/97 128/145/97
f 137/154/98 131/148/98 124/141/98 138/155/98
f 130/147/99 135/152/99 120/137/99 125/142/99
f 131/148/100 130/147/100 125/142/100 124/141/100
f 135/152/101 134/151/101 121/138/101 120/137/101
o Plane.004
v -0.109781 5.888408 -1.059341
v 0.748125 4.627429 -1.936674
v 0.142143 4.347229 -1.596720
v -0.714489 4.411967 -1.664127
v -1.863094 5.867128 0.790442
v -1.000305 6.525144 -0.147594
v -1.308464 4.521632 -0.439682
v -2.730711 4.498915 -0.031929
v 0.000553 5.886278 2.556900
v 0.877211 6.525144 1.632010
v -0.047680 7.538904 0.755352
v -0.924337 6.525144 1.680243
v 1.753868 5.866427 0.707119
v 2.630526 4.368508 -0.217772
v 1.705635 4.616353 -1.094429
v 0.828978 6.525144 -0.169538
v -0.876104 4.883412 3.481789
v -1.428101 4.672218 2.211723
v -2.294832 4.548098 1.273706
v -2.966608 3.867653 0.130009
v -0.366043 3.762453 3.432861
v 0.925444 4.032519 3.433555
v 1.802101 4.658295 2.508667
v 2.678759 4.263755 1.583776
v 2.983131 4.319332 1.014015
vt 0.729559 0.840432
vt 0.737118 0.840432
vt 0.737118 0.847991
vt 0.729559 0.847991
vt 0.714441 0.840432
vt 0.722000 0.840432
vt 0.722000 0.847991
vt 0.714441 0.847991
vt 0.714441 0.825314
vt 0.722000 0.825314
vt 0.722000 0.832873
vt 0.714441 0.832873
vt 0.729559 0.825314
vt 0.737118 0.825314
vt 0.737118 0.832873
vt 0.729559 0.832873
vt 0.706882 0.825314
vt 0.706882 0.832873
vt 0.706882 0.840432
vt 0.706882 0.847991
vt 0.706882 0.817755
vt 0.714441 0.817755
vt 0.722000 0.817755
vt 0.729559 0.817755
vt 0.737118 0.817755
vn -0.2164 0.2897 -0.9323
vn -0.5499 0.4287 -0.7168
vn 0.0181 0.7370 0.6756
vn 0.6900 0.5859 -0.4250
vn 0.6800 0.7330 -0.0182
vn -0.7102 0.3445 -0.6139
vn -0.6173 0.5732 0.5389
vn -0.8769 0.3921 0.2780
vn 0.1883 0.3465 0.9190
vn 0.7316 0.5751 0.3661
vn 0.7814 0.6239 0.0154
vn 0.3908 0.5441 0.7424
vn -0.7326 0.3937 0.5552
vn -0.0081 0.7399 -0.6727
vn -0.6768 0.7356 0.0281
vn 0.4148 0.6106 -0.6747
usemtl Color.027
s 1
f 145/162/102 146/163/102 147/164/102 148/165/102
f 149/166/103 150/167/103 151/168/103 152/169/103
f 153/170/104 154/171/104 155/172/104 156/173/104
f 157/174/105 158/175/105 159/176/105 160/177/105
f 154/171/106 157/174/106 160/177/106 155/172/106
f 150/167/107 145/162/107 148/165/107 151/168/107
f 161/178/108 153/170/108 156/173/108 162/179/108
f 163/180/109 149/166/109 152/169/109 164/181/109
f 165/182/110 166/183/110 153/170/110 161/178/110
f 167/184/111 168/185/111 157/174/111 154/171/111
f 168/185/112 169/186/112 158/175/112 157/174/112
f 166/183/113 167/184/113 154/171/113 153/170/113
f 162/179/114 156/173/114 149/166/114 163/180/114
f 155/172/115 160/177/115 145/162/115 150/167/115
f 156/173/116 155/172/116 150/167/116 149/166/116
f 160/177/117 159/176/117 146/163/117 145/162/117
