# Blender v2.80 (sub 35) OBJ File: ''
# www.blender.org
mtllib wooden_fence_door.mtl
o Fence_03_door_Cube.008
v -0.333736 2.932430 2.492186
v -0.359238 4.356371 2.405421
v -0.049700 4.356315 2.405424
v -0.069176 2.932430 2.492186
v -0.333736 2.932430 2.940672
v -0.359222 4.355595 2.930159
v -0.323009 -0.096386 2.461318
v -0.086689 -0.096386 2.461318
v -0.086689 -0.096386 2.861930
v -0.323009 -0.096386 2.861930
v -0.106302 4.536732 2.494566
v -0.303396 4.536732 2.494566
v -0.303396 4.536732 2.828684
v -0.106302 4.536732 2.828684
v -0.069176 2.932430 2.940672
v -0.049711 4.355507 2.930159
v -0.320404 1.436936 2.401418
v -0.060265 1.436936 2.401418
v -0.060265 1.436936 2.842409
v -0.320404 1.436936 2.842409
v -0.330090 2.461957 -2.259197
v -0.330090 3.733707 -2.189166
v -0.330090 3.733707 -2.580309
v -0.330090 2.461957 -2.650340
v -0.082678 3.733707 -2.580309
v -0.082678 2.461957 -2.650340
v -0.082678 3.733707 -2.189166
v -0.082678 2.461957 -2.259197
v -0.330090 -0.081543 -2.580309
v -0.082678 -0.081543 -2.580309
v -0.082678 -0.081543 -2.189167
v -0.330090 -0.081543 -2.189167
v -0.040657 4.147995 -2.735773
v -0.040657 4.147995 -2.211768
v -0.097120 4.321841 -2.646513
v -0.097120 4.321841 -2.301032
v -0.372110 4.147995 -2.211768
v -0.372110 4.147995 -2.735773
v -0.315649 4.321841 -2.646513
v -0.315649 4.321841 -2.301032
v -0.082678 1.190207 -2.216118
v -0.330090 1.190207 -2.189166
v -0.082678 1.190207 -2.607261
v -0.330090 1.190207 -2.607261
vt 0.523123 0.614641
vt 0.530001 0.614641
vt 0.530001 0.637889
vt 0.523123 0.637889
vt 0.499875 0.614641
vt 0.506749 0.614641
vt 0.506753 0.637889
vt 0.499875 0.637889
vt 0.484376 0.637889
vt 0.507624 0.637889
vt 0.507624 0.661138
vt 0.484376 0.661138
vt 0.485115 0.568884
vt 0.506885 0.568884
vt 0.506885 0.590653
vt 0.485115 0.590653
vt 0.499875 0.591393
vt 0.506749 0.591393
vt 0.507624 0.614641
vt 0.515374 0.614641
vt 0.515374 0.637889
vt 0.461128 0.614641
vt 0.468877 0.614641
vt 0.468877 0.637889
vt 0.461128 0.637889
vt 0.476626 0.614641
vt 0.476626 0.637889
vt 0.484376 0.614641
vt 0.492125 0.614641
vt 0.492125 0.637889
vt 0.484376 0.591393
vt 0.492125 0.591393
vt 0.507385 0.591393
vt 0.484559 0.591393
vt 0.484376 0.591393
vt 0.484376 0.568623
vt 0.507624 0.568623
vt 0.507624 0.591393
vt 0.484558 0.568144
vt 0.507386 0.568144
vt 0.483504 0.614641
vt 0.483500 0.637889
vt 0.499875 0.568144
vt 0.507624 0.568144
vt 0.507624 0.591393
vt 0.499875 0.591393
vt 0.507624 0.614641
vt 0.499875 0.614641
vt 0.507624 0.637889
vt 0.499875 0.637889
vt 0.507624 0.661138
vt 0.499875 0.661138
vt 0.461128 0.614641
vt 0.484376 0.614641
vt 0.484376 0.637889
vt 0.461128 0.637889
vt 0.507624 0.614641
vt 0.507624 0.637889
vt 0.507624 0.614641
vt 0.507624 0.637889
vt 0.507624 0.568144
vt 0.507624 0.591393
vt 0.507624 0.661138
vt 0.530872 0.614641
vt 0.530872 0.637889
vt 0.507624 0.568144
vt 0.507624 0.591393
vt 0.507624 0.661138
vt 0.492125 0.637889
vt 0.492125 0.661138
vt 0.484376 0.661138
vt 0.492125 0.614641
vt 0.484376 0.591393
vt 0.492125 0.591393
vt 0.484376 0.568144
vt 0.492125 0.568144
vn 0.0000 -0.0608 -0.9981
vn -0.9999 -0.0135 0.0000
vn -0.9998 -0.0179 0.0000
vn -0.9999 -0.0134 0.0000
vn 0.0000 -1.0000 0.0000
vn 0.0000 1.0000 0.0000
vn 0.0000 0.0074 1.0000
vn 0.0000 -0.0390 -0.9992
vn 0.0000 0.0606 -0.9982
vn 0.9999 -0.0172 -0.0000
vn 1.0000 0.0060 0.0000
vn -1.0000 0.0017 0.0000
vn -1.0000 -0.0037 0.0000
vn -1.0000 -0.0036 0.0000
vn 0.0000 0.0127 0.9999
vn 0.0000 -0.0656 0.9978
vn 0.0001 0.4887 0.8725
vn 0.9543 0.2987 0.0003
vn -0.9555 0.2952 0.0003
vn 0.0001 0.4430 -0.8965
vn 0.9999 -0.0137 0.0000
vn -1.0000 0.0000 0.0000
vn 0.0000 0.0550 -0.9985
vn 1.0000 -0.0000 0.0000
vn 0.0000 -0.0550 0.9985
vn 0.9949 -0.1009 0.0000
vn 0.9511 0.3089 0.0000
vn -0.9949 -0.1009 0.0000
vn 0.0000 0.0545 0.9985
vn 0.0000 -0.3513 -0.9363
vn -0.9511 0.3089 0.0000
vn 0.0000 0.4568 0.8896
vn 0.0000 0.4568 -0.8896
vn 0.0544 0.0106 0.9985
vn 0.0543 0.0444 0.9975
vn 0.0000 -0.0212 -0.9998
vn 0.0000 -0.0275 -0.9996
vn 0.0000 -0.0339 -0.9994
usemtl Color.040
s 1
f 1/1/1 2/2/1 3/3/1 4/4/1
f 5/5/2 6/6/3 2/7/3 1/8/4
f 7/9/5 8/10/5 9/11/5 10/12/5
f 11/13/6 12/14/6 13/15/6 14/16/6
f 15/17/7 16/18/7 6/6/7 5/5/7
f 7/19/8 17/20/8 18/21/8 8/10/8
f 17/20/9 1/1/9 4/4/9 18/21/9
f 8/22/10 18/23/10 19/24/10 9/25/10
f 18/23/11 4/26/11 15/27/11 19/24/11
f 10/28/12 20/29/13 17/30/14 7/9/12
f 20/29/13 5/5/2 1/8/4 17/30/14
f 9/31/15 19/32/15 20/29/15 10/28/15
f 19/32/16 15/17/16 5/5/16 20/29/16
f 14/16/17 13/15/17 6/33/17 16/34/17
f 11/13/18 14/16/18 16/35/18 3/36/18
f 13/15/19 12/14/19 2/37/19 6/38/19
f 12/14/20 11/13/20 3/39/20 2/40/20
f 4/26/21 3/41/21 16/42/21 15/27/21
f 21/43/22 22/44/22 23/45/22 24/46/22
f 24/46/23 23/45/23 25/47/23 26/48/23
f 26/48/24 25/47/24 27/49/24 28/50/24
f 28/50/25 27/49/25 22/51/25 21/52/25
f 29/53/5 30/54/5 31/55/5 32/56/5
f 27/49/26 25/47/26 33/57/26 34/58/26
f 34/58/27 33/57/27 35/59/27 36/60/27
f 23/45/28 22/44/28 37/61/28 38/62/28
f 22/51/29 27/49/29 34/58/29 37/63/29
f 25/47/30 23/45/30 38/62/30 33/57/30
f 35/59/6 39/64/6 40/65/6 36/60/6
f 38/62/31 37/61/31 40/66/31 39/67/31
f 37/63/32 34/58/32 36/60/32 40/68/32
f 33/57/33 38/62/33 39/67/33 35/59/33
f 31/55/34 41/69/34 42/70/34 32/71/34
f 41/69/35 28/50/35 21/52/35 42/70/35
f 30/54/24 43/72/24 41/69/24 31/55/24
f 43/72/24 26/48/24 28/50/24 41/69/24
f 29/73/36 44/74/37 43/72/37 30/54/36
f 44/74/37 24/46/38 26/48/38 43/72/37
f 32/75/22 42/76/22 44/74/22 29/73/22
f 42/76/22 21/43/22 24/46/22 44/74/22
o Cube_Cube.009
v -0.332851 -0.097764 2.446434
v -0.332851 3.844879 2.446434
v -0.332851 4.100835 2.113495
v -0.332851 -0.097764 2.113495
v -0.230427 4.100835 2.113495
v -0.230427 -0.097764 2.113495
v -0.230427 3.844879 2.446434
v -0.230427 -0.097764 2.446434
vt 0.508689 0.590116
vt 0.531311 0.590116
vt 0.531311 0.612737
vt 0.508689 0.612737
vt 0.531311 0.635359
vt 0.508689 0.635359
vt 0.531311 0.657981
vt 0.508689 0.657981
vt 0.531311 0.680603
vt 0.508689 0.680603
vt 0.486067 0.635359
vt 0.486067 0.657981
vt 0.553933 0.635359
vt 0.553933 0.657981
vn -1.0000 0.0000 0.0000
vn 0.0000 0.0000 -1.0000
vn 1.0000 0.0000 0.0000
vn 0.0000 -0.0000 1.0000
vn 0.0000 -1.0000 0.0000
vn 0.0000 0.7928 0.6095
usemtl Color.040
s 1
f 45/77/39 46/78/39 47/79/39 48/80/39
f 48/80/40 47/79/40 49/81/40 50/82/40
f 50/82/41 49/81/41 51/83/41 52/84/41
f 52/84/42 51/83/42 46/85/42 45/86/42
f 48/87/43 50/82/43 52/84/43 45/88/43
f 49/81/44 47/89/44 46/90/44 51/83/44
o Cube.003_Cube.010
v -0.332851 -0.097764 2.059219
v -0.332851 4.113961 2.059220
v -0.332851 4.369917 1.726281
v -0.332851 -0.097764 1.726280
v -0.230427 4.369917 1.726281
v -0.230427 -0.097764 1.726280
v -0.230427 4.113961 2.059220
v -0.230427 -0.097764 2.059219
vt 0.486303 0.573091
vt 0.505697 0.573091
vt 0.505697 0.592485
vt 0.486303 0.592485
vt 0.505697 0.611879
vt 0.486303 0.611879
vt 0.505697 0.631272
vt 0.486303 0.631272
vt 0.505697 0.650666
vt 0.486303 0.650666
vt 0.466909 0.611879
vt 0.466909 0.631272
vt 0.525091 0.611879
vt 0.525091 0.631272
vn -1.0000 0.0000 0.0000
vn 0.0000 0.0000 -1.0000
vn 1.0000 -0.0000 0.0000
vn 0.0000 -0.0000 1.0000
vn 0.0000 -1.0000 0.0000
vn 0.0000 0.7928 0.6095
usemtl Color.040
s 1
f 53/91/45 54/92/45 55/93/45 56/94/45
f 56/94/46 55/93/46 57/95/46 58/96/46
f 58/96/47 57/95/47 59/97/47 60/98/47
f 60/98/48 59/97/48 54/99/48 53/100/48
f 56/101/49 58/96/49 60/98/49 53/102/49
f 57/95/50 55/103/50 54/104/50 59/97/50
o Cube.004_Cube.011
v -0.332851 -0.097764 1.678566
v -0.332851 4.402733 1.678566
v -0.332851 4.658689 0.958411
v -0.332851 -0.097764 0.958410
v -0.230427 4.658689 0.958411
v -0.230427 -0.097764 0.958410
v -0.230427 4.402733 1.678566
v -0.230427 -0.097764 1.678566
vt 0.489824 0.611516
vt 0.514176 0.611516
vt 0.514176 0.635868
vt 0.489824 0.635868
vt 0.514176 0.660221
vt 0.489824 0.660221
vt 0.514176 0.684574
vt 0.489824 0.684574
vt 0.514176 0.708927
vt 0.489824 0.708927
vt 0.465471 0.660221
vt 0.465471 0.684574
vt 0.538529 0.660221
vt 0.538529 0.684574
vn -1.0000 0.0000 0.0000
vn 0.0000 0.0000 -1.0000
vn 1.0000 -0.0000 0.0000
vn 0.0000 -0.0000 1.0000
vn 0.0000 -1.0000 0.0000
vn 0.0000 0.9423 0.3349
usemtl Color.040
s 1
f 61/105/51 62/106/51 63/107/51 64/108/51
f 64/108/52 63/107/52 65/109/52 66/110/52
f 66/110/53 65/109/53 67/111/53 68/112/53
f 68/112/54 67/111/54 62/113/54 61/114/54
f 64/115/55 66/110/55 68/112/55 61/116/55
f 65/109/56 63/117/56 62/118/56 67/111/56
o Cube.005_Cube.012
v -0.332851 -0.097763 0.904134
v -0.332851 4.671814 0.904135
v -0.332851 4.809638 0.026470
v -0.332851 -0.097763 0.026471
v -0.230427 4.809638 0.026470
v -0.230427 -0.097763 0.026471
v -0.230427 4.671814 0.904135
v -0.230427 -0.097763 0.904134
vt 0.464339 0.569089
vt 0.483661 0.569089
vt 0.483661 0.588412
vt 0.464339 0.588412
vt 0.483661 0.607735
vt 0.464339 0.607735
vt 0.483661 0.627058
vt 0.464339 0.627058
vt 0.483661 0.646380
vt 0.464339 0.646380
vt 0.445016 0.607735
vt 0.445016 0.627058
vt 0.502984 0.607735
vt 0.502984 0.627058
vn -1.0000 -0.0000 0.0000
vn 0.0000 -0.0000 -1.0000
vn 1.0000 0.0000 0.0000
vn 0.0000 -0.0000 1.0000
vn 0.0000 -1.0000 0.0000
vn 0.0000 0.9879 0.1551
usemtl Color.040
s 1
f 69/119/57 70/120/57 71/121/57 72/122/57
f 72/122/58 71/121/58 73/123/58 74/124/58
f 74/124/59 73/123/59 75/125/59 76/126/59
f 76/126/60 75/125/60 70/127/60 69/128/60
f 72/129/61 74/124/61 76/126/61 69/130/61
f 73/123/62 71/131/62 70/132/62 75/125/62
o Cube.009_Cube.016
v -0.232800 -0.097763 -2.251639
v -0.232800 3.844880 -2.251638
v -0.231859 4.100836 -1.918699
v -0.231859 -0.097763 -1.918700
v -0.334286 4.100836 -1.918409
v -0.334286 -0.097763 -1.918410
v -0.335226 3.844880 -2.251348
v -0.335226 -0.097763 -2.251349
vt 0.484646 0.585798
vt 0.507354 0.585798
vt 0.507354 0.608507
vt 0.484646 0.608507
vt 0.507354 0.631216
vt 0.484646 0.631216
vt 0.507354 0.653924
vt 0.484646 0.653924
vt 0.507354 0.676633
vt 0.484646 0.676633
vt 0.461937 0.631216
vt 0.461937 0.653924
vt 0.530063 0.631216
vt 0.530063 0.653924
vn 1.0000 -0.0000 -0.0028
vn 0.0028 -0.0000 1.0000
vn -1.0000 -0.0000 0.0028
vn -0.0028 0.0000 -1.0000
vn 0.0000 -1.0000 0.0000
vn -0.0017 0.7928 -0.6095
usemtl Color.040
s 1
f 77/133/63 78/134/63 79/135/63 80/136/63
f 80/136/64 79/135/64 81/137/64 82/138/64
f 82/138/65 81/137/65 83/139/65 84/140/65
f 84/140/66 83/139/66 78/141/66 77/142/66
f 80/143/67 82/138/67 84/140/67 77/144/67
f 81/137/68 79/145/68 78/146/68 83/139/68
o Cube.008_Cube.015
v -0.231707 -0.097763 -1.864424
v -0.231707 4.113962 -1.864423
v -0.230766 4.369918 -1.531484
v -0.230766 -0.097763 -1.531485
v -0.333193 4.369918 -1.531194
v -0.333193 -0.097763 -1.531195
v -0.334133 4.113962 -1.864133
v -0.334133 -0.097763 -1.864134
vt 0.512296 0.680688
vt 0.491704 0.680688
vt 0.491704 0.660095
vt 0.512296 0.660095
vt 0.491704 0.639503
vt 0.512296 0.639503
vt 0.491704 0.618910
vt 0.512296 0.618910
vt 0.491704 0.598318
vt 0.512296 0.598318
vt 0.532889 0.639503
vt 0.532889 0.618910
vt 0.471111 0.639503
vt 0.471111 0.618910
vn 1.0000 -0.0000 -0.0028
vn 0.0028 -0.0000 1.0000
vn -1.0000 -0.0000 0.0028
vn -0.0028 0.0000 -1.0000
vn 0.0000 -1.0000 0.0000
vn -0.0017 0.7928 -0.6095
usemtl Color.040
s 1
f 85/147/69 86/148/69 87/149/69 88/150/69
f 88/150/70 87/149/70 89/151/70 90/152/70
f 90/152/71 89/151/71 91/153/71 92/154/71
f 92/154/72 91/153/72 86/155/72 85/156/72
f 88/157/73 90/152/73 92/154/73 85/158/73
f 89/151/74 87/159/74 86/160/74 91/153/74
o Cube.007_Cube.014
v -0.230631 -0.097763 -1.483773
v -0.230631 4.402733 -1.483772
v -0.228598 4.658689 -0.763619
v -0.228598 -0.097763 -0.763620
v -0.331022 4.658689 -0.763329
v -0.331022 -0.097763 -0.763330
v -0.333057 4.402733 -1.483482
v -0.333057 -0.097763 -1.483483
vt 0.499556 0.584490
vt 0.528444 0.584490
vt 0.528444 0.613378
vt 0.499556 0.613378
vt 0.528444 0.642265
vt 0.499556 0.642265
vt 0.528444 0.671153
vt 0.499556 0.671153
vt 0.528444 0.700040
vt 0.499556 0.700040
vt 0.470669 0.642265
vt 0.470669 0.671153
vt 0.557331 0.642265
vt 0.557331 0.671153
vn 1.0000 0.0000 -0.0028
vn 0.0028 -0.0000 1.0000
vn -1.0000 0.0000 0.0028
vn -0.0028 0.0000 -1.0000
vn 0.0000 -1.0000 0.0000
vn -0.0009 0.9423 -0.3349
usemtl Color.040
s 1
f 93/161/75 94/162/75 95/163/75 96/164/75
f 96/164/76 95/163/76 97/165/76 98/166/76
f 98/166/77 97/165/77 99/167/77 100/168/77
f 100/168/78 99/167/78 94/169/78 93/170/78
f 96/171/79 98/166/79 100/168/79 93/172/79
f 97/165/80 95/173/80 94/174/80 99/167/80
o Cube.006_Cube.013
v -0.228445 -0.097763 -0.709343
v -0.228445 4.671814 -0.709343
v -0.225965 4.809638 -0.004951
v -0.225965 -0.097763 -0.004958
v -0.328392 4.809638 -0.004661
v -0.328392 -0.097763 -0.004668
v -0.330872 4.671814 -0.709053
v -0.330872 -0.097763 -0.709053
vt 0.474500 0.552640
vt 0.505500 0.552640
vt 0.505500 0.583640
vt 0.474500 0.583640
vt 0.505500 0.614641
vt 0.474500 0.614641
vt 0.505500 0.645641
vt 0.474500 0.645641
vt 0.505500 0.676642
vt 0.474500 0.676642
vt 0.443499 0.614641
vt 0.443499 0.645641
vt 0.536501 0.614641
vt 0.536501 0.645641
vn 1.0000 0.0000 -0.0035
vn 0.0028 -0.0000 1.0000
vn -1.0000 0.0000 0.0035
vn -0.0028 0.0000 -1.0000
vn 0.0000 -1.0000 0.0000
vn -0.0005 0.9814 -0.1920
usemtl Color.040
s 1
f 101/175/81 102/176/81 103/177/81 104/178/81
f 104/178/82 103/177/82 105/179/82 106/180/82
f 106/180/83 105/179/83 107/181/83 108/182/83
f 108/182/84 107/181/84 102/183/84 101/184/84
f 104/185/85 106/180/85 108/182/85 101/186/85
f 105/179/86 103/187/86 102/188/86 107/181/86
o Cube.010_Cube.017
v -0.270586 0.893666 -0.712607
v -0.270586 1.424887 -0.712607
v -0.270586 1.397498 -2.355074
v -0.270586 0.866277 -2.355074
v -0.137869 1.397498 -2.355074
v -0.137869 0.866277 -2.355074
v -0.137869 0.938555 0.929861
v -0.137869 1.469775 0.929861
v -0.137869 1.397497 2.572329
v -0.137869 0.866276 2.572329
v -0.270586 1.397497 2.572329
v -0.270586 0.866276 2.572329
v -0.270586 0.938555 0.929861
v -0.270586 1.469775 0.929861
v -0.137869 1.424887 -0.712607
v -0.137869 0.893666 -0.712607
vt 0.460555 0.375941
vt 0.491445 0.375941
vt 0.491445 0.386238
vt 0.460555 0.386238
vt 0.491445 0.417127
vt 0.460555 0.417127
vt 0.460555 0.437720
vt 0.491445 0.437720
vt 0.491445 0.448016
vt 0.460555 0.448016
vt 0.491445 0.478906
vt 0.460555 0.478906
vt 0.429666 0.437720
vt 0.429666 0.448016
vt 0.522334 0.437720
vt 0.522334 0.448016
vt 0.522334 0.417127
vt 0.522334 0.427424
vt 0.491445 0.427424
vt 0.429666 0.417127
vt 0.460555 0.427424
vt 0.429666 0.427424
vt 0.460555 0.355349
vt 0.491445 0.355349
vt 0.491445 0.365645
vt 0.460555 0.365645
vn -1.0000 0.0000 0.0000
vn 0.0000 0.0000 -1.0000
vn 1.0000 0.0000 0.0000
vn 0.0000 0.0000 1.0000
vn 0.0000 -0.9990 -0.0440
vn 0.0000 0.9990 0.0440
vn 0.0000 0.9999 -0.0167
vn 0.0000 0.9998 -0.0220
vn 0.0000 0.9996 -0.0273
vn 0.0000 -0.9999 0.0167
vn 0.0000 -0.9998 0.0220
vn 0.0000 -0.9996 0.0273
usemtl Color.040
s 1
f 109/189/87 110/190/87 111/191/87 112/192/87
f 112/192/88 111/191/88 113/193/88 114/194/88
f 115/195/89 116/196/89 117/197/89 118/198/89
f 118/198/90 117/197/90 119/199/90 120/200/90
f 121/201/91 115/195/91 118/198/91 120/202/91
f 116/196/92 122/203/92 119/204/92 117/197/92
f 113/193/93 111/205/93 110/206/94 123/207/94
f 123/207/94 110/206/94 122/203/95 116/196/95
f 112/208/96 114/194/96 124/209/97 109/210/97
f 109/210/97 124/209/97 115/195/98 121/201/98
f 114/194/89 113/193/89 123/207/89 124/209/89
f 124/209/89 123/207/89 116/196/89 115/195/89
f 120/211/87 119/212/87 122/213/87 121/214/87
f 121/214/87 122/213/87 110/190/87 109/189/87
o Cube.011_Cube.018
v -0.270586 2.980070 -0.712606
v -0.270586 3.511290 -0.712606
v -0.270586 3.366706 -2.355073
v -0.270586 2.835485 -2.355073
v -0.137869 3.366706 -2.355073
v -0.137869 2.835485 -2.355073
v -0.137869 2.907762 0.929862
v -0.137869 3.438983 0.929862
v -0.137869 3.366705 2.572330
v -0.137869 2.835484 2.572330
v -0.270586 3.366705 2.572330
v -0.270586 2.835484 2.572330
v -0.270586 2.907762 0.929862
v -0.270586 3.438983 0.929862
v -0.137869 3.511290 -0.712606
v -0.137869 2.980070 -0.712606
vt 0.435421 0.383390
vt 0.456580 0.383390
vt 0.456580 0.390443
vt 0.435421 0.390443
vt 0.456580 0.411602
vt 0.435421 0.411602
vt 0.435421 0.425708
vt 0.456580 0.425708
vt 0.456580 0.432761
vt 0.435421 0.432761
vt 0.456580 0.453920
vt 0.435421 0.453920
vt 0.414262 0.425708
vt 0.414262 0.432761
vt 0.477738 0.425708
vt 0.477738 0.432761
vt 0.477738 0.411602
vt 0.477738 0.418655
vt 0.456580 0.418655
vt 0.414262 0.411602
vt 0.435421 0.418655
vt 0.414262 0.418655
vt 0.435421 0.369284
vt 0.456580 0.369284
vt 0.456580 0.376337
vt 0.435421 0.376337
vn -1.0000 0.0000 0.0000
vn 0.0000 0.0000 -1.0000
vn 1.0000 0.0000 0.0000
vn 0.0000 0.0000 1.0000
vn 0.0000 -0.9990 -0.0440
vn 0.0000 0.9990 0.0440
vn 0.0000 0.9961 -0.0877
vn 0.0000 -0.9961 0.0877
usemtl Color.040
s 1
f 125/215/99 126/216/99 127/217/99 128/218/99
f 128/218/100 127/217/100 129/219/100 130/220/100
f 131/221/101 132/222/101 133/223/101 134/224/101
f 134/224/102 133/223/102 135/225/102 136/226/102
f 137/227/103 131/221/103 134/224/103 136/228/103
f 132/222/104 138/229/104 135/230/104 133/223/104
f 129/219/105 127/231/105 126/232/105 139/233/105
f 139/233/104 126/232/104 138/229/104 132/222/104
f 128/234/106 130/220/106 140/235/106 125/236/106
f 125/236/103 140/235/103 131/221/103 137/227/103
f 130/220/101 129/219/101 139/233/101 140/235/101
f 140/235/101 139/233/101 132/222/101 131/221/101
f 136/237/99 135/238/99 138/239/99 137/240/99
f 137/240/99 138/239/99 126/216/99 125/215/99
