# Blender v2.80 (sub 35) OBJ File: ''
# www.blender.org
mtllib wooden_empty_bucket.mtl
o Cylinder.006_Cylinder.007
v -0.203227 1.554804 -1.362087
v -0.203227 1.817429 -1.404005
v 0.456384 1.817429 -1.227263
v 0.435425 1.554804 -1.190961
v 0.939252 1.817429 -0.744394
v 0.902950 1.554804 -0.723435
v 1.115994 1.817429 -0.084783
v 1.074077 1.554804 -0.084783
v 0.939252 1.817428 0.574827
v 0.902950 1.554803 0.553868
v 0.456384 1.817428 1.057696
v 0.435425 1.554803 1.021394
v -0.203227 1.817428 1.234438
v -0.203227 1.554803 1.192520
v -0.862838 1.817428 1.057696
v -0.841879 1.554803 1.021394
v -1.345706 1.817428 0.574827
v -1.309404 1.554803 0.553868
v -1.522449 1.817429 -0.084783
v -1.480531 1.554804 -0.084783
v -1.345707 1.817429 -0.744394
v -1.309405 1.554804 -0.723435
v 1.007627 1.817429 -0.084783
v 0.845403 1.817429 -0.690210
v 0.647217 0.009827 -0.575788
v 0.778780 0.009827 -0.084784
v -0.862839 1.817429 -1.227262
v -0.841880 1.554804 -1.190961
v 0.867332 1.297127 0.533304
v 1.032948 1.297127 -0.084784
v 1.105965 1.285472 -0.084784
v 0.930566 1.285471 0.569812
v -0.203227 1.817429 -1.295637
v 0.402200 1.817429 -1.133414
v 0.845403 1.817428 0.520643
v 0.402200 1.817428 0.963846
v -0.203227 1.817428 1.126070
v -0.808654 1.817428 0.963846
v -1.251857 1.817428 0.520643
v -1.414081 1.817429 -0.084783
v -1.251858 1.817429 -0.690210
v -0.808655 1.817429 -1.133413
v 0.287776 0.009827 -0.935228
v -0.203227 0.009827 -1.066792
v -0.694231 0.009827 -0.935227
v -1.053671 0.009827 -0.575788
v -1.185234 0.009827 -0.084784
v -1.053670 0.009827 0.406219
v -0.694230 0.009827 0.765659
v -0.203227 0.009827 0.897223
v 0.287776 0.009827 0.765659
v 0.647216 0.009827 0.406219
v -0.821316 1.297127 -1.155343
v -1.273787 1.297127 -0.702871
v -1.337021 1.285472 -0.739379
v -0.857823 1.285472 -1.218576
v -1.372638 1.543149 0.590376
v -0.878386 1.543149 1.084627
v 0.867332 1.297127 -0.702871
v 0.930566 1.285472 -0.739380
v 0.471933 1.543150 -1.254195
v -0.203227 1.543150 -1.435103
v -1.439402 1.297127 -0.084784
v -1.512419 1.285472 -0.084784
v -1.553547 1.543150 -0.084783
v 0.414861 1.297127 -1.155343
v 0.451368 1.285472 -1.218576
v 0.966184 1.543150 -0.759944
v -1.273787 1.297127 0.533304
v -1.337020 1.285471 0.569813
v -1.372639 1.543150 -0.759943
v -0.203227 1.297127 -1.320959
v -0.203227 1.285472 -1.393975
v -0.203227 -0.182571 -1.084784
v 0.296773 -0.182571 -0.950809
v 0.662799 -0.182571 -0.584784
v 0.796773 -0.182571 -0.084784
v 0.662798 -0.182572 0.415216
v 0.414861 1.297127 0.985776
v 0.296773 -0.182572 0.781240
v -0.203227 1.297126 1.151392
v -0.203227 -0.182572 0.915216
v -0.821315 1.297127 0.985776
v -0.703227 -0.182572 0.781242
v -1.069252 -0.182572 0.415216
v -1.203227 -0.182571 -0.084784
v -1.069253 -0.182571 -0.584784
v -0.703228 -0.182571 -0.950809
v -0.878387 1.543150 -1.254194
v -0.857822 1.285471 1.049009
v -0.203227 1.285471 1.224407
v -0.203227 1.543149 1.265535
v 0.451368 1.285471 1.049009
v 0.471933 1.543149 1.084627
v 0.966184 1.543149 0.590376
v 1.147093 1.543150 -0.084783
vt 0.583973 0.732252
vt 0.583973 0.745248
vt 0.567477 0.745248
vt 0.567477 0.732252
vt 0.550982 0.745248
vt 0.550982 0.732252
vt 0.534486 0.745248
vt 0.534486 0.732252
vt 0.517991 0.745248
vt 0.517991 0.732252
vt 0.501495 0.745248
vt 0.501495 0.732252
vt 0.485000 0.745248
vt 0.485000 0.732252
vt 0.468505 0.745248
vt 0.468505 0.732252
vt 0.452009 0.745248
vt 0.452009 0.732252
vt 0.435514 0.745248
vt 0.435514 0.732252
vt 0.419018 0.745248
vt 0.419018 0.732252
vt 0.479118 0.596789
vt 0.473276 0.618591
vt 0.473276 0.618591
vt 0.479118 0.596789
vt 0.402523 0.745248
vt 0.402523 0.732252
vt 0.386028 0.745248
vt 0.386028 0.732252
vt 0.526991 0.415633
vt 0.543486 0.415633
vt 0.543486 0.415633
vt 0.526991 0.415633
vt 0.435514 0.640394
vt 0.457316 0.634552
vt 0.459267 0.637931
vt 0.435514 0.644296
vt 0.476656 0.620543
vt 0.483021 0.596789
vt 0.473276 0.574987
vt 0.476656 0.573036
vt 0.457316 0.559027
vt 0.459267 0.555647
vt 0.435514 0.553185
vt 0.435514 0.549282
vt 0.413712 0.559027
vt 0.411760 0.555647
vt 0.397751 0.574987
vt 0.394372 0.573036
vt 0.391909 0.596789
vt 0.388007 0.596789
vt 0.397751 0.618591
vt 0.394372 0.620543
vt 0.413712 0.634552
vt 0.411760 0.637931
vt 0.457316 0.634552
vt 0.435514 0.640394
vt 0.413712 0.634552
vt 0.397751 0.618591
vt 0.391909 0.596789
vt 0.397751 0.574987
vt 0.413712 0.559027
vt 0.435514 0.553185
vt 0.457316 0.559027
vt 0.473276 0.574987
vt 0.411523 0.415633
vt 0.428018 0.415633
vt 0.428018 0.415633
vt 0.411523 0.415633
vt 0.477505 0.428384
vt 0.461009 0.428384
vt 0.461009 0.428384
vt 0.477505 0.428384
vt 0.559982 0.415633
vt 0.559982 0.415633
vt 0.592973 0.428384
vt 0.576477 0.428384
vt 0.576477 0.428384
vt 0.592973 0.428384
vt 0.444514 0.415633
vt 0.444514 0.415633
vt 0.444514 0.428384
vt 0.444514 0.428384
vt 0.576477 0.415633
vt 0.576477 0.415633
vt 0.559982 0.428384
vt 0.559982 0.428384
vt 0.461009 0.415633
vt 0.461009 0.415633
vt 0.428018 0.428384
vt 0.428018 0.428384
vt 0.592973 0.415633
vt 0.592973 0.415633
vt 0.583973 0.646275
vt 0.583973 0.719500
vt 0.567477 0.719500
vt 0.567477 0.646275
vt 0.550982 0.719500
vt 0.550982 0.646275
vt 0.534486 0.719500
vt 0.534486 0.646275
vt 0.517991 0.719500
vt 0.517991 0.646275
vt 0.501495 0.719500
vt 0.501495 0.646275
vt 0.485000 0.719500
vt 0.485000 0.646275
vt 0.468505 0.719500
vt 0.468505 0.646275
vt 0.452009 0.719500
vt 0.452009 0.646275
vt 0.435514 0.719500
vt 0.435514 0.646275
vt 0.419018 0.719500
vt 0.419018 0.646275
vt 0.402523 0.719500
vt 0.402523 0.646275
vt 0.386028 0.719500
vt 0.386028 0.646275
vt 0.411523 0.428384
vt 0.395028 0.428384
vt 0.395028 0.415633
vt 0.477505 0.415633
vt 0.494000 0.415633
vt 0.494000 0.428384
vt 0.510495 0.415633
vt 0.510495 0.428384
vt 0.526991 0.428384
vt 0.543486 0.428384
vt 0.494000 0.428384
vt 0.395028 0.415633
vt 0.510495 0.415633
vt 0.510495 0.428384
vt 0.494000 0.415633
vt 0.526991 0.428384
vt 0.411523 0.428384
vt 0.395028 0.428384
vt 0.477505 0.415633
vt 0.543486 0.428384
vn 0.2558 -0.1524 -0.9546
vn 0.6989 -0.1524 -0.6988
vn 0.9546 -0.1524 -0.2558
vn 0.9546 -0.1524 0.2558
vn 0.6989 -0.1524 0.6989
vn 0.2558 -0.1524 0.9546
vn -0.2558 -0.1524 0.9546
vn -0.6989 -0.1524 0.6989
vn -0.9546 -0.1524 0.2558
vn -0.9546 -0.1524 -0.2558
vn -0.9588 0.1214 0.2569
vn -0.6989 -0.1524 -0.6989
vn -0.2558 -0.1524 -0.9546
vn -0.1575 -0.9866 -0.0422
vn 0.0000 1.0000 0.0000
vn 0.9588 0.1214 0.2569
vn 0.2569 0.1214 -0.9588
vn -0.9588 0.1214 -0.2569
vn 0.7019 0.1214 0.7019
vn -0.2569 0.1214 0.9588
vn 0.7019 0.1214 -0.7019
vn -0.7019 0.1214 -0.7019
vn 0.2569 0.1214 0.9588
vn -0.7019 0.1214 0.7019
vn 0.9588 0.1214 -0.2569
vn -0.2569 0.1214 -0.9588
vn 0.1153 -0.9866 0.1153
vn -0.1153 0.9866 0.1153
vn -0.1575 -0.9866 0.0422
vn 0.0422 0.9866 -0.1575
vn 0.1575 -0.9866 0.0422
vn -0.1575 0.9866 0.0422
vn -0.1153 -0.9866 0.1153
vn 0.1153 0.9866 -0.1153
vn 0.1575 -0.9866 -0.0422
vn -0.1575 0.9866 -0.0422
vn -0.0422 -0.9866 0.1575
vn 0.6988 -0.1524 -0.6989
vn 0.6988 -0.1524 0.6989
vn -0.6989 -0.1524 0.6988
vn -0.6989 -0.1524 -0.6988
vn 0.6989 -0.1524 0.6988
vn 0.6988 -0.1524 -0.6988
vn -0.0422 0.9866 0.1575
vn 0.0422 -0.9866 0.1575
vn -0.1153 -0.9866 -0.1153
vn 0.0422 0.9866 0.1575
vn -0.0422 -0.9866 -0.1575
vn 0.1153 0.9866 0.1153
vn -0.0422 0.9866 -0.1575
vn 0.0422 -0.9866 -0.1575
vn 0.1575 0.9866 0.0422
vn -0.1153 0.9866 -0.1153
vn 0.1153 -0.9866 -0.1153
vn 0.1575 0.9866 -0.0422
usemtl Color.035
s 1
f 1/1/1 2/2/1 3/3/1 4/4/1
f 4/4/2 3/3/2 5/5/2 6/6/2
f 6/6/3 5/5/3 7/7/3 8/8/3
f 8/8/4 7/7/4 9/9/4 10/10/4
f 10/10/5 9/9/5 11/11/5 12/12/5
f 12/12/6 11/11/6 13/13/6 14/14/6
f 14/14/7 13/13/7 15/15/7 16/16/7
f 16/16/8 15/15/8 17/17/8 18/18/8
f 18/18/9 17/17/9 19/19/9 20/20/9
f 20/20/10 19/19/10 21/21/10 22/22/10
f 23/23/11 24/24/11 25/25/11 26/26/11
f 22/22/12 21/21/12 27/27/12 28/28/12
f 28/28/13 27/27/13 2/29/13 1/30/13
f 29/31/14 30/32/14 31/33/14 32/34/14
f 33/35/15 34/36/15 3/37/15 2/38/15
f 34/36/15 24/24/15 5/39/15 3/37/15
f 24/24/15 23/23/15 7/40/15 5/39/15
f 23/23/15 35/41/15 9/42/15 7/40/15
f 35/41/15 36/43/15 11/44/15 9/42/15
f 36/43/15 37/45/15 13/46/15 11/44/15
f 37/45/15 38/47/15 15/48/15 13/46/15
f 38/47/15 39/49/15 17/50/15 15/48/15
f 39/49/15 40/51/15 19/52/15 17/50/15
f 40/51/15 41/53/15 21/54/15 19/52/15
f 41/53/15 42/55/15 27/56/15 21/54/15
f 42/55/15 33/35/15 2/38/15 27/56/15
f 43/57/15 44/58/15 45/59/15 46/60/15 47/61/15 48/62/15 49/63/15 50/64/15 51/65/15 52/66/15 26/26/15 25/25/15
f 41/53/16 40/51/16 47/61/16 46/60/16
f 38/47/17 37/45/17 50/64/17 49/63/17
f 35/41/18 23/23/18 26/26/18 52/66/18
f 42/55/19 41/53/19 46/60/19 45/59/19
f 34/36/20 33/35/20 44/58/20 43/57/20
f 39/49/21 38/47/21 49/63/21 48/62/21
f 36/43/22 35/41/22 52/66/22 51/65/22
f 33/35/23 42/55/23 45/59/23 44/58/23
f 24/24/24 34/36/24 43/57/24 25/25/24
f 40/51/25 39/49/25 48/62/25 47/61/25
f 37/45/26 36/43/26 51/65/26 50/64/26
f 53/67/27 54/68/27 55/69/27 56/70/27
f 16/71/28 18/72/28 57/73/28 58/74/28
f 30/32/29 59/75/29 60/76/29 31/33/29
f 1/77/30 4/78/30 61/79/30 62/80/30
f 54/68/31 63/81/31 64/82/31 55/69/31
f 18/72/32 20/83/32 65/84/32 57/73/32
f 59/75/33 66/85/33 67/86/33 60/76/33
f 4/78/34 6/87/34 68/88/34 61/79/34
f 63/81/35 69/89/35 70/90/35 64/82/35
f 20/83/36 22/91/36 71/92/36 65/84/36
f 66/85/37 72/93/37 73/94/37 67/86/37
f 74/95/1 72/96/1 66/97/1 75/98/1
f 75/98/38 66/97/38 59/99/38 76/100/38
f 76/100/3 59/99/3 30/101/3 77/102/3
f 77/102/4 30/101/4 29/103/4 78/104/4
f 78/104/39 29/103/39 79/105/39 80/106/39
f 80/106/6 79/105/6 81/107/6 82/108/6
f 82/108/7 81/107/7 83/109/7 84/110/7
f 84/110/40 83/109/40 69/111/40 85/112/40
f 85/112/9 69/111/9 63/113/9 86/114/9
f 86/114/10 63/113/10 54/115/10 87/116/10
f 87/116/41 54/115/41 53/117/41 88/118/41
f 88/118/13 53/117/13 72/119/13 74/120/13
f 56/70/13 89/121/13 62/122/13 73/123/13
f 55/69/12 71/92/12 89/121/12 56/70/12
f 64/82/10 65/84/10 71/92/10 55/69/10
f 70/90/9 57/73/9 65/84/9 64/82/9
f 90/124/8 58/74/8 57/73/8 70/90/8
f 91/125/7 92/126/7 58/74/7 90/124/7
f 93/127/6 94/128/6 92/126/6 91/125/6
f 32/34/42 95/129/42 94/128/42 93/127/42
f 31/33/4 96/130/4 95/129/4 32/34/4
f 60/76/3 68/88/3 96/130/3 31/33/3
f 67/86/43 61/79/43 68/88/43 60/76/43
f 73/94/1 62/80/1 61/79/1 67/86/1
f 14/131/44 16/71/44 58/74/44 92/126/44
f 72/132/45 53/67/45 56/70/45 73/123/45
f 79/133/46 29/31/46 32/34/46 93/127/46
f 12/134/47 14/131/47 92/126/47 94/128/47
f 81/135/48 79/133/48 93/127/48 91/125/48
f 10/136/49 12/134/49 94/128/49 95/129/49
f 28/137/50 1/138/50 62/122/50 89/121/50
f 83/139/51 81/135/51 91/125/51 90/124/51
f 8/140/52 10/136/52 95/129/52 96/130/52
f 22/91/53 28/137/53 89/121/53 71/92/53
f 69/89/54 83/139/54 90/124/54 70/90/54
f 6/87/55 8/140/55 96/130/55 68/88/55
