# Blender v2.80 (sub 35) OBJ File: ''
# www.blender.org
mtllib wooden_ladder.mtl
o Cube.275_Cube.001
v 0.303936 -0.015911 1.208186
v 0.303936 -0.015911 1.526820
v 0.303936 9.683790 1.526822
v 0.303936 9.683790 1.208188
v 0.558815 -0.015911 1.526820
v 0.558815 9.683790 1.526822
v 0.558815 -0.015911 1.208186
v 0.558815 9.683790 1.208188
vt 0.444429 0.571967
vt 0.444429 0.612553
vt 0.485015 0.612553
vt 0.485015 0.571967
vt 0.444429 0.653140
vt 0.485015 0.653140
vt 0.444429 0.693726
vt 0.485015 0.693726
vt 0.444429 0.734312
vt 0.485015 0.734312
vt 0.403843 0.653140
vt 0.403843 0.693726
vt 0.525602 0.693726
vt 0.525602 0.653140
vn -1.0000 0.0000 0.0000
vn 0.0000 -0.0000 1.0000
vn 1.0000 0.0000 0.0000
vn 0.0000 0.0000 -1.0000
vn 0.0000 -1.0000 0.0000
vn 0.0000 1.0000 0.0000
usemtl Color.034
s 1
f 1/1/1 2/2/1 3/3/1 4/4/1
f 2/2/2 5/5/2 6/6/2 3/3/2
f 5/5/3 7/7/3 8/8/3 6/6/3
f 7/7/4 1/9/4 4/10/4 8/8/4
f 2/11/5 1/12/5 7/7/5 5/5/5
f 6/6/6 8/8/6 4/13/6 3/14/6
o Cube.276_Cube.000
v 0.303936 -0.015910 -1.196401
v 0.303936 -0.015910 -0.877766
v 0.303936 9.683791 -0.877765
v 0.303936 9.683791 -1.196399
v 0.558815 -0.015910 -0.877766
v 0.558815 9.683791 -0.877765
v 0.558815 -0.015910 -1.196401
v 0.558815 9.683791 -1.196399
vt 0.444429 0.571967
vt 0.444429 0.612553
vt 0.485015 0.612553
vt 0.485015 0.571967
vt 0.444429 0.653140
vt 0.485015 0.653140
vt 0.444429 0.693726
vt 0.485015 0.693726
vt 0.444429 0.734312
vt 0.485015 0.734312
vt 0.403843 0.653140
vt 0.403843 0.693726
vt 0.525602 0.693726
vt 0.525602 0.653140
vn -1.0000 0.0000 0.0000
vn 0.0000 -0.0000 1.0000
vn 1.0000 -0.0000 0.0000
vn 0.0000 0.0000 -1.0000
vn 0.0000 -1.0000 0.0000
vn 0.0000 1.0000 0.0000
usemtl Color.034
s 1
f 9/15/7 10/16/7 11/17/7 12/18/7
f 10/16/8 13/19/8 14/20/8 11/17/8
f 13/19/9 15/21/9 16/22/9 14/20/9
f 15/21/10 9/23/10 12/24/10 16/22/10
f 10/25/11 9/26/11 15/21/11 13/19/11
f 14/20/12 16/22/12 12/27/12 11/28/12
o Cube.277_Cube.000
v 0.351816 0.383168 0.479645
v 0.351812 0.462554 1.218918
v 0.351812 0.929854 1.218918
v 0.351816 0.850468 0.479645
v 0.510939 0.462554 1.218918
v 0.510939 0.929854 1.218918
v 0.510939 0.462554 -0.259625
v 0.510939 0.462555 -0.998894
v 0.510939 0.929855 -0.998894
v 0.510939 0.929854 -0.259624
v 0.351812 0.462555 -0.998894
v 0.351812 0.929855 -0.998894
v 0.351812 0.462554 -0.259625
v 0.351812 0.929854 -0.259624
v 0.510942 0.850468 0.479645
v 0.510942 0.383168 0.479645
vt 0.139528 0.578142
vt 0.139528 0.591671
vt 0.180115 0.591671
vt 0.180115 0.578142
vt 0.139528 0.632257
vt 0.180115 0.632257
vt 0.139528 0.659315
vt 0.139528 0.672843
vt 0.180115 0.672843
vt 0.180115 0.659315
vt 0.139528 0.713430
vt 0.180115 0.713430
vt 0.098942 0.659315
vt 0.098942 0.672843
vt 0.220701 0.672843
vt 0.220701 0.659315
vt 0.180115 0.645786
vt 0.220701 0.645786
vt 0.220701 0.632257
vt 0.098942 0.632257
vt 0.098942 0.645786
vt 0.139528 0.645786
vt 0.139528 0.551084
vt 0.139528 0.564613
vt 0.180115 0.564613
vt 0.180115 0.551084
vn -1.0000 0.0000 0.0000
vn 0.0000 0.0000 1.0000
vn 1.0000 0.0000 -0.0000
vn 0.0000 0.0000 -1.0000
vn 0.0000 -1.0000 -0.0000
vn 0.0000 1.0000 0.0000
vn 0.0000 0.9943 -0.1068
vn 0.0000 0.9943 0.1068
vn 0.0000 -0.9943 0.1068
vn 0.0000 -0.9943 -0.1068
usemtl Color.034
s 1
f 17/29/13 18/30/13 19/31/13 20/32/13
f 18/30/14 21/33/14 22/34/14 19/31/14
f 23/35/15 24/36/15 25/37/15 26/38/15
f 24/36/16 27/39/16 28/40/16 25/37/16
f 29/41/17 27/42/17 24/36/17 23/35/17
f 26/38/18 25/37/18 28/43/18 30/44/18
f 22/34/19 31/45/19 20/46/19 19/47/19
f 31/45/20 26/38/20 30/44/20 20/46/20
f 18/48/21 17/49/21 32/50/21 21/33/21
f 17/49/22 29/41/22 23/35/22 32/50/22
f 21/33/15 32/50/15 31/45/15 22/34/15
f 32/50/15 23/35/15 26/38/15 31/45/15
f 27/51/13 29/52/13 30/53/13 28/54/13
f 29/52/13 17/29/13 20/32/13 30/53/13
o Cube.279_Cube.000
v 0.351812 1.678746 0.479649
v 0.351812 1.678746 1.218918
v 0.351812 2.146046 1.218918
v 0.351812 2.146046 0.479649
v 0.510939 1.678746 1.218918
v 0.510939 2.146046 1.218918
v 0.508516 1.685861 -0.259625
v 0.510939 1.678746 -0.998894
v 0.510939 2.146046 -0.998894
v 0.508516 2.138932 -0.259624
v 0.351812 1.678746 -0.998894
v 0.351812 2.146046 -0.998894
v 0.354235 1.685861 -0.259625
v 0.354235 2.138932 -0.259624
v 0.510939 2.146046 0.479649
v 0.510939 1.678746 0.479649
vt 0.139528 0.578142
vt 0.139528 0.591671
vt 0.180115 0.591671
vt 0.180115 0.578142
vt 0.139528 0.632257
vt 0.180115 0.632257
vt 0.139528 0.659315
vt 0.139528 0.672843
vt 0.180115 0.672843
vt 0.180115 0.659315
vt 0.139528 0.713430
vt 0.180115 0.713430
vt 0.098942 0.659315
vt 0.098942 0.672843
vt 0.220701 0.672843
vt 0.220701 0.659315
vt 0.180115 0.645786
vt 0.220701 0.645786
vt 0.220701 0.632257
vt 0.098942 0.632257
vt 0.098942 0.645786
vt 0.139528 0.645786
vt 0.139528 0.551084
vt 0.139528 0.564613
vt 0.180115 0.564613
vt 0.180115 0.551084
vn -1.0000 0.0000 -0.0016
vn -1.0000 0.0000 0.0000
vn 0.0000 0.0000 1.0000
vn 1.0000 0.0000 0.0000
vn 1.0000 0.0000 0.0033
vn 0.0000 0.0000 -1.0000
vn 0.0000 -1.0000 0.0096
vn 0.0000 1.0000 0.0096
vn 0.0000 1.0000 0.0000
vn 0.0000 1.0000 -0.0048
vn 0.0000 1.0000 -0.0096
vn 0.0000 -1.0000 -0.0000
vn 0.0000 -1.0000 -0.0048
vn 0.0000 -1.0000 -0.0096
vn 1.0000 -0.0000 -0.0016
vn -1.0000 -0.0000 0.0033
usemtl Color.034
s 1
f 33/55/23 34/56/24 35/57/24 36/58/23
f 34/56/25 37/59/25 38/60/25 35/57/25
f 39/61/26 40/62/27 41/63/27 42/64/26
f 40/62/28 43/65/28 44/66/28 41/63/28
f 45/67/29 43/68/29 40/62/29 39/61/29
f 42/64/30 41/63/30 44/69/30 46/70/30
f 38/60/31 47/71/32 36/72/32 35/73/31
f 47/71/32 42/64/33 46/70/33 36/72/32
f 34/74/34 33/75/35 48/76/35 37/59/34
f 33/75/35 45/67/36 39/61/36 48/76/35
f 37/59/26 48/76/37 47/71/37 38/60/26
f 48/76/37 39/61/26 42/64/26 47/71/37
f 43/77/38 45/78/24 46/79/24 44/80/38
f 45/78/24 33/55/23 36/58/23 46/79/24
o Cube.280_Cube.000
v 0.351816 2.824571 0.479645
v 0.351812 2.881274 1.218918
v 0.351812 3.348574 1.218918
v 0.351816 3.291871 0.479645
v 0.510939 2.881274 1.218918
v 0.510939 3.348574 1.218918
v 0.505295 2.897846 -0.259625
v 0.510939 2.881275 -0.998894
v 0.510939 3.348575 -0.998894
v 0.505295 3.332002 -0.259624
v 0.351812 2.881275 -0.998894
v 0.351812 3.348575 -0.998894
v 0.357456 2.897846 -0.259625
v 0.357456 3.332002 -0.259624
v 0.510942 3.291871 0.479645
v 0.510942 2.824571 0.479645
vt 0.139528 0.578142
vt 0.139528 0.591671
vt 0.180115 0.591671
vt 0.180115 0.578142
vt 0.139528 0.632257
vt 0.180115 0.632257
vt 0.139528 0.659315
vt 0.139528 0.672843
vt 0.180115 0.672843
vt 0.180115 0.659315
vt 0.139528 0.713430
vt 0.180115 0.713430
vt 0.098942 0.659315
vt 0.098942 0.672843
vt 0.220701 0.672843
vt 0.220701 0.659315
vt 0.180115 0.645786
vt 0.220701 0.645786
vt 0.220701 0.632257
vt 0.098942 0.632257
vt 0.098942 0.645786
vt 0.139528 0.645786
vt 0.139528 0.551084
vt 0.139528 0.564613
vt 0.180115 0.564613
vt 0.180115 0.551084
vn -1.0000 0.0000 -0.0038
vn -1.0000 0.0000 -0.0000
vn 0.0000 0.0000 1.0000
vn 1.0000 0.0000 0.0076
vn 0.0000 0.0000 -1.0000
vn 0.0000 -0.9997 0.0224
vn 0.0000 0.9997 0.0224
vn 0.0000 0.9971 -0.0765
vn 0.0000 0.9985 0.0542
vn 0.0000 -0.9971 0.0765
vn 0.0000 -0.9951 -0.0986
vn 1.0000 -0.0000 0.0000
vn 1.0000 0.0000 -0.0038
vn 1.0000 0.0000 -0.0076
vn -1.0000 -0.0000 0.0076
vn -1.0000 0.0000 -0.0076
usemtl Color.034
s 1
f 49/81/39 50/82/40 51/83/40 52/84/39
f 50/82/41 53/85/41 54/86/41 51/83/41
f 55/87/42 56/88/42 57/89/42 58/90/42
f 56/88/43 59/91/43 60/92/43 57/89/43
f 61/93/44 59/94/44 56/88/44 55/87/44
f 58/90/45 57/89/45 60/95/45 62/96/45
f 54/86/46 63/97/46 52/98/46 51/99/46
f 63/97/47 58/90/47 62/96/47 52/98/47
f 50/100/48 49/101/48 64/102/48 53/85/48
f 49/101/49 61/93/49 55/87/49 64/102/49
f 53/85/50 64/102/51 63/97/51 54/86/50
f 64/102/51 55/87/52 58/90/52 63/97/51
f 59/103/53 61/104/53 62/105/53 60/106/53
f 61/104/54 49/81/39 52/84/39 62/105/54
o Cube.281_Cube.000
v 0.351816 4.000677 0.479645
v 0.351812 4.057380 1.218918
v 0.351812 4.524679 1.218918
v 0.351816 4.467976 0.479645
v 0.510939 4.057380 1.218918
v 0.510939 4.524679 1.218918
v 0.510939 4.057380 -0.259625
v 0.500885 4.086903 -0.998894
v 0.500885 4.495155 -0.998894
v 0.510939 4.524679 -0.259624
v 0.361866 4.086903 -0.998894
v 0.361866 4.495155 -0.998894
v 0.351812 4.057380 -0.259625
v 0.351812 4.524679 -0.259624
v 0.510942 4.467976 0.479645
v 0.510942 4.000677 0.479645
vt 0.139528 0.578142
vt 0.139528 0.591671
vt 0.180115 0.591671
vt 0.180115 0.578142
vt 0.139528 0.632257
vt 0.180115 0.632257
vt 0.139528 0.659315
vt 0.139528 0.672843
vt 0.180115 0.672843
vt 0.180115 0.659315
vt 0.139528 0.713430
vt 0.180115 0.713430
vt 0.098942 0.659315
vt 0.098942 0.672843
vt 0.220701 0.672843
vt 0.220701 0.659315
vt 0.180115 0.645786
vt 0.220701 0.645786
vt 0.220701 0.632257
vt 0.098942 0.632257
vt 0.098942 0.645786
vt 0.139528 0.645786
vt 0.139528 0.551084
vt 0.139528 0.564613
vt 0.180115 0.564613
vt 0.180115 0.551084
vn -1.0000 0.0000 0.0000
vn 0.0000 0.0000 1.0000
vn 0.9999 0.0000 -0.0133
vn 0.9999 0.0000 -0.0136
vn 1.0000 0.0000 -0.0069
vn 0.0000 0.0000 -1.0000
vn 0.0000 -0.9992 -0.0399
vn 0.0000 0.9992 -0.0399
vn 0.0000 0.9971 -0.0765
vn 0.0000 0.9971 0.0765
vn 0.0000 -0.9971 0.0765
vn 0.0000 -0.9971 -0.0765
vn 1.0000 -0.0000 0.0000
vn -0.9999 -0.0000 -0.0136
vn -0.9999 0.0000 -0.0133
vn -1.0000 -0.0000 -0.0069
usemtl Color.034
s 1
f 65/107/55 66/108/55 67/109/55 68/110/55
f 66/108/56 69/111/56 70/112/56 67/109/56
f 71/113/57 72/114/58 73/115/58 74/116/59
f 72/114/60 75/117/60 76/118/60 73/115/60
f 77/119/61 75/120/61 72/114/61 71/113/61
f 74/116/62 73/115/62 76/121/62 78/122/62
f 70/112/63 79/123/63 68/124/63 67/125/63
f 79/123/64 74/116/64 78/122/64 68/124/64
f 66/126/65 65/127/65 80/128/65 69/111/65
f 65/127/66 77/119/66 71/113/66 80/128/66
f 69/111/67 80/128/67 79/123/67 70/112/67
f 80/128/67 71/113/57 74/116/59 79/123/67
f 75/129/68 77/130/69 78/131/70 76/132/68
f 77/130/69 65/107/55 68/110/55 78/131/70
o Cube.282_Cube.000
v 0.351816 5.307694 0.479645
v 0.351812 5.273669 1.218918
v 0.351812 5.740969 1.218918
v 0.351816 5.774995 0.479645
v 0.510939 5.273669 1.218918
v 0.510939 5.740969 1.218918
v 0.496962 5.223999 -0.259625
v 0.510939 5.273669 -0.998894
v 0.510939 5.740969 -0.998894
v 0.496962 5.609191 -0.259624
v 0.351812 5.273669 -0.998894
v 0.351812 5.740969 -0.998894
v 0.365797 5.223999 -0.259625
v 0.365797 5.609191 -0.259624
v 0.510942 5.774995 0.479645
v 0.510942 5.307694 0.479645
vt 0.139528 0.578142
vt 0.139528 0.591671
vt 0.180115 0.591671
vt 0.180115 0.578142
vt 0.139528 0.632257
vt 0.180115 0.632257
vt 0.139528 0.659315
vt 0.139528 0.672843
vt 0.180115 0.672843
vt 0.180115 0.659315
vt 0.139528 0.713430
vt 0.180115 0.713430
vt 0.098942 0.659315
vt 0.098942 0.672843
vt 0.220701 0.672843
vt 0.220701 0.659315
vt 0.180115 0.645786
vt 0.220701 0.645786
vt 0.220701 0.632257
vt 0.098942 0.632257
vt 0.098942 0.645786
vt 0.139528 0.645786
vt 0.139528 0.551084
vt 0.139528 0.564613
vt 0.180115 0.564613
vt 0.180115 0.551084
vn -1.0000 0.0000 -0.0000
vn 0.0000 0.0000 1.0000
vn 0.9998 0.0000 0.0189
vn 0.0000 0.0000 -1.0000
vn 0.0000 -0.9978 -0.0670
vn 0.0000 0.9845 0.1755
vn 0.0000 0.9989 0.0460
vn 0.0000 0.9758 -0.2188
vn 0.0000 -0.9989 -0.0460
vn 0.0000 -0.9937 0.1125
vn 1.0000 -0.0000 0.0000
vn 0.9998 0.0000 -0.0189
vn -0.9998 -0.0000 0.0189
vn -0.9998 0.0000 -0.0189
usemtl Color.034
s 1
f 81/133/71 82/134/71 83/135/71 84/136/71
f 82/134/72 85/137/72 86/138/72 83/135/72
f 87/139/73 88/140/73 89/141/73 90/142/73
f 88/140/74 91/143/74 92/144/74 89/141/74
f 93/145/75 91/146/75 88/140/75 87/139/75
f 90/142/76 89/141/76 92/147/76 94/148/76
f 86/138/77 95/149/77 84/150/77 83/151/77
f 95/149/78 90/142/78 94/148/78 84/150/78
f 82/152/79 81/153/79 96/154/79 85/137/79
f 81/153/80 93/145/80 87/139/80 96/154/80
f 85/137/81 96/154/81 95/149/81 86/138/81
f 96/154/82 87/139/82 90/142/82 95/149/82
f 91/155/83 93/156/83 94/157/83 92/158/83
f 93/156/84 81/133/84 84/136/84 94/157/84
o Cube.283_Cube.000
v 0.364460 6.594372 0.479649
v 0.351812 6.557231 1.218918
v 0.351812 7.024530 1.218918
v 0.364460 6.987389 0.479649
v 0.510939 6.557231 1.218918
v 0.510939 7.024530 1.218918
v 0.510942 6.534553 -0.259621
v 0.510939 6.557231 -0.998894
v 0.510939 7.024530 -0.998894
v 0.510942 7.001852 -0.259621
v 0.351812 6.557231 -0.998894
v 0.351812 7.024530 -0.998894
v 0.351816 6.534553 -0.259621
v 0.351816 7.001852 -0.259621
v 0.498291 6.987389 0.479649
v 0.498291 6.594372 0.479649
vt 0.139528 0.578142
vt 0.139528 0.591671
vt 0.180115 0.591671
vt 0.180115 0.578142
vt 0.139528 0.632257
vt 0.180115 0.632257
vt 0.139528 0.659315
vt 0.139528 0.672843
vt 0.180115 0.672843
vt 0.180115 0.659315
vt 0.139528 0.713430
vt 0.180115 0.713430
vt 0.098942 0.659315
vt 0.098942 0.672843
vt 0.220701 0.672843
vt 0.220701 0.659315
vt 0.180115 0.645786
vt 0.220701 0.645786
vt 0.220701 0.632257
vt 0.098942 0.632257
vt 0.098942 0.645786
vt 0.139528 0.645786
vt 0.139528 0.551084
vt 0.139528 0.564613
vt 0.180115 0.564613
vt 0.180115 0.551084
vn -0.9999 0.0000 -0.0171
vn 0.0000 0.0000 1.0000
vn 1.0000 0.0000 -0.0000
vn 0.0000 0.0000 -1.0000
vn 0.0000 -0.9995 -0.0307
vn 0.0000 0.9997 0.0251
vn 0.0000 0.9995 0.0307
vn 0.0000 0.9987 -0.0502
vn 0.0000 0.9998 0.0196
vn 0.0000 -0.9987 -0.0502
vn 0.0000 -0.9967 0.0807
vn 0.9999 -0.0000 -0.0171
vn 0.9999 0.0000 0.0171
vn -1.0000 -0.0000 0.0000
vn -0.9999 0.0000 0.0171
usemtl Color.034
s 1
f 97/159/85 98/160/85 99/161/85 100/162/85
f 98/160/86 101/163/86 102/164/86 99/161/86
f 103/165/87 104/166/87 105/167/87 106/168/87
f 104/166/88 107/169/88 108/170/88 105/167/88
f 109/171/89 107/172/89 104/166/89 103/165/89
f 106/168/90 105/167/91 108/173/91 110/174/90
f 102/164/92 111/175/92 100/176/92 99/177/92
f 111/175/93 106/168/90 110/174/90 100/176/93
f 98/178/94 97/179/94 112/180/94 101/163/94
f 97/179/95 109/171/95 103/165/95 112/180/95
f 101/163/96 112/180/96 111/175/96 102/164/96
f 112/180/97 103/165/97 106/168/97 111/175/97
f 107/181/98 109/182/98 110/183/98 108/184/98
f 109/182/99 97/159/99 100/162/99 110/183/99
o Cube.284_Cube.000
v 0.351816 7.638798 0.479645
v 0.351812 7.706839 1.218918
v 0.351812 8.174138 1.218918
v 0.351816 8.106097 0.479645
v 0.510939 7.706839 1.218918
v 0.510939 8.174138 1.218918
v 0.510939 7.706839 -0.259625
v 0.510939 7.706839 -0.998894
v 0.510939 8.174139 -0.998894
v 0.510939 8.174139 -0.259624
v 0.351812 7.706839 -0.998894
v 0.351812 8.174139 -0.998894
v 0.351812 7.706839 -0.259625
v 0.351812 8.174139 -0.259624
v 0.510942 8.106097 0.479645
v 0.510942 7.638798 0.479645
vt 0.139528 0.578142
vt 0.139528 0.591671
vt 0.180115 0.591671
vt 0.180115 0.578142
vt 0.139528 0.632257
vt 0.180115 0.632257
vt 0.139528 0.659315
vt 0.139528 0.672843
vt 0.180115 0.672843
vt 0.180115 0.659315
vt 0.139528 0.713430
vt 0.180115 0.713430
vt 0.098942 0.659315
vt 0.098942 0.672843
vt 0.220701 0.672843
vt 0.220701 0.659315
vt 0.180115 0.645786
vt 0.220701 0.645786
vt 0.220701 0.632257
vt 0.098942 0.632257
vt 0.098942 0.645786
vt 0.139528 0.645786
vt 0.139528 0.551084
vt 0.139528 0.564613
vt 0.180115 0.564613
vt 0.180115 0.551084
vn -1.0000 0.0000 0.0000
vn 0.0000 0.0000 1.0000
vn 1.0000 0.0000 -0.0000
vn 0.0000 0.0000 -1.0000
vn 0.0000 -1.0000 0.0000
vn 0.0000 1.0000 0.0000
vn 0.0000 0.9958 -0.0916
vn 0.0000 0.9958 0.0917
vn 0.0000 -0.9958 0.0916
vn 0.0000 -0.9958 -0.0916
usemtl Color.034
s 1
f 113/185/100 114/186/100 115/187/100 116/188/100
f 114/186/101 117/189/101 118/190/101 115/187/101
f 119/191/102 120/192/102 121/193/102 122/194/102
f 120/192/103 123/195/103 124/196/103 121/193/103
f 125/197/104 123/198/104 120/192/104 119/191/104
f 122/194/105 121/193/105 124/199/105 126/200/105
f 118/190/106 127/201/106 116/202/106 115/203/106
f 127/201/107 122/194/107 126/200/107 116/202/107
f 114/204/108 113/205/108 128/206/108 117/189/108
f 113/205/109 125/197/109 119/191/109 128/206/109
f 117/189/102 128/206/102 127/201/102 118/190/102
f 128/206/102 119/191/102 122/194/102 127/201/102
f 123/207/100 125/208/100 126/209/100 124/210/100
f 125/208/100 113/185/100 116/188/100 126/209/100
o Cube.285_Cube.000
v 0.351812 8.816951 0.479649
v 0.351812 8.816951 1.218918
v 0.351812 9.284251 1.218918
v 0.351812 9.284251 0.479649
v 0.510939 8.816951 1.218918
v 0.510939 9.284251 1.218918
v 0.510942 8.737569 -0.259621
v 0.510939 8.816951 -0.998894
v 0.510939 9.284251 -0.998894
v 0.510942 9.204869 -0.259621
v 0.351812 8.816951 -0.998894
v 0.351812 9.284251 -0.998894
v 0.351816 8.737569 -0.259621
v 0.351816 9.204869 -0.259621
v 0.510939 9.284251 0.479649
v 0.510939 8.816951 0.479649
vt 0.139528 0.578142
vt 0.139528 0.591671
vt 0.180115 0.591671
vt 0.180115 0.578142
vt 0.139528 0.632257
vt 0.180115 0.632257
vt 0.139528 0.659315
vt 0.139528 0.672843
vt 0.180115 0.672843
vt 0.180115 0.659315
vt 0.139528 0.713430
vt 0.180115 0.713430
vt 0.098942 0.659315
vt 0.098942 0.672843
vt 0.220701 0.672843
vt 0.220701 0.659315
vt 0.180115 0.645786
vt 0.220701 0.645786
vt 0.220701 0.632257
vt 0.098942 0.632257
vt 0.098942 0.645786
vt 0.139528 0.645786
vt 0.139528 0.551084
vt 0.139528 0.564613
vt 0.180115 0.564613
vt 0.180115 0.551084
vn -1.0000 0.0000 -0.0000
vn 0.0000 0.0000 1.0000
vn 1.0000 -0.0000 0.0000
vn 0.0000 0.0000 -1.0000
vn 0.0000 -0.9943 -0.1068
vn 0.0000 0.9943 0.1068
vn 0.0000 1.0000 0.0000
vn 0.0000 0.9943 -0.1068
vn 0.0000 -1.0000 0.0000
vn 0.0000 -0.9943 0.1068
usemtl Color.034
s 1
f 129/211/110 130/212/110 131/213/110 132/214/110
f 130/212/111 133/215/111 134/216/111 131/213/111
f 135/217/112 136/218/112 137/219/112 138/220/112
f 136/218/113 139/221/113 140/222/113 137/219/113
f 141/223/114 139/224/114 136/218/114 135/217/114
f 138/220/115 137/219/115 140/225/115 142/226/115
f 134/216/116 143/227/116 132/228/116 131/229/116
f 143/227/117 138/220/117 142/226/117 132/228/117
f 130/230/118 129/231/118 144/232/118 133/215/118
f 129/231/119 141/223/119 135/217/119 144/232/119
f 133/215/112 144/232/112 143/227/112 134/216/112
f 144/232/112 135/217/112 138/220/112 143/227/112
f 139/233/110 141/234/110 142/235/110 140/236/110
f 141/234/110 129/211/110 132/214/110 142/235/110
