# Blender v2.80 (sub 35) OBJ File: ''
# www.blender.org
mtllib wooden_fence_1.mtl
o Fence_01.004_Cube.019
v -0.045849 2.932427 1.790959
v -0.071350 4.356368 1.704193
v 0.238188 4.356312 1.704197
v 0.218712 2.932427 1.790959
v -0.045849 2.932427 2.239445
v -0.071335 4.355592 2.228932
v -0.035122 -0.096389 1.760093
v 0.201199 -0.096389 1.760093
v 0.201199 -0.096389 2.160705
v -0.035122 -0.096389 2.160705
v 0.181585 4.536729 1.793339
v -0.015509 4.536729 1.793339
v -0.015509 4.536729 2.127461
v 0.181585 4.536729 2.127461
v 0.218712 2.932427 2.239445
v 0.238176 4.355505 2.228935
v -0.032516 1.436933 1.700191
v 0.227623 1.436933 1.700191
v 0.227623 1.436933 2.141186
v -0.032516 1.436933 2.141186
v 0.014412 3.228068 -1.730696
v 0.014412 3.526451 -1.730696
v 0.010687 3.342074 -3.018196
v 0.010687 3.075439 -3.018196
v 0.155390 3.342074 -3.018196
v 0.155390 3.075439 -3.018196
v 0.151665 3.141841 0.591549
v 0.151665 3.440224 0.591549
v 0.155390 3.342073 1.878445
v 0.155390 3.075438 1.878445
v 0.010687 3.342073 1.878445
v 0.010687 3.075438 1.878445
v 0.014412 3.141841 0.591549
v 0.014412 3.440224 0.591549
v 0.151665 3.526451 -1.730696
v 0.014412 3.339833 -0.569572
v 0.151665 3.339833 -0.569572
v 0.151665 3.228068 -1.730696
v 0.151665 3.041450 -0.569572
v 0.014412 3.041450 -0.569572
v 0.028316 1.295250 -1.332680
v 0.028316 1.587498 -1.332680
v 0.025345 1.623076 -3.012764
v 0.025345 1.361924 -3.012764
v 0.140732 1.623076 -3.012764
v 0.140732 1.361924 -3.012764
v 0.137760 1.142380 0.221306
v 0.137760 1.434628 0.221306
v 0.140732 1.623075 1.902294
v 0.140732 1.361923 1.902294
v 0.025345 1.549874 1.902294
v 0.025345 1.361923 1.902294
v 0.028316 1.142380 0.221306
v 0.028316 1.434628 0.221306
v 0.137760 1.587498 -1.332680
v 0.137760 1.295250 -1.332680
v 0.060921 1.584867 1.873985
v 0.060921 1.856073 1.873985
v 0.060921 3.117095 -3.005575
v 0.060921 2.845889 -3.005575
v 0.137760 3.117095 -3.005575
v 0.137760 2.845889 -3.005575
v 0.137760 1.856073 1.873985
v 0.137760 1.584867 1.873985
vt 0.482161 0.639503
vt 0.488288 0.639503
vt 0.488288 0.660212
vt 0.482161 0.660212
vt 0.461452 0.639503
vt 0.467575 0.639503
vt 0.467579 0.660212
vt 0.461452 0.660212
vt 0.447645 0.660212
vt 0.468355 0.660212
vt 0.468355 0.680922
vt 0.447645 0.680922
vt 0.448304 0.598742
vt 0.467696 0.598742
vt 0.467696 0.618135
vt 0.448304 0.618135
vt 0.461452 0.618793
vt 0.467575 0.618793
vt 0.468355 0.639503
vt 0.475258 0.639503
vt 0.475258 0.660212
vt 0.426936 0.639503
vt 0.433839 0.639503
vt 0.433839 0.660212
vt 0.426936 0.660212
vt 0.440742 0.639503
vt 0.440742 0.660212
vt 0.447645 0.639503
vt 0.454548 0.639503
vt 0.454548 0.660212
vt 0.447645 0.618793
vt 0.454548 0.618793
vt 0.447645 0.613616
vt 0.468355 0.613616
vt 0.468355 0.618793
vt 0.447645 0.618793
vt 0.468355 0.639503
vt 0.447645 0.639503
vt 0.447645 0.655035
vt 0.468355 0.655035
vt 0.468355 0.660212
vt 0.447645 0.660212
vt 0.468355 0.680922
vt 0.447645 0.680922
vt 0.426936 0.655035
vt 0.426936 0.660212
vt 0.489064 0.655035
vt 0.489064 0.660212
vt 0.489064 0.639503
vt 0.489064 0.644680
vt 0.468355 0.644680
vt 0.489064 0.649858
vt 0.468355 0.649858
vt 0.426936 0.639503
vt 0.447645 0.644680
vt 0.426936 0.644680
vt 0.447645 0.649858
vt 0.426936 0.649858
vt 0.447645 0.598084
vt 0.468355 0.598084
vt 0.468355 0.603261
vt 0.447645 0.603261
vt 0.468355 0.608438
vt 0.447645 0.608438
vt 0.447645 0.611890
vt 0.468355 0.611890
vt 0.468355 0.618793
vt 0.447645 0.618793
vt 0.468355 0.639503
vt 0.447645 0.639503
vt 0.447645 0.653309
vt 0.468355 0.653309
vt 0.468355 0.660212
vt 0.447645 0.660212
vt 0.468355 0.680922
vt 0.447645 0.680922
vt 0.426936 0.653309
vt 0.426936 0.660212
vt 0.489064 0.653309
vt 0.489064 0.660212
vt 0.489064 0.639503
vt 0.489064 0.646406
vt 0.468355 0.646406
vt 0.426936 0.639503
vt 0.447645 0.646406
vt 0.426936 0.646406
vt 0.447645 0.598084
vt 0.468355 0.598084
vt 0.468355 0.604987
vt 0.447645 0.604987
vt 0.468142 0.618793
vt 0.447808 0.618793
vt 0.447645 0.618793
vt 0.447645 0.598510
vt 0.468355 0.598509
vt 0.468355 0.618793
vt 0.447807 0.598084
vt 0.468143 0.598084
vt 0.446869 0.639503
vt 0.446865 0.660212
vt 0.447645 0.598084
vt 0.468355 0.598084
vt 0.468355 0.618793
vt 0.447645 0.618793
vt 0.468355 0.639503
vt 0.447645 0.639503
vt 0.468355 0.660212
vt 0.447645 0.660212
vt 0.468355 0.680922
vt 0.447645 0.680922
vt 0.426936 0.639503
vt 0.426936 0.660212
vt 0.489064 0.639503
vt 0.489064 0.660212
vn 0.0000 -0.0608 -0.9981
vn -0.9999 -0.0135 0.0000
vn -0.9998 -0.0179 0.0000
vn -0.9999 -0.0134 0.0000
vn 0.0000 -1.0000 0.0000
vn 0.0000 1.0000 0.0000
vn -0.0000 0.0074 1.0000
vn 0.0000 -0.0390 -0.9992
vn 0.0000 0.0606 -0.9982
vn 0.9999 -0.0172 -0.0000
vn 1.0000 0.0060 0.0000
vn -1.0000 0.0017 0.0000
vn -1.0000 -0.0037 0.0000
vn -1.0000 -0.0036 0.0000
vn 0.0000 0.0127 0.9999
vn 0.0000 -0.0656 0.9978
vn -1.0000 0.0000 0.0014
vn -1.0000 0.0000 0.0015
vn -1.0000 0.0000 0.0029
vn 0.0000 0.0000 -1.0000
vn 1.0000 0.0000 -0.0014
vn 1.0000 0.0000 -0.0015
vn 1.0000 0.0000 -0.0029
vn 0.0000 0.0000 1.0000
vn 0.0000 -0.9987 -0.0515
vn 0.0000 0.9971 0.0760
vn 0.0000 0.9899 -0.1418
vn 0.0000 0.9873 0.1587
vn 0.0000 0.9963 -0.0861
vn 0.0000 -0.9930 0.1177
vn 0.0000 -0.9873 -0.1587
vn 0.0000 -0.9963 0.0861
vn 1.0000 0.0000 0.0029
vn 1.0000 0.0000 0.0015
vn 1.0000 0.0000 0.0014
vn 1.0000 0.0000 0.0000
vn -1.0000 0.0000 -0.0029
vn -1.0000 0.0000 -0.0015
vn -1.0000 0.0000 -0.0014
vn -1.0000 0.0000 0.0000
vn -1.0000 0.0000 0.0008
vn -1.0000 0.0000 0.0009
vn -1.0000 0.0000 0.0018
vn 1.0000 0.0000 -0.0009
vn 1.0000 0.0000 -0.0018
vn 0.0000 -0.9916 0.1295
vn -0.3085 0.9474 -0.0856
vn 0.0000 0.9998 0.0212
vn 0.0000 0.9952 0.0979
vn 0.0000 -0.9992 -0.0397
vn 0.0000 -0.9952 -0.0979
vn 1.0000 0.0000 0.0018
vn 1.0000 -0.0000 0.0009
vn 1.0000 -0.0000 0.0008
vn -1.0000 -0.0000 -0.0018
vn -1.0000 0.0000 -0.0009
vn 0.0001 0.4886 0.8725
vn 0.9543 0.2987 0.0003
vn -0.9555 0.2952 0.0003
vn 0.0001 0.4430 -0.8965
vn 0.9999 -0.0137 0.0000
vn 0.0000 -0.9682 -0.2502
vn 0.0000 0.9682 0.2502
usemtl Color.036
s 1
f 1/1/1 2/2/1 3/3/1 4/4/1
f 5/5/2 6/6/3 2/7/3 1/8/4
f 7/9/5 8/10/5 9/11/5 10/12/5
f 11/13/6 12/14/6 13/15/6 14/16/6
f 15/17/7 16/18/7 6/6/7 5/5/7
f 7/19/8 17/20/8 18/21/8 8/10/8
f 17/20/9 1/1/9 4/4/9 18/21/9
f 8/22/10 18/23/10 19/24/10 9/25/10
f 18/23/11 4/26/11 15/27/11 19/24/11
f 10/28/12 20/29/13 17/30/14 7/9/12
f 20/29/13 5/5/2 1/8/4 17/30/14
f 9/31/15 19/32/15 20/29/15 10/28/15
f 19/32/16 15/17/16 5/5/16 20/29/16
f 21/33/17 22/34/18 23/35/19 24/36/19
f 24/36/20 23/35/20 25/37/20 26/38/20
f 27/39/21 28/40/22 29/41/23 30/42/23
f 30/42/24 29/41/24 31/43/24 32/44/24
f 33/45/25 27/39/25 30/42/25 32/46/25
f 28/40/26 34/47/26 31/48/26 29/41/26
f 25/37/27 23/49/27 22/50/27 35/51/27
f 35/51/28 22/50/28 36/52/28 37/53/28
f 37/53/29 36/52/29 34/47/29 28/40/29
f 24/54/30 26/38/30 38/55/30 21/56/30
f 21/56/31 38/55/31 39/57/31 40/58/31
f 40/58/32 39/57/32 27/39/32 33/45/32
f 26/38/33 25/37/33 35/51/34 38/55/35
f 38/55/35 35/51/34 37/53/36 39/57/36
f 39/57/36 37/53/36 28/40/22 27/39/21
f 32/59/37 31/60/37 34/61/38 33/62/39
f 33/62/39 34/61/38 36/63/40 40/64/40
f 40/64/40 36/63/40 22/34/18 21/33/17
f 41/65/41 42/66/42 43/67/43 44/68/43
f 44/68/20 43/67/20 45/69/20 46/70/20
f 47/71/44 48/72/44 49/73/45 50/74/45
f 50/74/24 49/73/24 51/75/24 52/76/24
f 53/77/46 47/71/46 50/74/46 52/78/46
f 48/72/47 54/79/47 51/80/47 49/73/47
f 45/69/48 43/81/48 42/82/48 55/83/48
f 55/83/49 42/82/49 54/79/49 48/72/49
f 44/84/50 46/70/50 56/85/50 41/86/50
f 41/86/51 56/85/51 47/71/51 53/77/51
f 46/70/52 45/69/52 55/83/53 56/85/54
f 56/85/54 55/83/53 48/72/44 47/71/44
f 52/87/55 51/88/55 54/89/56 53/90/56
f 53/90/56 54/89/56 42/66/42 41/65/41
f 14/16/57 13/15/57 6/91/57 16/92/57
f 11/13/58 14/16/58 16/93/58 3/94/58
f 13/15/59 12/14/59 2/95/59 6/96/59
f 12/14/60 11/13/60 3/97/60 2/98/60
f 4/26/61 3/99/61 16/100/61 15/27/61
f 57/101/40 58/102/40 59/103/40 60/104/40
f 60/104/20 59/103/20 61/105/20 62/106/20
f 62/106/36 61/105/36 63/107/36 64/108/36
f 64/108/24 63/107/24 58/109/24 57/110/24
f 60/111/62 62/106/62 64/108/62 57/112/62
f 61/105/63 59/113/63 58/114/63 63/107/63
