# Blender v2.80 (sub 35) OBJ File: ''
# www.blender.org
mtllib wooden_sign_1.mtl
o Cube.206_Cube.215
v -0.727184 3.890091 0.257608
v -0.727184 3.890091 0.588891
v -0.758970 3.890104 0.628171
v -0.758970 3.890104 0.218328
v -0.610821 4.089118 0.588891
v -0.727184 4.089118 0.588891
v -0.758968 4.089128 0.628172
v -0.579035 4.089107 0.628172
v -0.727184 4.089118 0.257608
v -0.758968 4.089128 0.218327
v -0.610821 3.890091 0.588891
v -0.579035 3.890080 0.628172
v -0.727179 -0.461082 0.257608
v -0.610815 -0.461082 0.257608
v -0.610815 -0.461082 0.588891
v -0.727179 -0.461082 0.588891
v -0.603025 2.169134 1.797871
v -0.603025 2.169135 -0.951372
v -0.603031 3.719010 -0.951361
v -0.603031 3.719009 1.797860
v -0.734980 2.169134 1.797871
v -0.734980 2.169135 -0.951372
v -0.734982 3.719010 -0.951368
v -0.734985 3.719009 1.797860
v -0.610821 4.089118 0.257608
v -0.610821 3.890091 0.257608
v -0.579035 4.089107 0.218328
v -0.579035 3.890080 0.218327
vt 0.232524 0.609545
vt 0.232524 0.593793
vt 0.232524 0.593793
vt 0.232524 0.609545
vt 0.233213 0.641047
vt 0.233213 0.656799
vt 0.233213 0.656799
vt 0.233213 0.641047
vt 0.233213 0.609545
vt 0.233213 0.609545
vt 0.232524 0.656799
vt 0.232524 0.641047
vt 0.232524 0.641047
vt 0.232524 0.656799
vt 0.201710 0.625296
vt 0.217462 0.625296
vt 0.217462 0.641047
vt 0.201710 0.641047
vt 0.233213 0.641047
vt 0.233213 0.625296
vt 0.233213 0.625296
vt 0.233213 0.641047
vt 0.233213 0.656799
vt 0.233213 0.609545
vt 0.248964 0.625296
vt 0.248964 0.641047
vt 0.233213 0.593793
vt 0.233213 0.593793
vt 0.233213 0.609545
vt 0.233213 0.656799
vt 0.233213 0.625296
vt 0.217462 0.656799
vt 0.232524 0.625296
vt 0.217462 0.609545
vt 0.217462 0.593793
vt 0.233213 0.593793
vt 0.233213 0.625296
vt 0.232524 0.625296
vn -0.0002 -1.0000 -0.0000
vn 0.0002 1.0000 -0.0000
vn 0.0000 -1.0000 0.0000
vn 1.0000 0.0000 0.0000
vn -0.0000 1.0000 0.0000
vn -1.0000 -0.0000 -0.0000
vn 0.0000 0.0000 1.0000
vn 0.0000 0.0000 -1.0000
usemtl Color.044
s 1
f 1/1/1 2/2/1 3/3/1 4/4/1
f 5/5/2 6/6/2 7/7/2 8/8/2
f 6/6/2 9/9/2 10/10/2 7/7/2
f 2/11/1 11/12/1 12/13/1 3/14/1
f 13/15/3 14/16/3 15/17/3 16/18/3
f 17/19/4 18/20/4 19/21/4 20/22/4
f 21/23/3 22/24/3 18/20/3 17/19/3
f 19/21/5 23/25/5 24/26/5 20/22/5
f 22/24/6 21/27/6 24/28/6 23/29/6
f 21/23/7 17/19/7 20/22/7 24/30/7
f 18/20/8 22/24/8 23/29/8 19/21/8
f 6/6/2 5/5/2 25/31/2 9/9/2
f 15/17/7 11/12/7 2/11/7 16/32/7
f 14/16/4 26/33/4 11/12/4 15/17/4
f 13/34/8 1/1/8 26/33/8 14/16/8
f 16/35/6 2/2/6 1/1/6 13/34/6
f 3/3/6 7/36/6 10/10/6 4/4/6
f 4/4/8 10/10/8 27/37/8 28/38/8
f 28/38/4 27/37/4 8/8/4 12/13/4
f 12/13/7 8/8/7 7/7/7 3/14/7
f 11/12/1 26/33/1 28/38/1 12/13/1
f 9/9/2 25/31/2 27/37/2 10/10/2
f 26/33/1 1/1/1 4/4/1 28/38/1
f 25/31/2 5/5/2 8/8/2 27/37/2
