# Blender v2.80 (sub 35) OBJ File: ''
# www.blender.org
mtllib wooden_large_box.mtl
o Cube.515_Cube.521
v 0.948226 -0.208625 1.632784
v 0.948226 -0.208624 -1.342280
v 0.835826 -0.208624 -1.342280
v 0.835826 -0.208625 1.632784
v -2.291629 2.765945 1.898069
v -2.291629 -0.208131 1.898069
v -2.291629 -0.208131 1.785669
v -2.291629 2.765945 1.785669
v 0.948226 2.766440 -1.342280
v 0.835826 2.766440 -1.342280
v -2.297566 3.031724 1.638227
v 0.688384 3.031724 1.638227
v 0.688384 2.919324 1.638227
v -2.297566 2.919324 1.638227
v -2.557408 2.766133 -1.341972
v -2.557408 -0.208317 -1.341972
v -2.445008 -0.208317 -1.341972
v -2.445008 2.766133 -1.341972
v 0.948226 -0.473909 -1.607564
v 0.948226 3.031725 -1.607564
v 0.948226 -0.473910 1.898069
v 0.948226 2.766439 1.632784
v 0.948226 3.031724 1.898069
v -2.557408 3.031724 1.898069
v -2.557408 -0.473910 1.898069
v 0.682446 2.765945 1.898069
v 0.682446 -0.208131 1.898069
v -2.292686 2.767003 -1.607564
v -2.292686 -0.209187 -1.607564
v -2.557408 -0.473909 -1.607564
v -2.557408 3.031725 -1.607564
v 0.683503 -0.209187 -1.607564
v 0.683503 2.767003 -1.607564
v -2.557408 -0.208318 1.632477
v -2.557408 2.766132 1.632477
v -2.297566 3.031725 -1.347723
v 0.688384 3.031725 -1.347723
v -2.445008 -0.208318 1.632477
v -2.445008 2.766132 1.632477
v -2.292686 -0.209187 -1.495165
v -2.292686 2.767003 -1.495165
v 0.683503 2.767003 -1.495165
v 0.683503 -0.209187 -1.495165
v 0.835826 2.766439 1.632784
v 0.682446 -0.208131 1.785669
v 0.682446 2.765945 1.785669
v 0.688384 2.919325 -1.347723
v -2.297566 2.919325 -1.347723
vt 0.139992 0.658055
vt 0.139992 0.640760
vt 0.139992 0.640760
vt 0.139992 0.658055
vt 0.157284 0.678433
vt 0.139995 0.678433
vt 0.139995 0.678433
vt 0.157284 0.678433
vt 0.157287 0.640760
vt 0.157287 0.640760
vt 0.177699 0.658087
vt 0.160340 0.658087
vt 0.160340 0.658087
vt 0.177699 0.658087
vt 0.157285 0.617294
vt 0.139993 0.617294
vt 0.139993 0.617294
vt 0.157285 0.617294
vt 0.138449 0.639218
vt 0.158829 0.639218
vt 0.138449 0.659598
vt 0.157287 0.658055
vt 0.158829 0.659598
vt 0.158829 0.679978
vt 0.138449 0.679978
vt 0.157284 0.661143
vt 0.139995 0.661143
vt 0.157290 0.620377
vt 0.139988 0.620377
vt 0.138449 0.618838
vt 0.158829 0.618838
vt 0.139988 0.637679
vt 0.157290 0.637679
vt 0.139993 0.600002
vt 0.138449 0.598458
vt 0.157285 0.600002
vt 0.158829 0.598458
vt 0.177699 0.640728
vt 0.179209 0.639218
vt 0.179209 0.659598
vt 0.160340 0.640728
vt 0.139993 0.600002
vt 0.157285 0.600002
vt 0.139988 0.620377
vt 0.157290 0.620377
vt 0.157290 0.637679
vt 0.139988 0.637679
vt 0.157287 0.658055
vt 0.139995 0.661143
vt 0.157284 0.661143
vt 0.160340 0.640728
vt 0.177699 0.640728
vn 0.0000 1.0000 0.0000
vn 1.0000 -0.0000 0.0000
vn 0.0000 -0.0000 1.0000
vn 0.0000 0.0000 -1.0000
vn -1.0000 0.0000 0.0000
vn 0.0000 -1.0000 -0.0000
usemtl Color.042
s 1
f 1/1/1 2/2/1 3/3/1 4/4/1
f 5/5/2 6/6/2 7/7/2 8/8/2
f 2/2/3 9/9/3 10/10/3 3/3/3
f 11/11/4 12/12/4 13/13/4 14/14/4
f 15/15/3 16/16/3 17/17/3 18/18/3
f 9/9/2 2/2/2 19/19/2 20/20/2
f 2/2/2 1/1/2 21/21/2 19/19/2
f 22/22/2 9/9/2 20/20/2 23/23/2
f 1/1/2 22/22/2 23/23/2 21/21/2
f 6/6/3 5/5/3 24/24/3 25/25/3
f 26/26/3 27/27/3 21/21/3 23/23/3
f 27/27/3 6/6/3 25/25/3 21/21/3
f 5/5/3 26/26/3 23/23/3 24/24/3
f 28/28/4 29/29/4 30/30/4 31/31/4
f 29/29/4 32/32/4 19/19/4 30/30/4
f 33/33/4 28/28/4 31/31/4 20/20/4
f 32/32/4 33/33/4 20/20/4 19/19/4
f 34/34/5 16/16/5 30/30/5 25/35/5
f 35/36/5 34/34/5 25/35/5 24/37/5
f 15/15/5 35/36/5 24/37/5 31/31/5
f 16/16/5 15/15/5 31/31/5 30/30/5
f 11/11/1 36/38/1 31/39/1 24/40/1
f 36/38/1 37/41/1 20/20/1 31/39/1
f 37/41/1 12/12/1 23/23/1 20/20/1
f 12/12/1 11/11/1 24/40/1 23/23/1
f 38/42/5 39/43/5 18/18/5 17/17/5
f 40/44/4 41/45/4 42/46/4 43/47/4
f 3/3/2 10/10/2 44/48/2 4/4/2
f 45/49/3 46/50/3 8/8/3 7/7/3
f 47/51/1 48/52/1 14/14/1 13/13/1
f 29/29/2 28/28/2 41/45/2 40/44/2
f 27/27/5 26/26/5 46/50/5 45/49/5
f 16/16/1 34/34/1 38/42/1 17/17/1
f 9/9/6 22/22/6 44/48/6 10/10/6
f 32/32/1 29/29/1 40/44/1 43/47/1
f 36/38/2 11/11/2 14/14/2 48/52/2
f 6/6/1 27/27/1 45/49/1 7/7/1
f 34/34/4 35/36/4 39/43/4 38/42/4
f 22/22/4 1/1/4 4/4/4 44/48/4
f 28/28/6 33/33/6 42/46/6 41/45/6
f 37/41/3 36/38/3 48/52/3 47/51/3
f 26/26/6 5/5/6 8/8/6 46/50/6
f 35/36/6 15/15/6 18/18/6 39/43/6
f 33/33/5 32/32/5 43/47/5 42/46/5
f 12/12/5 37/41/5 47/51/5 13/13/5
o Cube.516_Cube.522
v -2.451813 -0.077374 1.890339
v 0.577238 2.898314 1.868945
v 0.605040 2.910005 1.729962
v -2.451813 -0.077374 1.748074
v 0.831931 2.686653 1.756517
v -2.353812 -0.421300 1.747979
v 0.804145 2.674963 1.895541
v -2.353812 -0.421300 1.890235
vt 0.470871 0.565415
vt 0.493851 0.565415
vt 0.493851 0.588395
vt 0.470871 0.588395
vt 0.493851 0.611374
vt 0.470871 0.611374
vt 0.493851 0.634354
vt 0.470871 0.634354
vt 0.493851 0.657334
vt 0.470871 0.657334
vt 0.447892 0.611374
vt 0.447892 0.634354
vt 0.516831 0.611374
vt 0.516831 0.634354
vn -0.6994 0.7136 -0.0395
vn 0.0282 -0.0305 -0.9991
vn 0.6986 -0.7144 0.0393
vn -0.0277 0.0308 0.9991
vn -0.9617 -0.2740 0.0000
vn 0.6764 0.7103 0.1950
usemtl Color.042
s 1
f 49/53/7 50/54/7 51/55/7 52/56/7
f 52/56/8 51/55/8 53/57/8 54/58/8
f 54/58/9 53/57/9 55/59/9 56/60/9
f 56/60/10 55/59/10 50/61/10 49/62/10
f 52/63/11 54/58/11 56/60/11 49/64/11
f 53/57/12 51/65/12 50/66/12 55/59/12
o Cube.517_Cube.523
v -2.451813 -0.077373 -1.442800
v 0.577238 2.898315 -1.464192
v 0.605040 2.910006 -1.603175
v -2.451813 -0.077373 -1.585064
v 0.831931 2.686654 -1.576621
v -2.353812 -0.421299 -1.585158
v 0.804145 2.674964 -1.437596
v -2.353812 -0.421299 -1.442904
vt 0.470871 0.565415
vt 0.493851 0.565415
vt 0.493851 0.588395
vt 0.470871 0.588395
vt 0.493851 0.611374
vt 0.470871 0.611374
vt 0.493851 0.634354
vt 0.470871 0.634354
vt 0.493851 0.657334
vt 0.470871 0.657334
vt 0.447892 0.611374
vt 0.447892 0.634354
vt 0.516831 0.611374
vt 0.516831 0.634354
vn -0.6994 0.7136 -0.0395
vn 0.0282 -0.0305 -0.9991
vn 0.6986 -0.7144 0.0393
vn -0.0277 0.0308 0.9991
vn -0.9617 -0.2740 0.0000
vn 0.6764 0.7103 0.1950
usemtl Color.042
s 1
f 57/67/13 58/68/13 59/69/13 60/70/13
f 60/70/14 59/69/14 61/71/14 62/72/14
f 62/72/15 61/71/15 63/73/15 64/74/15
f 64/74/16 63/73/16 58/75/16 57/76/16
f 60/77/17 62/72/17 64/74/17 57/78/17
f 61/71/18 59/79/18 58/80/18 63/73/18
o Cube.518_Cube.524
v 0.938161 -0.077374 1.779340
v 0.916767 2.898315 -1.249711
v 0.777784 2.910006 -1.277513
v 0.795896 -0.077374 1.779340
v 0.804338 2.686654 -1.504404
v 0.795801 -0.421300 1.681339
v 0.943364 2.674964 -1.476617
v 0.938057 -0.421300 1.681339
vt 0.470871 0.565415
vt 0.493851 0.565415
vt 0.493851 0.588395
vt 0.470871 0.588395
vt 0.493851 0.611374
vt 0.470871 0.611374
vt 0.493851 0.634354
vt 0.470871 0.634354
vt 0.493851 0.657334
vt 0.470871 0.657334
vt 0.447892 0.611374
vt 0.447892 0.634354
vt 0.516831 0.611374
vt 0.516831 0.634354
vn -0.0395 0.7136 0.6994
vn -0.9991 -0.0305 -0.0282
vn 0.0393 -0.7144 -0.6986
vn 0.9991 0.0308 0.0277
vn 0.0000 -0.2740 0.9617
vn 0.1950 0.7103 -0.6764
usemtl Color.042
s 1
f 65/81/19 66/82/19 67/83/19 68/84/19
f 68/84/20 67/83/20 69/85/20 70/86/20
f 70/86/21 69/85/21 71/87/21 72/88/21
f 72/88/22 71/87/22 66/89/22 65/90/22
f 68/91/23 70/86/23 72/88/23 65/92/23
f 69/85/24 67/93/24 66/94/24 71/87/24
o Cube.519_Cube.525
v -2.393722 -0.077374 1.779340
v -2.415115 2.898315 -1.249711
v -2.554098 2.910006 -1.277513
v -2.535987 -0.077374 1.779340
v -2.527544 2.686654 -1.504404
v -2.536081 -0.421300 1.681339
v -2.388519 2.674964 -1.476617
v -2.393826 -0.421300 1.681339
vt 0.470871 0.565415
vt 0.493851 0.565415
vt 0.493851 0.588395
vt 0.470871 0.588395
vt 0.493851 0.611374
vt 0.470871 0.611374
vt 0.493851 0.634354
vt 0.470871 0.634354
vt 0.493851 0.657334
vt 0.470871 0.657334
vt 0.447892 0.611374
vt 0.447892 0.634354
vt 0.516831 0.611374
vt 0.516831 0.634354
vn -0.0395 0.7136 0.6994
vn -0.9991 -0.0305 -0.0282
vn 0.0393 -0.7144 -0.6986
vn 0.9991 0.0308 0.0277
vn 0.0000 -0.2740 0.9617
vn 0.1950 0.7103 -0.6764
usemtl Color.042
s 1
f 73/95/25 74/96/25 75/97/25 76/98/25
f 76/98/26 75/97/26 77/99/26 78/100/26
f 78/100/27 77/99/27 79/101/27 80/102/27
f 80/102/28 79/101/28 74/103/28 73/104/28
f 76/105/29 78/100/29 80/102/29 73/106/29
f 77/99/30 75/107/30 74/108/30 79/101/30
o Cube.520_Cube.526
v -2.190634 2.864441 1.779340
v 0.785055 2.885836 -1.249711
v 0.796745 3.024819 -1.277513
v -2.190634 3.006706 1.779340
v 0.573394 2.998264 -1.504404
v -2.534559 3.006801 1.681339
v 0.561703 2.859240 -1.476617
v -2.534559 2.864546 1.681339
vt 0.470871 0.565415
vt 0.493851 0.565415
vt 0.493851 0.588395
vt 0.470871 0.588395
vt 0.493851 0.611374
vt 0.470871 0.611374
vt 0.493851 0.634354
vt 0.470871 0.634354
vt 0.493851 0.657334
vt 0.470871 0.657334
vt 0.447892 0.611374
vt 0.447892 0.634354
vt 0.516831 0.611374
vt 0.516831 0.634354
vn 0.7136 0.0395 0.6994
vn -0.0305 0.9991 -0.0282
vn -0.7144 -0.0393 -0.6986
vn 0.0308 -0.9991 0.0276
vn -0.2740 0.0000 0.9617
vn 0.7103 -0.1950 -0.6764
usemtl Color.042
s 1
f 81/109/31 82/110/31 83/111/31 84/112/31
f 84/112/32 83/111/32 85/113/32 86/114/32
f 86/114/33 85/113/33 87/115/33 88/116/33
f 88/116/34 87/115/34 82/117/34 81/118/34
f 84/119/35 86/114/35 88/116/35 81/120/35
f 85/113/36 83/121/36 82/122/36 87/115/36
