# Blender v2.80 (sub 35) OBJ File: ''
# www.blender.org
mtllib wooden_sign_2.mtl
o Cube.207_Cube.216
v -0.410259 3.890092 -0.018983
v -0.410259 3.890092 0.312300
v -0.442045 3.890104 0.351580
v -0.442045 3.890104 -0.058263
v -0.293896 4.089118 0.312300
v -0.410259 4.089118 0.312300
v -0.442043 4.089129 0.351581
v -0.262110 4.089107 0.351580
v -0.410259 4.089118 -0.018983
v -0.442043 4.089129 -0.058264
v -0.293896 3.890092 0.312300
v -0.262110 3.890081 0.351581
v -0.410254 -0.461082 -0.018984
v -0.293890 -0.461082 -0.018984
v -0.293890 -0.461082 0.312299
v -0.410254 -0.461082 0.312299
v -0.286104 3.187559 1.521272
v -0.286106 3.187559 -1.764281
v -0.286106 3.719011 -1.227952
v -0.286106 3.719010 1.521269
v -0.418056 2.656109 1.521276
v -0.418056 2.656110 -1.227960
v -0.286102 2.656110 -1.227960
v -0.286102 2.656109 1.521276
v -0.418056 3.719011 -1.227959
v -0.418060 3.719010 1.521269
v -0.418058 3.187559 -1.764279
v -0.418058 3.187559 1.521272
v -0.293896 4.089118 -0.018983
v -0.293896 3.890092 -0.018983
v -0.262110 4.089108 -0.058263
v -0.262110 3.890081 -0.058264
vt 0.223152 0.633472
vt 0.223152 0.631999
vt 0.223152 0.631999
vt 0.223152 0.633472
vt 0.223216 0.636418
vt 0.223216 0.637891
vt 0.223216 0.637891
vt 0.223216 0.636418
vt 0.223216 0.633472
vt 0.223216 0.633472
vt 0.223152 0.637891
vt 0.223152 0.636418
vt 0.223152 0.636418
vt 0.223152 0.637891
vt 0.220270 0.634945
vt 0.221743 0.634945
vt 0.221743 0.636418
vt 0.220270 0.636418
vt 0.223216 0.636418
vt 0.223216 0.634945
vt 0.223216 0.634945
vt 0.223216 0.636418
vt 0.223216 0.637891
vt 0.223216 0.633472
vt 0.223216 0.634945
vt 0.223216 0.636418
vt 0.224689 0.634945
vt 0.224689 0.636418
vt 0.223216 0.633472
vt 0.223216 0.631999
vt 0.223216 0.631999
vt 0.223216 0.633472
vt 0.223216 0.637891
vt 0.223216 0.637891
vt 0.223216 0.634945
vt 0.221743 0.637891
vt 0.223152 0.634945
vt 0.221743 0.633472
vt 0.221743 0.631999
vt 0.223216 0.631999
vt 0.223216 0.634945
vt 0.223152 0.634945
vt 0.223216 0.631999
vn -0.0002 -1.0000 -0.0000
vn 0.0002 1.0000 0.0000
vn 0.0000 -1.0000 0.0000
vn 1.0000 0.0000 -0.0000
vn -0.0000 1.0000 0.0000
vn -1.0000 -0.0000 -0.0000
vn 0.0000 0.0000 1.0000
vn 0.0000 0.7103 -0.7039
vn 0.0000 0.0000 -1.0000
vn -0.0000 -0.7103 -0.7039
usemtl Color.045
s 1
f 1/1/1 2/2/1 3/3/1 4/4/1
f 5/5/2 6/6/2 7/7/2 8/8/2
f 6/6/2 9/9/2 10/10/2 7/7/2
f 2/11/1 11/12/1 12/13/1 3/14/1
f 13/15/3 14/16/3 15/17/3 16/18/3
f 17/19/4 18/20/4 19/21/4 20/22/4
f 21/23/3 22/24/3 23/25/3 24/26/3
f 19/21/5 25/27/5 26/28/5 20/22/5
f 27/29/6 28/30/6 26/31/6 25/32/6
f 28/33/7 17/19/7 20/22/7 26/34/7
f 18/20/8 27/29/8 25/32/8 19/21/8
f 6/6/2 5/5/2 29/35/2 9/9/2
f 15/17/7 11/12/7 2/11/7 16/36/7
f 14/16/4 30/37/4 11/12/4 15/17/4
f 13/38/9 1/1/9 30/37/9 14/16/9
f 16/39/6 2/2/6 1/1/6 13/38/6
f 3/3/6 7/40/6 10/10/6 4/4/6
f 4/4/9 10/10/9 31/41/9 32/42/9
f 32/42/4 31/41/4 8/8/4 12/13/4
f 12/13/7 8/8/7 7/7/7 3/14/7
f 11/12/1 30/37/1 32/42/1 12/13/1
f 9/9/2 29/35/2 31/41/2 10/10/2
f 30/37/1 1/1/1 4/4/1 32/42/1
f 29/35/2 5/5/2 8/8/2 31/41/2
f 23/25/10 22/24/10 27/29/10 18/20/10
f 21/23/7 24/26/7 17/19/7 28/33/7
f 22/24/6 21/43/6 28/30/6 27/29/6
f 24/26/4 23/25/4 18/20/4 17/19/4
