# Blender v2.80 (sub 35) OBJ File: ''
# www.blender.org
mtllib wooden_stool.mtl
o Cube.549_Cube.555
v -1.652800 -1.000005 1.333164
v -1.652800 -1.000005 1.120884
v -1.510954 0.999995 0.785790
v -1.510954 0.999995 0.998070
v -1.863581 -1.000005 1.120884
v -1.647186 0.999995 0.785790
v -1.863581 -1.000005 1.333164
v -1.647186 0.999995 0.998070
vt 0.191353 0.555192
vt 0.191353 0.572486
vt 0.208647 0.572486
vt 0.208647 0.555192
vt 0.191353 0.589779
vt 0.208647 0.589779
vt 0.191353 0.607073
vt 0.208647 0.607073
vt 0.191353 0.624366
vt 0.208647 0.624366
vt 0.174060 0.589779
vt 0.174060 0.607073
vt 0.225940 0.607073
vt 0.225940 0.589779
vn 0.9975 -0.0707 0.0000
vn 0.0000 -0.1652 -0.9863
vn -0.9942 0.1076 0.0000
vn 0.0000 0.1652 0.9863
vn 0.0000 -1.0000 0.0000
vn 0.0000 1.0000 0.0000
usemtl Color.048
s 1
f 1/1/1 2/2/1 3/3/1 4/4/1
f 2/2/2 5/5/2 6/6/2 3/3/2
f 5/5/3 7/7/3 8/8/3 6/6/3
f 7/7/4 1/9/4 4/10/4 8/8/4
f 2/11/5 1/12/5 7/7/5 5/5/5
f 6/6/6 8/8/6 4/13/6 3/14/6
o Cube.550_Cube.556
v -0.639914 -1.000005 1.333164
v -0.639914 -1.000005 1.120884
v -0.856308 0.999995 0.785790
v -0.856308 0.999995 0.998070
v -0.850695 -1.000005 1.120884
v -0.992540 0.999995 0.785790
v -0.850695 -1.000005 1.333164
v -0.992540 0.999995 0.998070
vt 0.148256 0.571233
vt 0.148256 0.586722
vt 0.163744 0.586722
vt 0.163744 0.571233
vt 0.148256 0.602210
vt 0.163744 0.602210
vt 0.148256 0.617698
vt 0.163744 0.617698
vt 0.148256 0.633187
vt 0.163744 0.633187
vt 0.132767 0.602210
vt 0.132767 0.617698
vt 0.179233 0.617698
vt 0.179233 0.602210
vn 0.9942 0.1076 0.0000
vn 0.0000 -0.1652 -0.9863
vn -0.9975 -0.0707 0.0000
vn 0.0000 0.1652 0.9863
vn 0.0000 -1.0000 0.0000
vn 0.0000 1.0000 0.0000
usemtl Color.048
s 1
f 9/15/7 10/16/7 11/17/7 12/18/7
f 10/16/8 13/19/8 14/20/8 11/17/8
f 13/19/9 15/21/9 16/22/9 14/20/9
f 15/21/10 9/23/10 12/24/10 16/22/10
f 10/25/11 9/26/11 15/21/11 13/19/11
f 14/20/12 16/22/12 12/27/12 11/28/12
o Cube.552_Cube.558
v -0.850695 -1.000005 -0.295563
v -0.850695 -1.000005 -0.083283
v -0.992540 0.999995 0.251812
v -0.992540 0.999995 0.039532
v -0.639914 -1.000005 -0.083283
v -0.856308 0.999995 0.251812
v -0.639914 -1.000005 -0.295563
v -0.856308 0.999995 0.039532
vt 0.130263 0.574025
vt 0.130263 0.589499
vt 0.145737 0.589499
vt 0.145737 0.574025
vt 0.130263 0.604972
vt 0.145737 0.604972
vt 0.130263 0.620446
vt 0.145737 0.620446
vt 0.130263 0.635919
vt 0.145737 0.635919
vt 0.114790 0.604972
vt 0.114790 0.620446
vt 0.161210 0.620446
vt 0.161210 0.604972
vn -0.9975 -0.0707 -0.0000
vn 0.0000 -0.1652 0.9863
vn 0.9942 0.1076 0.0000
vn 0.0000 0.1652 -0.9863
vn 0.0000 -1.0000 -0.0000
vn 0.0000 1.0000 0.0000
usemtl Color.048
s 1
f 17/29/13 18/30/13 19/31/13 20/32/13
f 18/30/14 21/33/14 22/34/14 19/31/14
f 21/33/15 23/35/15 24/36/15 22/34/15
f 23/35/16 17/37/16 20/38/16 24/36/16
f 18/39/17 17/40/17 23/35/17 21/33/17
f 22/34/18 24/36/18 20/41/18 19/42/18
o Cube.551_Cube.557
v -1.863581 -1.000005 -0.295563
v -1.863581 -1.000005 -0.083283
v -1.647186 0.999995 0.251812
v -1.647186 0.999995 0.039532
v -1.652800 -1.000005 -0.083283
v -1.510954 0.999995 0.251812
v -1.652800 -1.000005 -0.295563
v -1.510954 0.999995 0.039532
vt 0.178411 0.565234
vt 0.178411 0.584412
vt 0.197589 0.584412
vt 0.197589 0.565234
vt 0.178411 0.603591
vt 0.197589 0.603591
vt 0.178411 0.622770
vt 0.197589 0.622770
vt 0.178411 0.641949
vt 0.197589 0.641949
vt 0.159232 0.603591
vt 0.159232 0.622770
vt 0.216768 0.622770
vt 0.216768 0.603591
vn -0.9942 0.1076 0.0000
vn 0.0000 -0.1652 0.9863
vn 0.9975 -0.0707 -0.0000
vn 0.0000 0.1652 -0.9863
vn 0.0000 -1.0000 -0.0000
vn 0.0000 1.0000 0.0000
usemtl Color.048
s 1
f 25/43/19 26/44/19 27/45/19 28/46/19
f 26/44/20 29/47/20 30/48/20 27/45/20
f 29/47/21 31/49/21 32/50/21 30/48/21
f 31/49/22 25/51/22 28/52/22 32/50/22
f 26/53/23 25/54/23 31/49/23 29/47/23
f 30/48/24 32/50/24 28/55/24 27/56/24
o Cylinder.019_Cylinder.020
v -1.249172 0.979377 -0.453102
v -1.249172 1.102088 -0.453102
v -0.542065 1.102088 -0.160210
v -0.542065 0.979377 -0.160210
v -0.249172 1.102088 0.546898
v -0.249172 0.979377 0.546898
v -0.542065 1.102087 1.254005
v -0.542065 0.979376 1.254005
v -1.249172 1.102087 1.546898
v -1.249172 0.979376 1.546898
v -1.956280 1.102087 1.254005
v -1.956280 0.979376 1.254005
v -2.249172 1.102088 0.546898
v -2.249172 0.979377 0.546898
v -1.956280 1.102088 -0.160210
v -1.956280 0.979377 -0.160210
vt 0.206835 0.634466
vt 0.206835 0.671301
vt 0.197627 0.671301
vt 0.197627 0.634466
vt 0.188418 0.671301
vt 0.188418 0.634466
vt 0.179209 0.671301
vt 0.179209 0.634466
vt 0.170000 0.671301
vt 0.170000 0.634466
vt 0.160791 0.671301
vt 0.160791 0.634466
vt 0.151582 0.671301
vt 0.151582 0.634466
vt 0.164085 0.628551
vt 0.151582 0.633729
vt 0.139080 0.628551
vt 0.133901 0.616048
vt 0.139080 0.603546
vt 0.151582 0.598367
vt 0.164085 0.603546
vt 0.169263 0.616048
vt 0.142374 0.671301
vt 0.142374 0.634466
vt 0.133165 0.671301
vt 0.133165 0.634466
vt 0.188418 0.633729
vt 0.200920 0.628551
vt 0.206099 0.616048
vt 0.200920 0.603546
vt 0.188418 0.598367
vt 0.175915 0.603546
vt 0.170737 0.616048
vt 0.175915 0.628551
vn 0.3827 0.0000 -0.9239
vn 0.9239 0.0000 -0.3827
vn 0.9239 0.0000 0.3827
vn 0.3827 0.0000 0.9239
vn -0.3827 0.0000 0.9239
vn -0.9239 0.0000 0.3827
vn 0.0000 1.0000 0.0000
vn -0.9239 0.0000 -0.3827
vn -0.3827 0.0000 -0.9239
vn 0.0000 -1.0000 -0.0000
usemtl Color.048
s 1
f 33/57/25 34/58/25 35/59/25 36/60/25
f 36/60/26 35/59/26 37/61/26 38/62/26
f 38/62/27 37/61/27 39/63/27 40/64/27
f 40/64/28 39/63/28 41/65/28 42/66/28
f 42/66/29 41/65/29 43/67/29 44/68/29
f 44/68/30 43/67/30 45/69/30 46/70/30
f 35/71/31 34/72/31 47/73/31 45/74/31 43/75/31 41/76/31 39/77/31 37/78/31
f 46/70/32 45/69/32 47/79/32 48/80/32
f 48/80/33 47/79/33 34/81/33 33/82/33
f 33/83/34 36/84/34 38/85/34 40/86/34 42/87/34 44/88/34 46/89/34 48/90/34
