# Blender v2.80 (sub 35) OBJ File: ''
# www.blender.org
mtllib wooden_seat.mtl
o Cube.422_Cube.428
v -1.817438 -0.625604 3.639809
v -1.731047 -0.167445 3.578953
v -1.952103 -0.143093 3.683777
v -2.008022 -0.601270 3.718246
v -1.681532 0.308066 3.525845
v -1.888000 0.299482 3.618286
v -1.950949 0.204019 3.644291
v -2.015501 -0.135509 3.701832
v -2.052433 -0.494720 3.728779
v -2.046064 -0.134837 3.665913
v -2.467319 -0.140913 2.821014
v -2.451918 -0.601691 2.792675
v -2.077900 -0.600664 3.695961
v -2.464396 0.304490 2.852100
v -2.477322 0.205557 2.795139
v -2.477684 -0.136013 2.758900
v -2.466244 -0.495574 2.743168
v -1.485144 -0.631032 2.336796
v -1.610664 -0.141874 2.477539
v -1.428143 -0.136019 2.410706
v -1.292376 -0.612126 2.260899
v -1.693371 0.284381 2.637577
v -1.504400 0.306202 2.545383
v -1.446697 0.214299 2.519825
v -1.369350 -0.135350 2.406113
v -1.252058 -0.508560 2.265400
v -0.778950 -0.128389 3.145016
v -0.736334 0.330689 3.102238
v -0.725592 0.225888 3.139717
v -0.771563 -0.129321 3.189251
v -0.830732 -0.599743 3.183434
v -0.819765 -0.492331 3.222973
v -0.885695 -0.820897 3.206818
v -1.260038 -0.826214 2.303341
v -1.214533 -0.613270 2.296932
v -1.453360 -0.856312 2.382027
v -1.967262 0.302944 3.606159
v -0.954035 0.554893 3.180805
v -0.929609 0.329249 3.215992
v -0.763847 0.328211 3.158108
v -0.785269 0.545778 3.121029
v -1.059385 -0.622362 3.329693
v -1.078566 -0.852639 3.286434
v -0.868315 -0.599723 3.250175
v -1.426975 0.313844 2.577995
v -1.343092 -0.138968 2.467705
v -1.485762 0.515558 2.612240
v -1.675179 0.502588 2.706448
v -2.263626 0.316420 2.715996
v -2.241013 0.540443 2.777210
v -1.966032 0.514100 2.753601
v -1.984831 0.290948 2.687958
v -1.305019 0.525923 3.312756
v -1.834520 -0.853425 2.537033
v -1.460287 -0.852725 3.443401
v -1.840509 -0.852675 3.599934
v -2.214006 -0.852701 2.692360
v -1.435509 -0.626121 3.481461
v -1.701075 0.530603 3.486744
v -1.284126 0.303517 3.350624
v -2.237719 -0.624559 2.636303
v -1.862041 -0.623884 2.485115
v -2.254469 -0.150122 2.656994
v -1.921513 -0.147906 2.555164
v -0.818369 -0.129951 3.219337
v -1.000666 -0.133195 3.290031
v -2.435514 -0.138838 2.724522
v -2.424313 -0.601473 2.714703
v -2.437214 0.304883 2.774555
v -2.028833 -0.820900 3.677204
v -2.402042 -0.820925 2.770088
v -1.906204 0.512485 3.578575
v -2.415663 0.517634 2.835457
v -1.345282 -0.165006 3.415115
vt 0.423427 0.393905
vt 0.436000 0.393905
vt 0.436000 0.397641
vt 0.423427 0.397641
vt 0.448573 0.393905
vt 0.448573 0.397641
vt 0.448573 0.398929
vt 0.436000 0.398929
vt 0.423427 0.398929
vt 0.436000 0.400241
vt 0.436000 0.422194
vt 0.423367 0.422171
vt 0.423427 0.400241
vt 0.448633 0.422171
vt 0.449053 0.423554
vt 0.436000 0.423786
vt 0.422947 0.423554
vt 0.427138 0.443961
vt 0.436000 0.443961
vt 0.436000 0.447825
vt 0.426789 0.447836
vt 0.444862 0.443961
vt 0.445211 0.447836
vt 0.449053 0.449659
vt 0.436000 0.449387
vt 0.422947 0.449659
vt 0.436000 0.472977
vt 0.448573 0.472977
vt 0.448573 0.474326
vt 0.436000 0.474326
vt 0.423427 0.472977
vt 0.423427 0.474326
vt 0.399629 0.447792
vt 0.422001 0.447802
vt 0.421565 0.449239
vt 0.399629 0.449180
vt 0.422089 0.443961
vt 0.448573 0.400241
vt 0.472371 0.443961
vt 0.473720 0.443961
vt 0.473720 0.447792
vt 0.472371 0.447792
vt 0.473720 0.449180
vt 0.472371 0.449180
vt 0.398281 0.443961
vt 0.399629 0.443961
vt 0.398281 0.447792
vt 0.398281 0.449180
vt 0.448633 0.451042
vt 0.436000 0.451014
vt 0.423367 0.451042
vt 0.449999 0.447802
vt 0.449911 0.443961
vt 0.450435 0.449239
vt 0.444862 0.429015
vt 0.449911 0.429015
vt 0.449911 0.436470
vt 0.444862 0.436470
vt 0.472371 0.436470
vt 0.422089 0.436470
vt 0.399629 0.436470
vt 0.399629 0.429015
vt 0.422089 0.429015
vt 0.398281 0.429015
vt 0.398281 0.436470
vt 0.472371 0.429015
vt 0.473720 0.429015
vt 0.473720 0.436470
vt 0.427138 0.429015
vt 0.427138 0.436470
vt 0.436000 0.429015
vt 0.436000 0.436470
vt 0.423427 0.373740
vt 0.436000 0.373740
vt 0.436000 0.375128
vt 0.423427 0.375128
vt 0.448573 0.373740
vt 0.448573 0.375128
vt 0.448573 0.378959
vt 0.436000 0.378959
vt 0.423427 0.378959
vt 0.436000 0.425248
vt 0.426789 0.425240
vt 0.445211 0.425240
vt 0.399629 0.425284
vt 0.422001 0.425274
vt 0.421565 0.423973
vt 0.472371 0.424033
vt 0.473720 0.424033
vt 0.473720 0.425284
vt 0.472371 0.425284
vt 0.398281 0.424033
vt 0.399629 0.424033
vt 0.398281 0.425284
vt 0.449999 0.425274
vt 0.450435 0.423973
vt 0.436000 0.386450
vt 0.423427 0.386450
vt 0.448573 0.386450
vn 0.4096 0.0312 0.9117
vn 0.4201 0.0649 0.9052
vn 0.2593 0.1083 0.9597
vn 0.2934 0.0385 0.9552
vn -0.9101 0.0169 0.4140
vn -0.9793 -0.0132 0.2020
vn -0.9835 -0.0416 0.1761
vn -0.3600 0.1782 -0.9158
vn -0.3975 0.2288 -0.8886
vn -0.0148 0.2966 -0.9549
vn -0.2568 0.2434 -0.9353
vn 0.9109 -0.1430 -0.3871
vn 0.9905 -0.1238 -0.0596
vn 0.8963 -0.2333 -0.3772
vn -0.3362 -0.2312 -0.9130
vn 0.4157 -0.1182 -0.9018
vn -0.8633 0.0960 0.4956
vn 0.3330 0.1848 0.9246
vn 0.3329 0.1848 0.9247
vn 0.3311 0.1851 0.9253
vn 0.8775 0.1894 0.4405
vn 0.3993 -0.2038 0.8939
vn 0.8546 -0.1951 0.4813
vn -0.8444 0.1066 0.5250
vn -0.6530 0.2293 0.7218
vn 0.6882 0.0845 -0.7206
vn 0.9116 0.3460 -0.2219
vn 0.7785 0.3089 -0.5463
vn 0.8457 0.1407 -0.5148
vn -0.0289 0.9987 -0.0421
vn -0.4432 0.3057 -0.8427
vn 0.5722 0.2474 -0.7819
vn 0.1371 -0.9892 -0.0519
vn 0.3417 0.3158 -0.8852
vn -0.0634 0.2778 -0.9585
vn -0.0324 0.9993 -0.0187
vn -0.0015 -1.0000 0.0020
vn -0.0007 -1.0000 0.0007
vn -0.1485 0.2997 -0.9424
vn 0.3744 -0.1952 0.9065
vn 0.3726 -0.1962 0.9070
vn 0.3725 -0.1962 0.9070
vn 0.0357 0.9987 -0.0354
vn 0.3707 -0.1972 0.9076
vn 0.3937 0.1939 0.8986
vn 0.3936 0.1940 0.8986
vn 0.3972 0.1914 0.8975
vn 0.3348 0.1845 0.9240
vn -0.0023 -1.0000 0.0034
vn -0.3639 -0.2523 -0.8966
vn -0.3638 -0.2398 -0.9001
vn -0.3643 -0.2521 -0.8965
vn -0.3634 -0.2397 -0.9003
vn -0.3358 0.0628 -0.9398
vn -0.1971 0.1880 -0.9622
vn -0.1991 0.2839 -0.9380
vn -0.3086 0.1461 -0.9399
vn 0.5094 0.0067 0.8605
vn 0.5375 0.0482 0.8419
vn 0.3446 0.0903 0.9344
vn 0.3405 0.0911 0.9358
vn 0.3443 0.0905 0.9345
vn 0.3716 0.0261 0.9280
vn -0.5913 0.0088 -0.8064
vn -0.6202 0.0846 -0.7799
vn -0.3331 0.1082 -0.9367
vn -0.3673 0.0193 -0.9299
vn -0.1427 -0.9880 0.0587
vn -0.9217 -0.2089 -0.3269
vn -0.4036 -0.2599 -0.8772
vn -0.1377 0.2254 0.9645
vn 0.3900 0.1966 0.8996
vn -0.3008 -0.1701 0.9384
vn -0.7999 0.2642 0.5389
vn 0.3469 -0.2001 0.9163
vn -0.9202 0.2233 -0.3214
vn -0.0802 0.9944 0.0682
vn -0.8980 -0.2370 0.3708
vn -0.3300 0.2850 -0.8999
vn 0.3561 0.0483 0.9332
vn 0.3402 0.0910 0.9359
vn 0.3965 0.0676 0.9155
vn 0.3863 0.0532 0.9208
usemtl Color.043
s 1
f 1/1/1 2/2/1 3/3/1 4/4/1
f 2/2/2 5/5/2 6/6/2 3/3/2
f 3/3/3 6/6/3 7/7/3 8/8/3
f 4/4/4 3/3/4 8/8/4 9/9/4
f 10/10/5 11/11/5 12/12/5 13/13/5
f 11/11/6 14/14/6 15/15/6 16/16/6
f 12/12/7 11/11/7 16/16/7 17/17/7
f 18/18/8 19/19/8 20/20/8 21/21/8
f 19/19/9 22/22/9 23/23/9 20/20/9
f 20/20/10 23/23/10 24/24/10 25/25/10
f 21/21/11 20/20/11 25/25/11 26/26/11
f 27/27/12 28/28/12 29/29/12 30/30/12
f 31/31/13 27/27/13 30/30/13 32/32/13
f 33/33/14 34/34/14 35/35/14 31/36/14
f 36/37/15 18/18/15 21/21/15 34/34/15
f 34/34/16 21/21/16 26/26/16 35/35/16
f 37/38/17 14/14/17 11/11/17 10/10/17
f 38/39/18 39/40/19 40/41/20 41/42/20
f 41/42/21 40/41/21 29/43/21 28/44/21
f 42/45/22 43/46/22 33/33/22 44/47/22
f 44/47/23 33/33/23 31/36/23 32/48/23
f 9/9/24 8/8/24 10/10/24 13/13/24
f 8/8/25 7/7/25 37/38/25 10/10/25
f 45/49/26 28/28/26 27/27/26 46/50/26
f 26/26/27 25/25/27 46/50/27 35/51/27
f 25/25/28 24/24/28 45/49/28 46/50/28
f 46/50/29 27/27/29 31/31/29 35/51/29
f 41/42/30 47/52/30 48/53/30 38/39/30
f 22/22/31 48/53/31 47/52/31 23/23/31
f 41/42/32 28/44/32 45/54/32 47/52/32
f 34/34/33 33/33/33 43/46/33 36/37/33
f 23/23/34 47/52/34 45/54/34 24/24/34
f 49/55/35 50/56/35 51/57/35 52/58/35
f 51/57/36 53/59/36 38/39/36 48/53/36
f 54/60/37 55/61/37 56/62/38 57/63/38
f 52/58/39 51/57/39 48/53/39 22/22/39
f 1/64/40 56/62/40 55/61/41 58/65/42
f 53/59/43 51/57/43 50/56/43 59/66/43
f 58/65/42 55/61/41 43/46/44 42/45/44
f 59/66/45 5/67/46 60/68/47 53/59/47
f 53/59/48 60/68/48 39/40/19 38/39/18
f 54/60/37 36/37/49 43/46/49 55/61/37
f 57/63/50 61/69/50 62/70/51 54/60/52
f 54/60/52 62/70/51 18/18/53 36/37/53
f 61/69/54 63/71/54 64/72/54 62/70/54
f 63/71/55 49/55/55 52/58/55 64/72/55
f 64/72/56 52/58/56 22/22/56 19/19/56
f 62/70/57 64/72/57 19/19/57 18/18/57
f 32/73/58 30/74/58 65/75/58 44/76/58
f 30/74/59 29/77/59 40/78/59 65/75/59
f 65/75/60 40/78/60 39/79/61 66/80/62
f 44/76/63 65/75/63 66/80/63 42/81/63
f 17/17/64 16/16/64 67/82/64 68/83/64
f 16/16/65 15/15/65 69/84/65 67/82/65
f 67/82/66 69/84/66 49/55/66 63/71/66
f 68/83/67 67/82/67 63/71/67 61/69/67
f 70/85/68 71/86/68 57/63/68 56/62/68
f 12/87/69 17/17/69 68/83/69 71/86/69
f 71/86/70 68/83/70 61/69/70 57/63/70
f 37/88/71 7/89/71 6/90/71 72/91/71
f 72/91/72 6/90/72 5/67/46 59/66/45
f 9/92/73 13/93/73 70/85/73 4/94/73
f 72/91/74 73/95/74 14/96/74 37/88/74
f 4/94/75 70/85/75 56/62/75 1/64/75
f 15/15/76 14/96/76 73/95/76 69/84/76
f 72/91/77 59/66/77 50/56/77 73/95/77
f 71/86/78 70/85/78 13/93/78 12/87/78
f 69/84/79 73/95/79 50/56/79 49/55/79
f 42/81/80 66/80/80 74/97/80 58/98/80
f 66/80/62 39/79/61 60/99/81 74/97/81
f 74/97/82 60/99/82 5/5/82 2/2/82
f 58/98/83 74/97/83 2/2/83 1/1/83
o Cube.423_Cube.429
v -2.074968 -0.594576 -1.637123
v -1.899570 -0.138128 -1.672651
v -2.174047 -0.102841 -1.665222
v -2.322182 -0.582595 -1.622044
v -1.851135 0.308097 -1.642815
v -2.059263 0.320194 -1.680811
v -2.127237 0.226274 -1.694904
v -2.248737 -0.097543 -1.672436
v -2.362217 -0.470094 -1.633995
v -2.256849 -0.115160 -1.721426
v -2.313786 -0.275818 -2.744616
v -2.372091 -0.652368 -2.776510
v -2.386211 -0.589253 -1.672966
v -2.285856 0.142304 -2.694904
v -2.284855 0.054563 -2.765575
v -2.305672 -0.254976 -2.816357
v -2.353096 -0.550906 -2.834803
v -1.050409 -0.620914 -2.937069
v -1.242214 -0.322082 -2.724054
v -1.040844 -0.268949 -2.721745
v -0.812630 -0.574504 -2.945097
v -1.441488 0.019435 -2.493502
v -1.217518 0.093021 -2.519558
v -1.133608 0.021556 -2.545216
v -0.982103 -0.254504 -2.703354
v -0.770645 -0.488566 -2.908535
v -0.817026 -0.123414 -1.622210
v -0.825539 0.357147 -1.577183
v -0.813749 0.255192 -1.552898
v -0.831514 -0.116869 -1.573483
v -0.785364 -0.583061 -1.713705
v -0.824987 -0.478150 -1.634758
v -0.814888 -0.799948 -1.757055
v -0.794645 -0.764780 -2.912914
v -0.739597 -0.575300 -2.877596
v -1.037689 -0.814309 -2.904202
v -2.117102 0.301770 -1.732592
v -1.089262 0.558657 -1.564237
v -1.050947 0.339354 -1.553883
v -0.873232 0.362847 -1.537996
v -0.906464 0.582982 -1.554441
v -1.095888 -0.584154 -1.666731
v -1.052881 -0.831286 -1.759899
v -0.865383 -0.576550 -1.654558
v -1.168135 0.121305 -2.447254
v -0.981113 -0.259496 -2.626253
v -1.276827 0.300086 -2.390392
v -1.482464 0.245887 -2.380486
v -2.028358 0.074510 -2.703831
v -2.029554 0.304419 -2.617834
v -1.778399 0.225292 -2.464897
v -1.764811 -0.010458 -2.555288
v -1.467701 0.480597 -1.592701
v -1.553391 -0.855412 -2.854689
v -1.568663 -0.826185 -1.732336
v -2.101507 -0.854693 -1.675806
v -2.093819 -0.898422 -2.785839
v -1.565216 -0.566399 -1.676874
v -1.861162 0.528651 -1.672445
v -1.434021 0.264402 -1.580965
v -2.073864 -0.680795 -2.849928
v -1.550428 -0.653617 -2.900196
v -2.022041 -0.324601 -2.804268
v -1.604649 -0.360081 -2.763634
v -0.893826 -0.111565 -1.565073
v -1.101952 -0.107568 -1.584370
v -2.246244 -0.266079 -2.830601
v -2.312153 -0.647579 -2.846863
v -2.229088 0.140259 -2.759968
v -2.344538 -0.830201 -1.663706
v -2.335575 -0.862074 -2.779404
v -2.055208 0.526581 -1.717718
v -2.223818 0.358663 -2.680655
v -1.456848 -0.145863 -1.646822
vt 0.462422 0.423914
vt 0.474000 0.423914
vt 0.474000 0.427354
vt 0.462422 0.427354
vt 0.485578 0.423914
vt 0.485578 0.427354
vt 0.485578 0.428541
vt 0.474000 0.428541
vt 0.462422 0.428541
vt 0.474000 0.429748
vt 0.474000 0.449964
vt 0.462367 0.449943
vt 0.462422 0.429748
vt 0.485633 0.449943
vt 0.486020 0.451216
vt 0.474000 0.451430
vt 0.461981 0.451216
vt 0.465840 0.470008
vt 0.474000 0.470008
vt 0.474000 0.473566
vt 0.465518 0.473576
vt 0.482160 0.470008
vt 0.482482 0.473576
vt 0.486020 0.475255
vt 0.474000 0.475004
vt 0.461981 0.475255
vt 0.474000 0.496728
vt 0.485578 0.496728
vt 0.485578 0.497969
vt 0.474000 0.497969
vt 0.462422 0.496728
vt 0.462422 0.497969
vt 0.440508 0.473536
vt 0.461109 0.473545
vt 0.460707 0.474869
vt 0.440508 0.474813
vt 0.461190 0.470008
vt 0.485578 0.429748
vt 0.507492 0.470008
vt 0.508734 0.470008
vt 0.508734 0.473536
vt 0.507492 0.473536
vt 0.508734 0.474813
vt 0.507492 0.474813
vt 0.439266 0.470008
vt 0.440508 0.470008
vt 0.439266 0.473536
vt 0.439266 0.474813
vt 0.485633 0.476528
vt 0.474000 0.476503
vt 0.462367 0.476528
vt 0.486891 0.473545
vt 0.486810 0.470008
vt 0.487293 0.474869
vt 0.482160 0.456245
vt 0.486810 0.456245
vt 0.486810 0.463110
vt 0.482160 0.463110
vt 0.507492 0.463110
vt 0.461190 0.463110
vt 0.440508 0.463110
vt 0.440508 0.456245
vt 0.461190 0.456245
vt 0.439266 0.456245
vt 0.439266 0.463110
vt 0.507492 0.456245
vt 0.508734 0.456245
vt 0.508734 0.463110
vt 0.465840 0.456245
vt 0.465840 0.463110
vt 0.474000 0.456245
vt 0.474000 0.463110
vt 0.462422 0.405346
vt 0.474000 0.405346
vt 0.474000 0.406623
vt 0.462422 0.406623
vt 0.485578 0.405346
vt 0.485578 0.406623
vt 0.485578 0.410151
vt 0.474000 0.410151
vt 0.462422 0.410151
vt 0.474000 0.452776
vt 0.465518 0.452769
vt 0.482482 0.452769
vt 0.440508 0.452810
vt 0.461109 0.452800
vt 0.460707 0.451602
vt 0.507492 0.451657
vt 0.508734 0.451657
vt 0.508734 0.452810
vt 0.507492 0.452810
vt 0.439266 0.451657
vt 0.440508 0.451657
vt 0.439266 0.452810
vt 0.486891 0.452800
vt 0.487293 0.451602
vt 0.474000 0.417049
vt 0.462422 0.417049
vt 0.485578 0.417049
vn 0.0491 0.0668 0.9966
vn -0.0636 -0.0044 0.9980
vn -0.2182 0.1184 0.9687
vn -0.0519 0.1110 0.9925
vn -0.9765 0.2154 -0.0030
vn -0.9916 0.0804 -0.1012
vn -0.9857 0.1592 -0.0558
vn -0.1289 0.5201 -0.8444
vn -0.1811 0.4433 -0.8779
vn 0.1792 0.5521 -0.8143
vn -0.1113 0.5608 -0.8204
vn 0.9997 -0.0124 0.0207
vn 0.9088 -0.0351 0.4158
vn 0.9778 -0.2081 0.0240
vn -0.0010 -0.1672 -0.9859
vn 0.6777 -0.0473 -0.7338
vn -0.9780 0.1927 0.0801
vn -0.0787 0.0427 0.9960
vn -0.0787 0.0428 0.9960
vn -0.0773 0.0481 0.9958
vn 0.6370 0.1837 0.7486
vn 0.0023 -0.3836 0.9235
vn 0.5558 -0.2800 0.7827
vn -0.9609 0.2687 -0.0671
vn -0.9208 0.3339 0.2015
vn 0.9095 0.2851 -0.3025
vn 0.8305 0.5212 0.1963
vn 0.8613 0.4974 -0.1042
vn 0.9303 0.3596 -0.0721
vn -0.1918 0.9482 -0.2532
vn -0.2043 0.4410 -0.8740
vn 0.7673 0.4496 -0.4573
vn 0.1655 -0.9860 -0.0198
vn 0.5284 0.6036 -0.5970
vn 0.5522 0.3106 -0.7737
vn -0.0923 0.9547 -0.2827
vn 0.0703 -0.9970 0.0333
vn 0.1771 0.4139 -0.8929
vn 0.1003 -0.1829 0.9780
vn 0.2919 0.9030 -0.3152
vn 0.0105 -0.2806 0.9598
vn -0.1631 0.0768 0.9836
vn -0.0801 0.0373 0.9961
vn 0.0353 -0.9994 0.0059
vn -0.0917 -0.2471 -0.9647
vn -0.0690 -0.1957 -0.9782
vn -0.0075 0.2700 -0.9628
vn 0.3112 0.4206 -0.8522
vn 0.0667 0.5594 -0.8262
vn -0.0379 0.4961 -0.8674
vn 0.0516 -0.1771 0.9828
vn 0.1321 -0.0617 0.9893
vn -0.0879 -0.0553 0.9946
vn -0.0689 -0.1816 0.9810
vn -0.1723 0.0791 -0.9819
vn -0.1851 0.1739 -0.9672
vn 0.2423 0.1984 -0.9497
vn 0.0646 0.0732 -0.9952
vn -0.1232 -0.9918 0.0328
vn -0.7464 -0.1572 -0.6466
vn -0.0603 -0.2852 -0.9566
vn -0.6886 0.2177 0.6917
vn -0.1970 0.1483 0.9691
vn -0.6136 -0.0948 0.7839
vn -0.9575 0.2608 0.1234
vn 0.0428 -0.1602 0.9862
vn -0.7094 0.3180 -0.6290
vn 0.1922 0.9540 -0.2300
vn -0.9853 -0.1710 -0.0029
vn 0.3610 0.3198 -0.8760
vn -0.0843 -0.1144 0.9898
vn -0.1043 -0.1022 0.9893
vn -0.1055 -0.1019 0.9892
vn -0.1043 -0.1020 0.9893
vn -0.1069 -0.1016 0.9891
vn 0.0146 0.0015 0.9999
usemtl Color.043
s 1
f 75/100/84 76/101/84 77/102/84 78/103/84
f 76/101/85 79/104/85 80/105/85 77/102/85
f 77/102/86 80/105/86 81/106/86 82/107/86
f 78/103/87 77/102/87 82/107/87 83/108/87
f 84/109/88 85/110/88 86/111/88 87/112/88
f 85/110/89 88/113/89 89/114/89 90/115/89
f 86/111/90 85/110/90 90/115/90 91/116/90
f 92/117/91 93/118/91 94/119/91 95/120/91
f 93/118/92 96/121/92 97/122/92 94/119/92
f 94/119/93 97/122/93 98/123/93 99/124/93
f 95/120/94 94/119/94 99/124/94 100/125/94
f 101/126/95 102/127/95 103/128/95 104/129/95
f 105/130/96 101/126/96 104/129/96 106/131/96
f 107/132/97 108/133/97 109/134/97 105/135/97
f 110/136/98 92/117/98 95/120/98 108/133/98
f 108/133/99 95/120/99 100/125/99 109/134/99
f 111/137/100 88/113/100 85/110/100 84/109/100
f 112/138/101 113/139/102 114/140/103 115/141/103
f 115/141/104 114/140/104 103/142/104 102/143/104
f 116/144/105 117/145/105 107/132/105 118/146/105
f 118/146/106 107/132/106 105/135/106 106/147/106
f 83/108/107 82/107/107 84/109/107 87/112/107
f 82/107/108 81/106/108 111/137/108 84/109/108
f 119/148/109 102/127/109 101/126/109 120/149/109
f 100/125/110 99/124/110 120/149/110 109/150/110
f 99/124/111 98/123/111 119/148/111 120/149/111
f 120/149/112 101/126/112 105/130/112 109/150/112
f 115/141/113 121/151/113 122/152/113 112/138/113
f 96/121/114 122/152/114 121/151/114 97/122/114
f 115/141/115 102/143/115 119/153/115 121/151/115
f 108/133/116 107/132/116 117/145/116 110/136/116
f 97/122/117 121/151/117 119/153/117 98/123/117
f 123/154/118 124/155/118 125/156/118 126/157/118
f 125/156/119 127/158/119 112/138/119 122/152/119
f 128/159/120 129/160/120 130/161/120 131/162/120
f 126/157/121 125/156/121 122/152/121 96/121/121
f 75/163/122 130/161/122 129/160/122 132/164/122
f 127/158/123 125/156/123 124/155/123 133/165/123
f 132/164/124 129/160/124 117/145/124 116/144/124
f 133/165/125 79/166/125 134/167/125 127/158/125
f 127/158/126 134/167/126 113/139/102 112/138/101
f 128/159/127 110/136/127 117/145/127 129/160/127
f 131/162/128 135/168/128 136/169/128 128/159/128
f 128/159/129 136/169/129 92/117/129 110/136/129
f 135/168/130 137/170/130 138/171/130 136/169/130
f 137/170/131 123/154/131 126/157/131 138/171/131
f 138/171/132 126/157/132 96/121/132 93/118/132
f 136/169/133 138/171/133 93/118/133 92/117/133
f 106/172/134 104/173/134 139/174/134 118/175/134
f 104/173/135 103/176/135 114/177/135 139/174/135
f 139/174/136 114/177/136 113/178/136 140/179/136
f 118/175/137 139/174/137 140/179/137 116/180/137
f 91/116/138 90/115/138 141/181/138 142/182/138
f 90/115/139 89/114/139 143/183/139 141/181/139
f 141/181/140 143/183/140 123/154/140 137/170/140
f 142/182/141 141/181/141 137/170/141 135/168/141
f 144/184/142 145/185/142 131/162/142 130/161/142
f 86/186/143 91/116/143 142/182/143 145/185/143
f 145/185/144 142/182/144 135/168/144 131/162/144
f 111/187/145 81/188/145 80/189/145 146/190/145
f 146/190/146 80/189/146 79/166/146 133/165/146
f 83/191/147 87/192/147 144/184/147 78/193/147
f 146/190/148 147/194/148 88/195/148 111/187/148
f 78/193/149 144/184/149 130/161/149 75/163/149
f 89/114/150 88/195/150 147/194/150 143/183/150
f 146/190/151 133/165/151 124/155/151 147/194/151
f 145/185/152 144/184/152 87/192/152 86/186/152
f 143/183/153 147/194/153 124/155/153 123/154/153
f 116/180/154 140/179/154 148/196/154 132/197/154
f 140/179/155 113/178/155 134/198/156 148/196/157
f 148/196/157 134/198/156 79/104/158 76/101/158
f 132/197/159 148/196/159 76/101/159 75/100/159
o Cube.424_Cube.430
v -1.920500 0.509546 3.031540
v -1.920500 0.739959 3.031540
v -1.920500 0.739960 -1.977211
v -1.920500 0.509547 -1.977211
v -0.991144 0.739960 -1.977211
v -0.991144 0.509547 -1.977211
v -0.991144 0.739959 3.031540
v -0.991144 0.509546 3.031540
vt 0.156751 0.661213
vt 0.127249 0.661213
vt 0.127249 0.631712
vt 0.156751 0.631712
vt 0.127249 0.602210
vt 0.156751 0.602210
vt 0.127249 0.572709
vt 0.156751 0.572709
vt 0.127249 0.543207
vt 0.156751 0.543207
vt 0.186252 0.602210
vt 0.186252 0.572709
vt 0.097748 0.602210
vt 0.097748 0.572709
vn -1.0000 0.0000 0.0000
vn 0.0000 0.0000 -1.0000
vn 1.0000 0.0000 0.0000
vn 0.0000 0.0000 1.0000
vn 0.0000 -1.0000 -0.0000
vn 0.0000 1.0000 0.0000
usemtl Color.043
s 1
f 149/199/160 150/200/160 151/201/160 152/202/160
f 152/202/161 151/201/161 153/203/161 154/204/161
f 154/204/162 153/203/162 155/205/162 156/206/162
f 156/206/163 155/205/163 150/207/163 149/208/163
f 152/209/164 154/204/164 156/206/164 149/210/164
f 153/203/165 151/211/165 150/212/165 155/205/165
