# Blender v2.80 (sub 35) OBJ File: ''
# www.blender.org
mtllib wooden_trunk.mtl
o Cylinder
v 0.488131 1.243737 -0.492113
v 0.488131 1.934786 -0.451994
v 0.984192 1.934344 -0.339889
v 0.951950 1.130700 -0.634027
v 1.343147 1.935592 0.019055
v 1.480581 1.250301 -0.105698
v 1.475418 1.935591 0.512697
v 1.614470 1.249823 0.493851
v 1.343147 1.935591 1.006342
v 1.536602 1.262020 1.021338
v 0.983305 1.935239 1.366451
v 0.990633 1.247559 1.532454
v 0.488131 1.935591 1.499985
v 0.488121 1.251469 1.714775
v -0.007044 1.935239 1.366451
v -0.014389 1.247558 1.532454
v -0.366886 1.935591 1.006342
v -0.560358 1.262020 1.021338
v -0.499157 1.935591 0.512697
v -0.638226 1.276518 0.493851
v -0.366886 1.935592 0.019055
v -0.504339 1.250301 -0.105698
v 0.034634 1.935210 1.294426
v 0.488131 1.935557 1.416721
v 0.488131 1.807264 1.416773
v 0.034634 1.806917 1.294478
v -0.007931 1.934344 -0.339889
v 0.024788 1.076956 -0.570120
v -0.170116 -0.156965 -0.932549
v 0.023617 0.541688 -0.736857
v 0.488131 0.551839 -0.728829
v 0.488131 -0.143631 -1.285326
v 1.015318 0.876786 -0.444031
v 1.015337 0.960973 -0.842030
v 0.872314 1.214902 -0.693726
v -0.716183 -0.136497 -0.258797
v -0.590122 0.554621 -0.181952
v -0.442402 0.885700 0.015467
v -0.034439 0.876787 -0.444031
v -0.833338 -0.044222 0.529964
v -0.714996 0.610645 0.497511
v -0.558800 0.922946 0.591762
v -0.913355 -0.095250 1.065092
v -0.709831 0.579663 1.022985
v -0.521990 0.902349 1.065683
v 0.045010 -0.145208 1.900068
v 0.018236 0.549190 1.676248
v 0.052858 0.882000 1.590866
v 0.488131 -0.132385 2.184316
v 0.488470 0.557118 1.903084
v 0.490440 0.887360 1.775370
v 0.931253 -0.145206 1.900066
v 0.958708 0.549191 1.676248
v 0.928022 0.882001 1.590864
v 1.889616 -0.095250 1.065092
v 1.686773 0.579663 1.022985
v 1.502869 0.902349 1.065683
v 1.809599 -0.138178 0.529962
v 1.691936 0.553602 0.497511
v 1.539680 0.885021 0.591762
v 1.692442 -0.136497 -0.258797
v 1.567062 0.554621 -0.181952
v 1.423281 0.885700 0.015465
v 1.146376 -0.156966 -0.932553
v 0.931198 0.541687 -0.736858
v 0.087519 0.654283 -0.852766
v 0.450365 0.701462 -1.101647
v 0.837547 0.647112 -0.931072
v 0.135748 1.169252 -0.575195
v -0.028698 0.970955 -0.733028
v 0.789223 0.811216 -1.270601
v 0.982092 1.110308 -1.172979
v 0.048195 0.812522 -1.130592
v 0.390984 0.896220 -1.397642
v 0.130051 1.274946 -0.778414
v -0.049414 1.112125 -0.978088
v 0.495062 1.330322 -0.731113
v 0.141167 1.372848 -0.950014
v -0.072136 1.284726 -1.193512
v -0.029621 1.065063 -1.419765
v 0.479313 1.455903 -0.935356
v 0.470110 1.596765 -1.094988
v 0.855642 1.332429 -0.948338
v 0.829771 1.484947 -1.218191
v 0.008362 1.103580 -1.406832
v -0.034767 1.304353 -1.223537
v -0.006844 1.207291 -1.170214
v 0.033703 1.015497 -1.358438
v 0.153727 1.369112 -0.999928
v 0.456511 1.577904 -1.134365
v 0.481850 1.489822 -1.085974
v 0.179068 1.281030 -0.951536
v 0.788689 1.470992 -1.245941
v 0.814030 1.382910 -1.197550
v 0.267874 1.236964 -1.698643
v 0.675312 1.111555 -1.683645
v 0.909128 1.349443 -1.560831
v 0.652431 1.146227 -1.647989
v 0.857973 1.361465 -1.557129
v 0.278862 1.264808 -1.664579
v 0.387081 1.357329 -1.458179
v 0.885897 1.264403 -1.503805
v 0.304201 1.176726 -1.616188
v 0.677773 1.058144 -1.599598
v 0.488131 1.934786 -0.451994
v 0.984192 1.934344 -0.339889
v 1.343147 1.935592 0.019055
v 1.475418 1.935591 0.512697
v 1.343147 1.935591 1.006342
v 0.983305 1.935239 1.366451
v 0.488131 1.935591 1.499985
v -0.007044 1.935239 1.366451
v -0.366886 1.935591 1.006342
v -0.499157 1.935591 0.512697
v -0.366886 1.935592 0.019055
v -0.007931 1.934344 -0.339889
v 0.488131 1.934819 -0.369573
v 0.943789 1.934374 -0.266600
v 1.271069 1.935608 0.060669
v 1.392191 1.935591 0.512697
v 1.271065 1.935574 0.964743
v 0.941628 1.935210 1.294426
v -0.294804 1.935574 0.964743
v -0.415930 1.935591 0.512697
v -0.294809 1.935608 0.060669
v 0.032471 1.934374 -0.266600
v 0.943789 1.806081 -0.266548
v 0.488131 1.806526 -0.369524
v 0.032471 1.806081 -0.266548
v -0.294807 1.807315 0.060721
v -0.415930 1.807298 0.512749
v -0.294804 1.807281 0.964794
v 0.941628 1.806917 1.294478
v 1.271065 1.807281 0.964794
v 1.392191 1.807298 0.512749
v 1.271069 1.807315 0.060721
vt 0.385404 0.603737
vt 0.385404 0.579538
vt 0.397504 0.579538
vt 0.397504 0.603737
vt 0.409603 0.579538
vt 0.409603 0.603737
vt 0.421703 0.579538
vt 0.421703 0.603737
vt 0.433802 0.579538
vt 0.433802 0.603737
vt 0.445902 0.579538
vt 0.445902 0.603737
vt 0.458001 0.579538
vt 0.458001 0.603737
vt 0.470100 0.579538
vt 0.470100 0.603737
vt 0.482200 0.579538
vt 0.482200 0.603737
vt 0.494299 0.579538
vt 0.494299 0.603737
vt 0.506399 0.579538
vt 0.506399 0.603737
vt 0.510263 0.716055
vt 0.494299 0.720343
vt 0.494299 0.720343
vt 0.510263 0.716055
vt 0.518498 0.579538
vt 0.518498 0.603737
vt 0.530598 0.579538
vt 0.530598 0.603737
vt 0.518498 0.652135
vt 0.518498 0.627936
vt 0.530598 0.627936
vt 0.530598 0.652135
vt 0.397504 0.615837
vt 0.397504 0.615837
vt 0.397504 0.603737
vt 0.506399 0.652135
vt 0.506399 0.627936
vt 0.506399 0.615837
vt 0.518498 0.615837
vt 0.494299 0.652135
vt 0.494299 0.627936
vt 0.494299 0.615837
vt 0.482200 0.652135
vt 0.482200 0.627936
vt 0.482200 0.615837
vt 0.470100 0.652135
vt 0.470100 0.627936
vt 0.470100 0.615837
vt 0.458001 0.652135
vt 0.458001 0.627936
vt 0.458001 0.615837
vt 0.445902 0.652135
vt 0.445902 0.627936
vt 0.445902 0.615837
vt 0.433802 0.652135
vt 0.433802 0.627936
vt 0.433802 0.615837
vt 0.421703 0.652135
vt 0.421703 0.627936
vt 0.421703 0.615837
vt 0.409603 0.652135
vt 0.409603 0.627936
vt 0.409603 0.615837
vt 0.397504 0.652135
vt 0.397504 0.627936
vt 0.385404 0.652135
vt 0.385404 0.627936
vt 0.518498 0.627936
vt 0.530598 0.627936
vt 0.385404 0.627936
vt 0.397504 0.627936
vt 0.518498 0.603737
vt 0.518498 0.615837
vt 0.397504 0.627936
vt 0.397504 0.615837
vt 0.518498 0.627936
vt 0.530598 0.627936
vt 0.385404 0.627936
vt 0.518498 0.603737
vt 0.518498 0.615837
vt 0.385404 0.603737
vt 0.530598 0.603737
vt 0.518498 0.603737
vt 0.518498 0.615837
vt 0.518498 0.627936
vt 0.530598 0.603737
vt 0.530598 0.603737
vt 0.385404 0.603737
vt 0.397504 0.603737
vt 0.397504 0.603737
vt 0.385404 0.603737
vt 0.519740 0.626381
vt 0.519614 0.615823
vt 0.519614 0.615823
vt 0.519740 0.626381
vt 0.519831 0.605950
vt 0.530639 0.605259
vt 0.530639 0.605259
vt 0.519831 0.605950
vt 0.385364 0.605244
vt 0.396106 0.605775
vt 0.396106 0.605775
vt 0.385364 0.605244
vt 0.385404 0.627936
vt 0.397504 0.627936
vt 0.530598 0.627936
vt 0.397504 0.615837
vt 0.396213 0.626376
vt 0.396374 0.615818
vt 0.530672 0.626421
vt 0.385330 0.626419
vt 0.229614 0.671072
vt 0.229831 0.661199
vt 0.240639 0.660508
vt 0.240598 0.671085
vt 0.095404 0.671085
vt 0.095364 0.660492
vt 0.106106 0.661024
vt 0.106374 0.671067
vt 0.095330 0.681667
vt 0.106213 0.681625
vt 0.229740 0.681629
vt 0.240672 0.681670
vt 0.396374 0.615818
vt 0.385330 0.626419
vt 0.396213 0.626376
vt 0.530672 0.626421
vt 0.494299 0.653587
vt 0.476876 0.658255
vt 0.476876 0.658255
vt 0.494299 0.653587
vt 0.464121 0.671010
vt 0.464121 0.671010
vt 0.459453 0.688433
vt 0.459453 0.688433
vt 0.464121 0.705856
vt 0.464121 0.705856
vt 0.476876 0.718611
vt 0.476876 0.718611
vt 0.494299 0.723279
vt 0.494299 0.723279
vt 0.511722 0.718611
vt 0.511722 0.718611
vt 0.524477 0.705856
vt 0.524477 0.705856
vt 0.529146 0.688433
vt 0.529146 0.688433
vt 0.524477 0.671010
vt 0.524477 0.671010
vt 0.511723 0.658255
vt 0.511723 0.658255
vt 0.494299 0.656653
vt 0.478283 0.660799
vt 0.466672 0.672464
vt 0.462391 0.688427
vt 0.466670 0.704387
vt 0.478335 0.716055
vt 0.521929 0.704387
vt 0.526207 0.688427
vt 0.521927 0.672464
vt 0.510315 0.660799
vt 0.094283 0.645605
vt 0.110299 0.641460
vt 0.126315 0.645605
vt 0.137927 0.657270
vt 0.142207 0.673234
vt 0.137929 0.689193
vt 0.126263 0.700862
vt 0.110299 0.705150
vt 0.094335 0.700862
vt 0.082670 0.689193
vt 0.078391 0.673234
vt 0.082672 0.657270
vt 0.462391 0.688427
vt 0.466670 0.704387
vt 0.521927 0.672464
vt 0.510315 0.660799
vt 0.494299 0.656653
vt 0.478283 0.660799
vt 0.521929 0.704387
vt 0.478335 0.716055
vt 0.466672 0.672464
vt 0.526207 0.688427
vn -0.0045 0.2183 -0.9759
vn 0.6686 0.2448 -0.7022
vn 0.9488 0.2155 -0.2309
vn 0.9532 0.2326 0.1934
vn 0.6784 0.1943 0.7086
vn 0.2927 0.2572 0.9210
vn -0.2927 0.2572 0.9210
vn -0.6784 0.1943 0.7086
vn -0.9510 0.2367 0.1991
vn -0.9466 0.2199 -0.2357
vn 0.2604 -0.0004 -0.9655
vn -0.6414 0.2131 -0.7370
vn -0.0646 0.1703 -0.9833
vn -0.2658 0.4861 -0.8325
vn 0.9268 0.3748 -0.0233
vn -0.6922 0.2890 -0.6613
vn -0.7000 -0.2892 -0.6529
vn -0.9672 0.1815 -0.1778
vn -0.9509 -0.2449 -0.1892
vn -0.9713 0.2323 -0.0506
vn -0.9841 -0.1410 0.1078
vn -0.6386 0.2253 0.7358
vn -0.6788 0.0052 0.7343
vn -0.4718 0.2943 0.8312
vn -0.3620 0.1163 0.9249
vn 0.4718 0.2939 0.8313
vn 0.3619 0.1209 0.9244
vn 0.6387 0.2247 0.7359
vn 0.6786 0.0139 0.7344
vn 0.9712 0.2232 -0.0831
vn 0.9853 -0.1247 0.1165
vn 0.9714 0.1758 -0.1598
vn 0.9511 -0.2331 -0.2027
vn 0.6838 0.2982 -0.6659
vn 0.7095 -0.3111 -0.6323
vn 0.2700 0.4891 -0.8293
vn -0.0774 -0.8768 -0.4746
vn 0.0099 -0.9111 -0.4121
vn 0.5936 0.5108 -0.6219
vn 0.8708 0.4625 -0.1667
vn 0.8908 0.4541 0.0177
vn 0.6427 0.2574 0.7216
vn 0.3978 0.2963 0.8683
vn -0.3973 0.3006 0.8671
vn -0.6412 0.2645 0.7203
vn -0.8831 0.4653 0.0611
vn -0.8480 0.4910 -0.1994
vn -0.5928 0.5276 -0.6085
vn -0.8704 0.4913 -0.0339
vn 0.8537 -0.4242 -0.3022
vn -0.1995 -0.8496 -0.4883
vn 0.0339 -0.8678 -0.4958
vn -0.8227 0.4760 0.3106
vn 0.2861 0.8602 0.4222
vn 0.9421 -0.2462 -0.2278
vn -0.2874 0.8334 0.4720
vn -0.9673 -0.1159 -0.2255
vn -0.7645 0.5174 0.3846
vn -0.9684 -0.2490 -0.0169
vn -0.2192 0.7921 0.5697
vn 0.3461 0.7876 0.5098
vn 0.9003 0.4199 0.1146
vn 0.2588 0.8610 0.4379
vn -0.1926 0.8490 0.4920
vn -0.9512 -0.3019 -0.0637
vn 0.9666 0.2516 -0.0482
vn -0.0473 -0.4914 -0.8697
vn -0.4181 -0.5268 -0.7400
vn 0.7758 -0.1174 -0.6200
vn -0.0825 -0.7550 -0.6505
vn -0.2569 -0.7239 -0.6403
vn 0.7756 -0.4246 -0.4670
vn 0.9186 0.3845 0.0909
vn -0.1230 0.5183 -0.8463
vn -0.5507 0.5222 -0.6512
vn -0.6679 0.6901 -0.2785
vn -0.6102 0.7697 -0.1877
vn 0.2566 0.7409 -0.6206
vn 0.1011 0.8588 -0.5022
vn 0.0681 0.9392 -0.3365
vn -0.3339 0.9424 -0.0212
vn -0.4901 0.8688 -0.0704
vn 0.1566 0.9246 -0.3473
vn 0.0918 0.4970 -0.8629
vn -0.6697 0.5451 -0.5044
vn -0.9414 -0.3234 -0.0958
vn 0.1222 0.5047 0.8546
vn 0.4002 0.5270 0.7497
vn -0.5967 0.2476 0.7633
vn 0.0000 0.0000 1.0000
vn -0.0000 1.0000 -0.0002
vn -0.0003 1.0000 -0.0011
vn -0.0008 1.0000 -0.0010
vn -0.0000 1.0000 -0.0000
vn -0.0004 1.0000 0.0002
vn -0.0001 1.0000 -0.0001
vn 0.0000 1.0000 -0.0006
vn 0.0001 1.0000 -0.0001
vn 0.0004 1.0000 0.0002
vn 0.0008 1.0000 -0.0010
vn 0.0003 1.0000 -0.0011
vn 0.0000 1.0000 -0.0004
vn -0.9659 -0.0001 -0.2588
vn 0.7071 0.0003 0.7071
vn -0.2204 0.0004 0.9754
vn 0.7074 -0.0003 -0.7068
vn -0.7074 -0.0003 -0.7068
vn 0.2204 0.0004 0.9754
vn -0.7071 0.0003 0.7071
vn 0.9659 -0.0001 -0.2588
vn -0.2604 -0.0004 -0.9655
vn -0.9659 0.0001 0.2588
vn 0.9659 0.0001 0.2588
usemtl Color.049
s 1
f 1/1/1 2/2/1 3/3/1 4/4/1
f 4/4/2 3/3/2 5/5/2 6/6/2
f 6/6/3 5/5/3 7/7/3 8/8/3
f 8/8/4 7/7/4 9/9/4 10/10/4
f 10/10/5 9/9/5 11/11/5 12/12/5
f 12/12/6 11/11/6 13/13/6 14/14/6
f 14/14/7 13/13/7 15/15/7 16/16/7
f 16/16/8 15/15/8 17/17/8 18/18/8
f 18/18/9 17/17/9 19/19/9 20/20/9
f 20/20/10 19/19/10 21/21/10 22/22/10
f 23/23/11 24/24/11 25/25/11 26/26/11
f 22/22/12 21/21/12 27/27/12 28/28/12
f 28/28/13 27/27/13 2/29/13 1/30/13
f 29/31/14 30/32/14 31/33/14 32/34/14
f 4/4/15 33/35/15 34/36/15 35/37/15
f 36/38/16 37/39/16 30/32/16 29/31/16
f 38/40/17 22/22/17 28/28/17 39/41/17
f 40/42/18 41/43/18 37/39/18 36/38/18
f 42/44/19 20/20/19 22/22/19 38/40/19
f 43/45/20 44/46/20 41/43/20 40/42/20
f 45/47/21 18/18/21 20/20/21 42/44/21
f 46/48/22 47/49/22 44/46/22 43/45/22
f 48/50/23 16/16/23 18/18/23 45/47/23
f 49/51/24 50/52/24 47/49/24 46/48/24
f 51/53/25 14/14/25 16/16/25 48/50/25
f 52/54/26 53/55/26 50/52/26 49/51/26
f 54/56/27 12/12/27 14/14/27 51/53/27
f 55/57/28 56/58/28 53/55/28 52/54/28
f 57/59/29 10/10/29 12/12/29 54/56/29
f 58/60/30 59/61/30 56/58/30 55/57/30
f 60/62/31 8/8/31 10/10/31 57/59/31
f 61/63/32 62/64/32 59/61/32 58/60/32
f 63/65/33 6/6/33 8/8/33 60/62/33
f 64/66/34 65/67/34 62/64/34 61/63/34
f 33/35/35 4/4/35 6/6/35 63/65/35
f 32/68/36 31/69/36 65/67/36 64/66/36
f 31/33/37 30/32/37 66/70/37 67/71/37
f 65/67/38 31/69/38 67/72/38 68/73/38
f 65/67/39 33/35/39 63/65/39 62/64/39
f 62/64/40 63/65/40 60/62/40 59/61/40
f 59/61/41 60/62/41 57/59/41 56/58/41
f 56/58/42 57/59/42 54/56/42 53/55/42
f 53/55/43 54/56/43 51/53/43 50/52/43
f 50/52/44 51/53/44 48/50/44 47/49/44
f 47/49/45 48/50/45 45/47/45 44/46/45
f 44/46/46 45/47/46 42/44/46 41/43/46
f 41/43/47 42/44/47 38/40/47 37/39/47
f 37/39/48 38/40/48 39/41/48 30/32/48
f 39/41/49 28/28/49 69/74/49 70/75/49
f 34/36/50 68/73/50 71/76/50 72/77/50
f 67/71/51 66/70/51 73/78/51 74/79/51
f 68/73/52 67/72/52 74/80/52 71/76/52
f 70/75/53 69/74/53 75/81/53 76/82/53
f 1/1/54 4/4/54 35/37/54 77/83/54
f 33/35/55 65/67/55 68/73/55 34/36/55
f 28/28/56 1/30/56 77/84/56 69/74/56
f 30/32/57 39/41/57 70/75/57 66/70/57
f 76/82/58 75/81/58 78/85/58 79/86/58
f 73/78/59 76/82/59 79/86/59 80/87/59
f 75/81/60 81/88/60 82/89/60 78/85/60
f 81/90/61 83/91/61 84/92/61 82/93/61
f 35/37/62 34/36/62 72/77/62 83/91/62
f 77/83/63 35/37/63 83/91/63 81/90/63
f 69/74/64 77/84/64 81/88/64 75/81/64
f 66/70/65 70/75/65 76/82/65 73/78/65
f 85/94/66 86/95/66 87/96/66 88/97/66
f 89/98/67 90/99/67 91/100/67 92/101/67
f 90/102/68 93/103/68 94/104/68 91/105/68
f 86/95/69 89/98/69 92/101/69 87/96/69
f 71/76/70 74/80/70 95/106/70 96/107/70
f 74/79/71 73/78/71 80/87/71 95/108/71
f 72/77/72 71/76/72 96/107/72 97/109/72
f 83/91/73 72/77/73 97/109/73 84/92/73
f 98/110/74 99/111/74 97/109/74 96/107/74
f 86/95/75 85/94/75 80/87/75 79/86/75
f 85/94/76 100/112/76 95/108/76 80/87/76
f 90/99/77 89/98/77 78/85/77 82/89/77
f 100/113/78 98/110/78 96/107/78 95/106/78
f 93/103/79 90/102/79 82/93/79 84/92/79
f 99/111/80 93/103/80 84/92/80 97/109/80
f 89/98/81 86/95/81 79/86/81 78/85/81
f 87/114/82 92/115/82 91/116/82 101/117/82
f 101/118/83 91/119/83 94/120/83 102/121/83
f 103/122/84 101/118/84 102/121/84 104/123/84
f 88/124/85 87/114/85 101/117/85 103/125/85
f 93/103/86 99/111/86 102/126/86 94/104/86
f 98/110/87 100/113/87 103/127/87 104/128/87
f 100/112/88 85/94/88 88/97/88 103/129/88
f 99/111/89 98/110/89 104/128/89 102/126/89
f 105/130/90 106/131/90 3/132/90 2/133/90
f 106/131/90 107/134/90 5/135/90 3/132/90
f 107/134/90 108/136/90 7/137/90 5/135/90
f 108/136/90 109/138/90 9/139/90 7/137/90
f 109/138/90 110/140/90 11/141/90 9/139/90
f 110/140/90 111/142/90 13/143/90 11/141/90
f 111/142/90 112/144/90 15/145/90 13/143/90
f 112/144/90 113/146/90 17/147/90 15/145/90
f 113/146/90 114/148/90 19/149/90 17/147/90
f 114/148/90 115/150/90 21/151/90 19/149/90
f 115/150/90 116/152/90 27/153/90 21/151/90
f 116/152/90 105/130/90 2/133/90 27/153/90
f 117/154/91 118/155/92 106/131/92 105/130/91
f 118/155/92 119/156/93 107/134/93 106/131/92
f 119/156/93 120/157/94 108/136/94 107/134/93
f 120/157/94 121/158/95 109/138/95 108/136/94
f 121/158/95 122/159/96 110/140/96 109/138/95
f 122/159/96 24/24/97 111/142/97 110/140/96
f 24/24/97 23/23/98 112/144/98 111/142/97
f 23/23/98 123/160/99 113/146/99 112/144/98
f 123/160/99 124/161/94 114/148/94 113/146/99
f 124/161/94 125/162/100 115/150/100 114/148/94
f 125/162/100 126/163/101 116/152/101 115/150/100
f 126/163/101 117/154/91 105/130/91 116/152/101
f 127/164/102 128/165/102 129/166/102 130/167/102 131/168/102 132/169/102 26/170/102 25/171/102 133/172/102 134/173/102 135/174/102 136/175/102
f 121/158/103 120/157/103 135/176/103 134/177/103
f 126/163/104 125/162/104 130/178/104 129/179/104
f 118/155/105 117/154/105 128/180/105 127/181/105
f 123/160/106 23/23/106 26/26/106 132/182/106
f 122/159/107 121/158/107 134/177/107 133/183/107
f 117/154/108 126/163/108 129/179/108 128/180/108
f 119/156/109 118/155/109 127/181/109 136/184/109
f 124/161/110 123/160/110 132/182/110 131/185/110
f 24/24/111 122/159/111 133/183/111 25/25/111
f 120/157/112 119/156/112 136/184/112 135/176/112
f 125/162/113 124/161/113 131/185/113 130/178/113
