# Blender v2.80 (sub 35) OBJ File: ''
# www.blender.org
mtllib wooden_barrel.mtl
o Cylinder.003
v 0.146412 3.657708 -1.252025
v 0.146412 4.282499 -0.996048
v 0.594580 4.282499 -0.875961
v 0.722569 3.657708 -1.097645
v 0.922663 4.282499 -0.547880
v 1.144344 3.657708 -0.675869
v 1.042747 4.282499 -0.099712
v 1.298725 3.657708 -0.099712
v 0.922663 4.282499 0.348456
v 1.144344 3.657708 0.476444
v 0.594580 4.282499 0.676537
v 0.722569 3.657708 0.898220
v 0.146412 4.282499 0.796624
v 0.146412 3.657707 1.052601
v -0.301756 4.282499 0.676539
v -0.429745 3.657708 0.898220
v -0.629837 4.282499 0.348456
v -0.851521 3.657708 0.476444
v -0.749924 4.282499 -0.099712
v -1.005901 3.657708 -0.099712
v -0.629839 4.282499 -0.547880
v -0.851521 3.657708 -0.675869
v -0.262951 4.282499 0.609326
v 0.146412 4.282499 0.719014
v 0.146412 4.159678 0.719014
v -0.262951 4.159678 0.609326
v -0.301756 4.282499 -0.875961
v -0.429745 3.657708 -1.097645
v -0.311287 0.012510 -0.892468
v -0.429745 0.588308 -1.097645
v 0.146412 0.588308 -1.252026
v 0.146412 0.012510 -1.015110
v -0.527502 1.561032 -1.266964
v -0.555807 2.114843 -1.315989
v 0.146412 2.114843 -1.504148
v 0.146412 1.561033 -1.447538
v -0.490770 3.127506 -1.203342
v 0.146412 3.127506 -1.374075
v -0.646345 0.012510 -0.557412
v -0.851521 0.588308 -0.675869
v -1.020840 1.561032 -0.773625
v -1.069866 2.114843 -0.801930
v -0.957218 3.127506 -0.736893
v -0.768984 0.012510 -0.099713
v -1.005901 0.588308 -0.099713
v -1.201414 1.561032 -0.099713
v -1.258024 2.114843 -0.099712
v -1.127951 3.127506 -0.099712
v -0.646345 0.012510 0.357986
v -0.851521 0.588307 0.476444
v -1.020840 1.561032 0.574201
v -1.069864 2.114842 0.602505
v -0.957218 3.127506 0.537470
v -0.311287 0.012509 0.693044
v -0.429745 0.588307 0.898220
v -0.527500 1.561032 1.067539
v -0.555805 2.114842 1.116566
v -0.490768 3.127506 1.003918
v 0.146412 0.012509 0.815685
v 0.146412 0.588307 1.052601
v 0.146412 1.561031 1.248114
v 0.146412 2.114842 1.304724
v 0.146412 3.127506 1.174650
v 0.604111 0.012509 0.693044
v 0.722569 0.588307 0.898220
v 0.820324 1.561032 1.067539
v 0.848629 2.114842 1.116564
v 0.783592 3.127506 1.003918
v 0.939169 0.012510 0.357986
v 1.144344 0.588307 0.476444
v 1.313663 1.561032 0.574201
v 1.362688 2.114842 0.602505
v 1.250042 3.127506 0.537470
v 1.061808 0.012510 -0.099713
v 1.298725 0.588308 -0.099713
v 1.494238 1.561032 -0.099713
v 1.550848 2.114843 -0.099712
v 1.420774 3.127506 -0.099712
v 0.939169 0.012510 -0.557412
v 1.144344 0.588308 -0.675869
v 1.313663 1.561032 -0.773625
v 1.362688 2.114843 -0.801930
v 1.250042 3.127506 -0.736893
v 0.604111 0.012510 -0.892470
v 0.722569 0.588308 -1.097645
v 0.820324 1.561032 -1.266964
v 0.848629 2.114843 -1.315989
v 0.783592 3.127506 -1.203342
v 0.146412 2.913445 -1.423349
v 0.808231 2.913445 -1.246015
v 1.292717 2.913445 -0.761532
v 1.470051 2.913445 -0.099712
v 1.292717 2.913445 0.562107
v 0.808231 2.913445 1.046593
v 0.146412 2.913445 1.223927
v -0.515408 2.913445 1.046593
v -0.999891 2.913445 0.562107
v -1.177227 2.913445 -0.099712
v -0.999893 2.913445 -0.761530
v -0.515408 2.913445 -1.246015
v 0.146412 1.324406 -1.423350
v 0.808231 1.324406 -1.246016
v 1.292717 1.324406 -0.761532
v 1.470051 1.324406 -0.099713
v 1.292717 1.324406 0.562107
v 0.808231 1.324405 1.046592
v 0.146412 1.324405 1.223926
v -0.515408 1.324405 1.046592
v -0.999891 1.324406 0.562107
v -1.177227 1.324406 -0.099713
v -0.999893 1.324406 -0.761530
v -0.515408 1.324406 -1.246016
v 0.146412 4.282499 -0.918438
v 0.555775 4.282499 -0.808750
v 0.855450 4.282499 -0.509075
v 0.965137 4.282499 -0.099712
v 0.855450 4.282499 0.309651
v 0.555775 4.282499 0.609326
v -0.562626 4.282499 0.309651
v -0.672314 4.282499 -0.099712
v -0.562626 4.282499 -0.509075
v -0.262951 4.282499 -0.808750
v 0.555775 4.159678 -0.808750
v 0.146412 4.159678 -0.918438
v -0.262951 4.159678 -0.808750
v -0.562626 4.159678 -0.509075
v -0.672314 4.159678 -0.099712
v -0.562626 4.159678 0.309651
v 0.555775 4.159678 0.609326
v 0.855450 4.159678 0.309651
v 0.965137 4.159678 -0.099712
v 0.855450 4.159678 -0.509075
v -1.285658 1.313322 -0.099713
v -1.093798 1.313322 -0.815746
v 0.874540 1.549948 1.161444
v 1.407568 1.549949 0.628416
v 0.146412 2.937896 1.330145
v -0.568516 2.937896 1.138580
v -0.543879 3.151956 1.095905
v 0.146412 3.151956 1.280869
v -1.093796 1.313322 0.616323
v 1.602669 1.549949 -0.099713
v 0.861340 2.937896 1.138580
v 0.836702 3.151956 1.095905
v -0.569622 1.313321 1.140495
v 1.407568 1.549949 -0.827841
v 1.384705 2.937896 0.615215
v 1.342030 3.151957 0.590578
v 0.146412 1.313321 1.332357
v 0.874540 1.549949 -1.360867
v 1.576269 2.937896 -0.099712
v 1.526993 3.151957 -0.099712
v 0.862446 1.313321 1.140495
v 0.146412 1.549949 -1.555969
v 1.384705 2.937896 -0.814640
v 1.342030 3.151957 -0.790003
v 1.386620 1.313322 0.616323
v 0.861340 2.937896 -1.338003
v 0.836702 3.151957 -1.295330
v 1.578482 1.313322 -0.099713
v 0.146412 1.313323 -1.531780
v 0.862446 1.313322 -1.339920
v 1.386620 1.313322 -0.815746
v 0.146412 1.549948 1.356544
v -0.581717 1.549948 1.161444
v -1.114744 1.549949 0.628416
v -1.309845 1.549949 -0.099713
v -1.114744 1.549949 -0.827839
v -0.581717 1.549949 -1.360867
v -0.569624 1.313322 -1.339920
v 0.146412 2.937896 -1.529568
v 0.146412 3.151957 -1.480293
v -1.049206 3.151957 0.590578
v -1.091881 2.937896 0.615215
v -1.234169 3.151957 -0.099712
v -1.283443 2.937896 -0.099712
v -1.049206 3.151957 -0.790001
v -1.091881 2.937896 -0.814640
v -0.543879 3.151957 -1.295330
v -0.568518 2.937896 -1.338003
vt 0.253374 0.717842
vt 0.253374 0.741686
vt 0.237479 0.741686
vt 0.237479 0.717842
vt 0.221583 0.741686
vt 0.221583 0.717842
vt 0.205687 0.741686
vt 0.205687 0.717842
vt 0.189792 0.741686
vt 0.189792 0.717842
vt 0.173896 0.741686
vt 0.173896 0.717842
vt 0.158000 0.741686
vt 0.158000 0.717842
vt 0.142104 0.741686
vt 0.142104 0.717842
vt 0.126209 0.741686
vt 0.126209 0.717842
vt 0.110313 0.741686
vt 0.110313 0.717842
vt 0.094417 0.741686
vt 0.094417 0.717842
vt 0.089405 0.562411
vt 0.110313 0.556808
vt 0.110313 0.556808
vt 0.089405 0.562411
vt 0.078521 0.741686
vt 0.078521 0.717842
vt 0.062626 0.741686
vt 0.062626 0.717842
vt 0.078521 0.646312
vt 0.078521 0.670155
vt 0.062626 0.670155
vt 0.062626 0.646312
vt 0.078521 0.685646
vt 0.078521 0.693999
vt 0.062626 0.693999
vt 0.062626 0.685646
vt 0.078521 0.709349
vt 0.062626 0.709349
vt 0.094417 0.646312
vt 0.094417 0.670155
vt 0.094417 0.685646
vt 0.094417 0.693999
vt 0.094417 0.709349
vt 0.110313 0.646312
vt 0.110313 0.670155
vt 0.110313 0.685646
vt 0.110313 0.693999
vt 0.110313 0.709349
vt 0.126209 0.646312
vt 0.126209 0.670155
vt 0.126209 0.685646
vt 0.126209 0.693999
vt 0.126209 0.709349
vt 0.142104 0.646312
vt 0.142104 0.670155
vt 0.142104 0.685646
vt 0.142104 0.693999
vt 0.142104 0.709349
vt 0.158000 0.646312
vt 0.158000 0.670155
vt 0.158000 0.685646
vt 0.158000 0.693999
vt 0.158000 0.709349
vt 0.173896 0.646312
vt 0.173896 0.670155
vt 0.173896 0.685646
vt 0.173896 0.693999
vt 0.173896 0.709349
vt 0.189792 0.646312
vt 0.189792 0.670155
vt 0.189792 0.685646
vt 0.189792 0.693999
vt 0.189792 0.709350
vt 0.205687 0.646312
vt 0.205687 0.670155
vt 0.205687 0.685646
vt 0.205687 0.693999
vt 0.205687 0.709349
vt 0.221583 0.646312
vt 0.221583 0.670155
vt 0.221583 0.685646
vt 0.221583 0.693999
vt 0.221583 0.709349
vt 0.237479 0.646312
vt 0.237479 0.670155
vt 0.237479 0.685646
vt 0.237479 0.693999
vt 0.237479 0.709349
vt 0.253374 0.646312
vt 0.253374 0.670155
vt 0.253374 0.685646
vt 0.253374 0.693999
vt 0.253374 0.709349
vt 0.253374 0.705921
vt 0.237479 0.705921
vt 0.221583 0.705921
vt 0.205687 0.705921
vt 0.189792 0.705921
vt 0.173896 0.705921
vt 0.158000 0.705921
vt 0.142104 0.705921
vt 0.126209 0.705921
vt 0.110313 0.705921
vt 0.094417 0.705921
vt 0.078521 0.705921
vt 0.062626 0.705921
vt 0.253374 0.682077
vt 0.237479 0.682077
vt 0.221583 0.682077
vt 0.205687 0.682077
vt 0.189792 0.682077
vt 0.173896 0.682077
vt 0.158000 0.682077
vt 0.142104 0.682077
vt 0.126209 0.682077
vt 0.110313 0.682077
vt 0.094417 0.682077
vt 0.078521 0.682077
vt 0.062626 0.682077
vt 0.110313 0.640440
vt 0.131221 0.634838
vt 0.133203 0.638271
vt 0.110313 0.644404
vt 0.146526 0.619532
vt 0.149959 0.621514
vt 0.152129 0.598624
vt 0.156093 0.598624
vt 0.146526 0.577716
vt 0.149959 0.575734
vt 0.131221 0.562411
vt 0.133203 0.558978
vt 0.110313 0.552845
vt 0.087423 0.558978
vt 0.074099 0.577716
vt 0.070666 0.575734
vt 0.068497 0.598624
vt 0.064533 0.598624
vt 0.074099 0.619532
vt 0.070666 0.621514
vt 0.089405 0.634838
vt 0.087423 0.638271
vt 0.131221 0.634838
vt 0.110313 0.640440
vt 0.089405 0.634838
vt 0.074099 0.619532
vt 0.068497 0.598624
vt 0.074099 0.577716
vt 0.131221 0.562411
vt 0.146526 0.577716
vt 0.152129 0.598624
vt 0.146526 0.619532
vt 0.428417 0.371304
vt 0.444313 0.371304
vt 0.444313 0.371304
vt 0.428417 0.371304
vt 0.523792 0.374872
vt 0.507896 0.374872
vt 0.507896 0.374872
vt 0.523792 0.374872
vt 0.476104 0.395147
vt 0.492000 0.395147
vt 0.492000 0.395147
vt 0.476104 0.395147
vt 0.492000 0.398576
vt 0.476104 0.398576
vt 0.476104 0.398576
vt 0.492000 0.398576
vt 0.460209 0.371304
vt 0.460209 0.371304
vt 0.539687 0.374872
vt 0.539687 0.374872
vt 0.507896 0.395147
vt 0.507896 0.395147
vt 0.507896 0.398576
vt 0.507896 0.398576
vt 0.476104 0.371304
vt 0.476104 0.371304
vt 0.555583 0.374872
vt 0.555583 0.374872
vt 0.523792 0.395147
vt 0.523792 0.395147
vt 0.523792 0.398576
vt 0.523792 0.398576
vt 0.492000 0.371304
vt 0.492000 0.371304
vt 0.571479 0.374872
vt 0.571479 0.374872
vt 0.539687 0.395147
vt 0.539687 0.395147
vt 0.539687 0.398576
vt 0.539687 0.398576
vt 0.507896 0.371304
vt 0.507896 0.371304
vt 0.587374 0.374872
vt 0.587374 0.374872
vt 0.555583 0.395147
vt 0.555583 0.395147
vt 0.555583 0.398576
vt 0.555583 0.398576
vt 0.523792 0.371304
vt 0.523792 0.371304
vt 0.571479 0.395147
vt 0.571479 0.395147
vt 0.571479 0.398576
vt 0.571479 0.398576
vt 0.539687 0.371304
vt 0.539687 0.371304
vt 0.587374 0.371304
vt 0.571479 0.371304
vt 0.555583 0.371304
vt 0.492000 0.374872
vt 0.476104 0.374872
vt 0.460209 0.374872
vt 0.444313 0.374872
vt 0.428417 0.374872
vt 0.412521 0.374872
vt 0.412521 0.371304
vt 0.396626 0.374872
vt 0.396626 0.371304
vt 0.587374 0.395147
vt 0.587374 0.398576
vt 0.460209 0.398576
vt 0.460209 0.395147
vt 0.444313 0.398576
vt 0.444313 0.395147
vt 0.428417 0.398576
vt 0.428417 0.395147
vt 0.412521 0.398576
vt 0.412521 0.395147
vt 0.396626 0.398576
vt 0.396626 0.395147
vt 0.460209 0.398576
vt 0.460209 0.395147
vt 0.492000 0.374872
vt 0.412521 0.371304
vt 0.444313 0.398576
vt 0.444313 0.395147
vt 0.476104 0.374872
vt 0.396626 0.371304
vt 0.428417 0.398576
vt 0.428417 0.395147
vt 0.460209 0.374872
vt 0.412521 0.398576
vt 0.412521 0.395147
vt 0.444313 0.374872
vt 0.396626 0.398576
vt 0.571479 0.371304
vt 0.587374 0.371304
vt 0.396626 0.395147
vt 0.428417 0.374872
vt 0.555583 0.371304
vt 0.412521 0.374872
vt 0.587374 0.398576
vt 0.396626 0.374872
vt 0.587374 0.395147
vn 0.2407 0.3680 -0.8982
vn 0.6575 0.3680 -0.6575
vn 0.8982 0.3680 -0.2407
vn 0.8982 0.3680 0.2407
vn 0.6575 0.3680 0.6575
vn 0.2407 0.3680 0.8982
vn -0.2407 0.3680 0.8982
vn -0.6575 0.3680 0.6575
vn -0.8982 0.3680 0.2407
vn -0.8982 0.3680 -0.2407
vn 0.2588 0.0000 -0.9659
vn -0.6575 0.3680 -0.6575
vn -0.2407 0.3680 -0.8982
vn -0.2405 -0.3693 -0.8976
vn -0.2576 -0.0983 -0.9613
vn -0.2526 0.2170 -0.9429
vn -0.6571 -0.3693 -0.6571
vn -0.7037 -0.0983 -0.7037
vn -0.6903 0.2170 -0.6902
vn -0.8976 -0.3693 -0.2405
vn -0.9613 -0.0983 -0.2576
vn -0.9429 0.2170 -0.2526
vn -0.8976 -0.3693 0.2405
vn -0.9613 -0.0983 0.2576
vn -0.9429 0.2170 0.2526
vn -0.6571 -0.3693 0.6571
vn -0.7037 -0.0983 0.7037
vn -0.6902 0.2170 0.6903
vn -0.2405 -0.3693 0.8976
vn -0.2576 -0.0983 0.9613
vn -0.2526 0.2170 0.9429
vn 0.2405 -0.3693 0.8976
vn 0.2576 -0.0983 0.9613
vn 0.2526 0.2170 0.9429
vn 0.6571 -0.3693 0.6571
vn 0.7037 -0.0983 0.7037
vn 0.6902 0.2170 0.6903
vn 0.8976 -0.3693 0.2405
vn 0.9613 -0.0983 0.2576
vn 0.9429 0.2170 0.2526
vn 0.8976 -0.3693 -0.2405
vn 0.9613 -0.0983 -0.2576
vn 0.9429 0.2170 -0.2526
vn 0.6571 -0.3693 -0.6571
vn 0.7037 -0.0983 -0.7037
vn 0.6902 0.2170 -0.6902
vn 0.2405 -0.3693 -0.8976
vn 0.2576 -0.0983 -0.9613
vn 0.2526 0.2170 -0.9429
vn 0.2576 0.0973 -0.9613
vn 0.7038 0.0973 -0.7038
vn 0.9613 0.0973 -0.2576
vn 0.9613 0.0973 0.2576
vn 0.7038 0.0973 0.7038
vn 0.2576 0.0973 0.9613
vn -0.2576 0.0973 0.9613
vn -0.7038 0.0973 0.7038
vn -0.9613 0.0973 0.2576
vn -0.9613 0.0973 -0.2576
vn -0.7038 0.0973 -0.7038
vn -0.2576 0.0973 -0.9613
vn 0.2525 -0.2193 -0.9424
vn 0.6899 -0.2193 -0.6899
vn 0.9424 -0.2193 -0.2525
vn 0.9424 -0.2193 0.2525
vn 0.6899 -0.2193 0.6899
vn 0.2525 -0.2193 0.9424
vn -0.2525 -0.2193 0.9424
vn -0.6899 -0.2193 0.6899
vn -0.9424 -0.2193 0.2525
vn -0.9424 -0.2193 -0.2525
vn -0.6899 -0.2193 -0.6899
vn -0.2525 -0.2193 -0.9424
vn 0.0000 1.0000 0.0000
vn -0.9659 0.0000 -0.2588
vn 0.7071 -0.0000 0.7071
vn -0.2588 0.0000 0.9659
vn 0.7071 0.0000 -0.7071
vn -0.7071 0.0000 -0.7071
vn 0.2588 0.0000 0.9659
vn -0.7071 -0.0000 0.7071
vn 0.9659 0.0000 -0.2588
vn -0.2588 0.0000 -0.9659
vn -0.9659 0.0000 0.2588
vn 0.9659 -0.0000 0.2588
vn 0.1017 -0.9944 0.0272
vn 0.0744 0.9944 0.0744
vn -0.0600 -0.9728 0.2239
vn 0.0600 0.9728 -0.2239
vn 0.1017 -0.9944 -0.0272
vn 0.1016 0.9944 0.0272
vn 0.0600 -0.9728 0.2239
vn -0.0600 0.9728 -0.2239
vn 0.0744 -0.9944 -0.0744
vn 0.1016 0.9944 -0.0272
vn 0.1639 -0.9728 0.1639
vn -0.1639 0.9728 -0.1639
vn 0.0272 -0.9944 -0.1017
vn 0.0744 0.9944 -0.0744
vn 0.2239 -0.9728 0.0600
vn -0.2239 0.9728 -0.0600
vn -0.0272 -0.9944 -0.1017
vn 0.0272 0.9944 -0.1016
vn 0.2239 -0.9728 -0.0600
vn -0.2239 0.9728 0.0600
vn -0.0744 -0.9944 -0.0744
vn 0.1639 -0.9728 -0.1639
vn -0.1639 0.9728 0.1639
vn -0.1017 -0.9944 -0.0272
vn 0.6902 0.2170 -0.6903
vn 0.9429 0.2171 -0.2526
vn 0.9429 0.2171 0.2526
vn 0.6902 0.2171 0.6902
vn 0.2526 0.2171 0.9429
vn -0.2526 0.2171 0.9429
vn -0.6902 0.2171 0.6902
vn -0.9429 0.2171 -0.2526
vn -0.6902 0.2171 -0.6902
vn 0.1639 0.9728 -0.1639
vn -0.1639 -0.9728 0.1639
vn 0.0272 0.9944 0.1016
vn 0.0744 -0.9944 0.0744
vn 0.2239 0.9728 -0.0600
vn -0.2239 -0.9728 0.0600
vn -0.0272 0.9944 0.1016
vn 0.0272 -0.9944 0.1016
vn 0.2239 0.9728 0.0600
vn -0.2239 -0.9728 -0.0600
vn -0.0744 0.9944 0.0744
vn 0.1639 0.9728 0.1639
vn -0.1639 -0.9728 -0.1639
vn -0.1016 0.9944 0.0272
vn 0.0600 0.9728 0.2239
vn -0.0272 -0.9944 0.1016
vn -0.0600 -0.9728 -0.2239
vn -0.1016 0.9944 -0.0272
vn -0.0744 -0.9944 0.0744
vn -0.0744 0.9944 -0.0744
vn -0.1017 -0.9944 0.0272
vn -0.0600 0.9728 0.2239
vn -0.0272 0.9944 -0.1016
vn 0.0600 -0.9728 -0.2239
usemtl Color.032
s 1
f 1/1/1 2/2/1 3/3/1 4/4/1
f 4/4/2 3/3/2 5/5/2 6/6/2
f 6/6/3 5/5/3 7/7/3 8/8/3
f 8/8/4 7/7/4 9/9/4 10/10/4
f 10/10/5 9/9/5 11/11/5 12/12/5
f 12/12/6 11/11/6 13/13/6 14/14/6
f 14/14/7 13/13/7 15/15/7 16/16/7
f 16/16/8 15/15/8 17/17/8 18/18/8
f 18/18/9 17/17/9 19/19/9 20/20/9
f 20/20/10 19/19/10 21/21/10 22/22/10
f 23/23/11 24/24/11 25/25/11 26/26/11
f 22/22/12 21/21/12 27/27/12 28/28/12
f 28/28/13 27/27/13 2/29/13 1/30/13
f 29/31/14 30/32/14 31/33/14 32/34/14
f 33/35/15 34/36/15 35/37/15 36/38/15
f 37/39/16 28/28/16 1/30/16 38/40/16
f 39/41/17 40/42/17 30/32/17 29/31/17
f 41/43/18 42/44/18 34/36/18 33/35/18
f 43/45/19 22/22/19 28/28/19 37/39/19
f 44/46/20 45/47/20 40/42/20 39/41/20
f 46/48/21 47/49/21 42/44/21 41/43/21
f 48/50/22 20/20/22 22/22/22 43/45/22
f 49/51/23 50/52/23 45/47/23 44/46/23
f 51/53/24 52/54/24 47/49/24 46/48/24
f 53/55/25 18/18/25 20/20/25 48/50/25
f 54/56/26 55/57/26 50/52/26 49/51/26
f 56/58/27 57/59/27 52/54/27 51/53/27
f 58/60/28 16/16/28 18/18/28 53/55/28
f 59/61/29 60/62/29 55/57/29 54/56/29
f 61/63/30 62/64/30 57/59/30 56/58/30
f 63/65/31 14/14/31 16/16/31 58/60/31
f 64/66/32 65/67/32 60/62/32 59/61/32
f 66/68/33 67/69/33 62/64/33 61/63/33
f 68/70/34 12/12/34 14/14/34 63/65/34
f 69/71/35 70/72/35 65/67/35 64/66/35
f 71/73/36 72/74/36 67/69/36 66/68/36
f 73/75/37 10/10/37 12/12/37 68/70/37
f 74/76/38 75/77/38 70/72/38 69/71/38
f 76/78/39 77/79/39 72/74/39 71/73/39
f 78/80/40 8/8/40 10/10/40 73/75/40
f 79/81/41 80/82/41 75/77/41 74/76/41
f 81/83/42 82/84/42 77/79/42 76/78/42
f 83/85/43 6/6/43 8/8/43 78/80/43
f 84/86/44 85/87/44 80/82/44 79/81/44
f 86/88/45 87/89/45 82/84/45 81/83/45
f 88/90/46 4/4/46 6/6/46 83/85/46
f 32/91/47 31/92/47 85/87/47 84/86/47
f 36/93/48 35/94/48 87/89/48 86/88/48
f 38/95/49 1/1/49 4/4/49 88/90/49
f 35/94/50 89/96/50 90/97/50 87/89/50
f 87/89/51 90/97/51 91/98/51 82/84/51
f 82/84/52 91/98/52 92/99/52 77/79/52
f 77/79/53 92/99/53 93/100/53 72/74/53
f 72/74/54 93/100/54 94/101/54 67/69/54
f 67/69/55 94/101/55 95/102/55 62/64/55
f 62/64/56 95/102/56 96/103/56 57/59/56
f 57/59/57 96/103/57 97/104/57 52/54/57
f 52/54/58 97/104/58 98/105/58 47/49/58
f 47/49/59 98/105/59 99/106/59 42/44/59
f 42/44/60 99/106/60 100/107/60 34/36/60
f 34/36/61 100/107/61 89/108/61 35/37/61
f 31/92/62 101/109/62 102/110/62 85/87/62
f 85/87/63 102/110/63 103/111/63 80/82/63
f 80/82/64 103/111/64 104/112/64 75/77/64
f 75/77/65 104/112/65 105/113/65 70/72/65
f 70/72/66 105/113/66 106/114/66 65/67/66
f 65/67/67 106/114/67 107/115/67 60/62/67
f 60/62/68 107/115/68 108/116/68 55/57/68
f 55/57/69 108/116/69 109/117/69 50/52/69
f 50/52/70 109/117/70 110/118/70 45/47/70
f 45/47/71 110/118/71 111/119/71 40/42/71
f 40/42/72 111/119/72 112/120/72 30/32/72
f 30/32/73 112/120/73 101/121/73 31/33/73
f 113/122/74 114/123/74 3/124/74 2/125/74
f 114/123/74 115/126/74 5/127/74 3/124/74
f 115/126/74 116/128/74 7/129/74 5/127/74
f 116/128/74 117/130/74 9/131/74 7/129/74
f 117/130/74 118/132/74 11/133/74 9/131/74
f 118/132/74 24/24/74 13/134/74 11/133/74
f 24/24/74 23/23/74 15/135/74 13/134/74
f 23/23/74 119/136/74 17/137/74 15/135/74
f 119/136/74 120/138/74 19/139/74 17/137/74
f 120/138/74 121/140/74 21/141/74 19/139/74
f 121/140/74 122/142/74 27/143/74 21/141/74
f 122/142/74 113/122/74 2/125/74 27/143/74
f 123/144/74 124/145/74 125/146/74 126/147/74 127/148/74 128/149/74 26/26/74 25/25/74 129/150/74 130/151/74 131/152/74 132/153/74
f 117/130/75 116/128/75 131/152/75 130/151/75
f 122/142/76 121/140/76 126/147/76 125/146/76
f 114/123/77 113/122/77 124/145/77 123/144/77
f 119/136/78 23/23/78 26/26/78 128/149/78
f 118/132/79 117/130/79 130/151/79 129/150/79
f 113/122/80 122/142/80 125/146/80 124/145/80
f 115/126/81 114/123/81 123/144/81 132/153/81
f 120/138/82 119/136/82 128/149/82 127/148/82
f 24/24/83 118/132/83 129/150/83 25/25/83
f 116/128/84 115/126/84 132/153/84 131/152/84
f 121/140/85 120/138/85 127/148/85 126/147/85
f 111/154/86 110/155/86 133/156/86 134/157/86
f 71/158/87 66/159/87 135/160/87 136/161/87
f 96/162/88 95/163/88 137/164/88 138/165/88
f 63/166/89 58/167/89 139/168/89 140/169/89
f 110/155/90 109/170/90 141/171/90 133/156/90
f 76/172/91 71/158/91 136/161/91 142/173/91
f 95/163/92 94/174/92 143/175/92 137/164/92
f 68/176/93 63/166/93 140/169/93 144/177/93
f 109/170/94 108/178/94 145/179/94 141/171/94
f 81/180/95 76/172/95 142/173/95 146/181/95
f 94/174/96 93/182/96 147/183/96 143/175/96
f 73/184/97 68/176/97 144/177/97 148/185/97
f 108/178/98 107/186/98 149/187/98 145/179/98
f 86/188/99 81/180/99 146/181/99 150/189/99
f 93/182/100 92/190/100 151/191/100 147/183/100
f 78/192/101 73/184/101 148/185/101 152/193/101
f 107/186/102 106/194/102 153/195/102 149/187/102
f 36/196/103 86/188/103 150/189/103 154/197/103
f 92/190/104 91/198/104 155/199/104 151/191/104
f 83/200/105 78/192/105 152/193/105 156/201/105
f 106/194/106 105/202/106 157/203/106 153/195/106
f 91/198/107 90/204/107 158/205/107 155/199/107
f 88/206/108 83/200/108 156/201/108 159/207/108
f 105/202/109 104/208/109 160/209/109 157/203/109
f 161/210/48 154/197/48 150/189/48 162/211/48
f 162/211/45 150/189/45 146/181/45 163/212/45
f 163/212/42 146/181/42 142/173/42 160/209/42
f 160/209/39 142/173/39 136/161/39 157/203/39
f 157/203/36 136/161/36 135/160/36 153/195/36
f 153/195/33 135/160/33 164/213/33 149/187/33
f 149/187/30 164/213/30 165/214/30 145/179/30
f 145/179/27 165/214/27 166/215/27 141/171/27
f 141/171/24 166/215/24 167/216/24 133/156/24
f 133/156/21 167/216/21 168/217/21 134/157/21
f 134/157/18 168/217/18 169/218/18 170/219/18
f 170/219/15 169/218/15 154/220/15 161/221/15
f 171/222/49 172/223/49 159/207/49 158/205/49
f 158/205/110 159/207/110 156/201/110 155/199/110
f 155/199/111 156/201/111 152/193/111 151/191/111
f 151/191/112 152/193/112 148/185/112 147/183/112
f 147/183/113 148/185/113 144/177/113 143/175/113
f 143/175/114 144/177/114 140/169/114 137/164/114
f 137/164/115 140/169/115 139/168/115 138/165/115
f 138/165/116 139/168/116 173/224/116 174/225/116
f 174/225/25 173/224/25 175/226/25 176/227/25
f 176/227/117 175/226/117 177/228/117 178/229/117
f 178/229/118 177/228/118 179/230/118 180/231/118
f 180/231/16 179/230/16 172/232/16 171/233/16
f 58/167/119 53/234/119 173/224/119 139/168/119
f 97/235/120 96/162/120 138/165/120 174/225/120
f 66/159/121 61/236/121 164/213/121 135/160/121
f 112/237/122 111/154/122 134/157/122 170/219/122
f 53/234/123 48/238/123 175/226/123 173/224/123
f 98/239/124 97/235/124 174/225/124 176/227/124
f 61/236/125 56/240/125 165/214/125 164/213/125
f 101/241/126 112/237/126 170/219/126 161/221/126
f 48/238/127 43/242/127 177/228/127 175/226/127
f 99/243/128 98/239/128 176/227/128 178/229/128
f 56/240/129 51/244/129 166/215/129 165/214/129
f 43/242/130 37/245/130 179/230/130 177/228/130
f 100/246/131 99/243/131 178/229/131 180/231/131
f 51/244/132 46/247/132 167/216/132 166/215/132
f 37/245/133 38/248/133 172/232/133 179/230/133
f 102/249/134 101/250/134 161/210/134 162/211/134
f 89/251/135 100/246/135 180/231/135 171/233/135
f 46/247/136 41/252/136 168/217/136 167/216/136
f 103/253/137 102/249/137 162/211/137 163/212/137
f 41/252/138 33/254/138 169/218/138 168/217/138
f 104/208/139 103/253/139 163/212/139 160/209/139
f 38/255/140 88/206/140 159/207/140 172/223/140
f 33/254/141 36/256/141 154/220/141 169/218/141
f 90/204/142 89/257/142 171/222/142 158/205/142
